if (_typeface_js && _typeface_js.loadFace) _typeface_js.loadFace({"glyphs":{"0":{"ha":494,"x_min":72,"x_max":508,"o":"m 508 474 q 387 158 508 321 q 169 -6 265 -6 q 99 35 126 -6 q 72 143 72 75 q 194 435 72 285 q 428 586 317 586 q 508 474 508 586 m 475 500 q 426 568 475 568 q 239 391 344 568 q 133 83 133 214 q 146 33 133 51 q 176 14 158 14 q 369 193 263 14 q 475 500 475 372 z "},"1":{"ha":379,"x_min":60,"x_max":449,"o":"m 449 578 q 435 538 449 565 l 165 13 l 65 0 l 381 503 q 64 242 99 242 q 60 256 60 242 q 256 419 156 328 q 382 539 308 468 q 439 586 431 586 l 449 578 z "},"2":{"ha":494,"x_min":-7,"x_max":499,"o":"m 499 468 q 401 307 499 378 q 207 201 374 286 q 67 92 90 142 q 175 144 128 144 q 246 90 235 144 q 276 36 257 36 q 342 75 304 36 q 419 164 381 119 q 424 154 424 157 q 364 71 424 133 q 236 -3 293 -3 q 183 18 200 -3 q 167 74 167 39 q 142 107 167 107 q 69 72 107 107 q 1 -6 35 33 q -7 4 -7 -6 q 36 88 -7 32 q 168 208 88 153 q 292 294 265 274 q 393 389 361 349 q 433 496 433 442 q 412 548 433 528 q 354 568 390 568 q 224 516 282 568 q 167 403 167 464 q 178 369 167 383 q 204 356 189 356 q 318 439 267 356 q 368 522 343 481 q 376 504 376 522 q 328 384 376 443 q 215 325 279 325 q 144 399 144 325 q 213 528 144 468 q 372 588 281 588 q 465 555 431 588 q 499 468 499 522 z "},"3":{"ha":494,"x_min":29,"x_max":508,"o":"m 508 492 q 296 304 508 378 q 406 207 406 304 q 319 54 406 119 q 154 -6 240 -6 q 63 24 96 -6 q 29 101 29 53 q 43 153 29 133 q 82 172 57 172 q 121 129 121 172 q 92 88 121 101 q 64 68 64 75 q 85 38 64 51 q 138 24 106 24 q 278 103 208 24 q 343 235 343 176 q 296 285 343 285 q 243 270 272 285 q 208 256 214 256 q 199 265 199 256 q 231 292 199 276 q 311 335 286 319 q 449 507 449 426 q 375 563 449 563 q 267 524 318 563 q 215 440 215 485 q 253 401 215 401 q 303 420 275 401 q 356 474 332 439 q 373 508 368 492 q 383 525 378 525 q 390 515 390 519 q 349 414 390 457 q 257 371 307 371 q 196 431 196 371 q 258 536 196 486 q 397 586 319 586 q 478 560 447 586 q 508 492 508 533 z "},"4":{"ha":483,"x_min":25,"x_max":463,"o":"m 463 415 q 403 301 463 411 q 319 136 356 215 q 375 154 349 139 q 421 185 397 169 q 431 176 431 185 q 396 140 431 165 q 306 110 353 110 q 257 4 286 78 l 149 -6 l 228 114 q 175 121 213 117 q 125 125 138 125 q 76 117 96 125 q 38 101 57 110 q 26 106 31 101 q 25 110 25 107 q 144 288 72 174 q 299 565 225 414 l 406 575 q 226 324 319 444 q 79 143 167 246 q 101 148 88 144 q 124 151 114 151 q 163 150 153 151 q 244 136 172 149 q 454 424 438 424 q 463 415 463 424 z "},"5":{"ha":472,"x_min":18,"x_max":554,"o":"m 554 576 q 508 528 554 558 q 382 490 451 490 q 338 492 351 490 q 299 503 324 494 l 189 331 q 288 361 244 361 q 374 328 342 361 q 407 240 407 296 q 321 72 407 149 q 131 -4 235 -4 q 49 22 79 -4 q 18 93 18 49 q 35 151 18 129 q 79 174 51 174 q 118 132 118 174 q 88 88 118 96 q 58 64 58 81 q 78 33 58 47 q 126 18 97 18 q 268 105 194 18 q 342 274 342 192 q 325 321 342 303 q 281 339 308 339 q 204 313 240 339 q 135 253 169 282 q 126 260 132 253 q 125 263 125 261 q 133 288 125 272 l 321 590 q 454 560 393 560 q 521 572 492 560 q 547 585 533 578 l 554 576 z "},"6":{"ha":499,"x_min":72,"x_max":593,"o":"m 593 503 q 577 459 593 478 q 539 440 561 440 q 503 475 503 440 q 513 504 503 490 q 535 533 524 518 q 490 564 535 564 q 347 496 425 564 q 189 285 260 419 q 321 369 260 369 q 388 340 363 369 q 414 257 414 310 q 331 71 414 153 q 174 -6 253 -6 q 100 34 128 -6 q 72 140 72 74 q 211 435 72 285 q 493 585 350 585 q 563 560 533 585 q 593 503 593 536 m 357 290 q 315 347 357 347 q 192 251 256 347 q 129 71 129 154 q 171 14 129 14 q 294 106 231 14 q 357 290 357 199 z "},"7":{"ha":461,"x_min":67,"x_max":538,"o":"m 538 556 q 489 490 538 551 q 358 313 417 400 q 169 0 261 169 l 67 -6 q 218 221 117 96 q 446 476 296 317 q 365 454 397 454 q 306 471 339 454 q 225 508 231 508 q 174 451 201 508 q 121 394 146 394 q 106 410 106 394 q 133 456 106 421 q 169 503 149 475 q 215 574 192 538 q 236 586 225 586 q 244 583 240 586 q 246 576 249 581 l 219 528 q 299 560 268 560 q 346 543 319 560 q 421 504 408 504 q 485 538 454 504 q 524 571 515 571 q 538 556 538 571 z "},"8":{"ha":494,"x_min":46,"x_max":504,"o":"m 504 483 q 338 321 504 382 q 377 250 364 282 q 390 189 390 218 q 325 53 390 111 q 172 -6 260 -6 q 81 26 115 -6 q 46 108 46 58 q 250 304 46 210 q 217 367 229 338 q 206 424 206 397 q 263 538 206 489 q 392 586 319 586 q 474 559 444 586 q 504 483 504 532 m 463 492 q 390 568 463 568 q 315 537 347 568 q 282 461 282 506 q 326 336 282 413 q 427 401 392 360 q 463 492 463 442 m 315 143 q 260 288 315 207 q 89 107 89 215 q 114 39 89 65 q 181 13 139 13 q 275 50 235 13 q 315 143 315 88 z "},"9":{"ha":499,"x_min":-17,"x_max":499,"o":"m 499 444 q 371 140 499 285 q 103 -4 243 -4 q 17 24 51 -4 q -17 90 -17 53 q -3 136 -17 118 q 33 154 11 154 q 62 141 50 154 q 74 108 74 128 q 58 66 74 86 q 42 43 42 46 q 92 14 42 14 q 244 89 165 14 q 382 308 333 172 q 253 221 315 221 q 185 252 211 221 q 160 340 160 283 q 233 506 160 424 q 396 588 307 588 q 469 549 440 588 q 499 444 499 510 m 440 513 q 429 553 440 539 q 399 568 418 568 q 276 479 338 568 q 215 301 215 390 q 253 243 215 243 q 378 337 315 243 q 440 513 440 431 z "}," ":{"ha":278,"x_min":0,"x_max":0,"o":""},"!":{"ha":321,"x_min":11,"x_max":436,"o":"m 436 597 l 132 153 q 101 122 113 122 q 92 132 92 129 q 104 165 92 143 l 332 588 l 436 597 m 94 50 q 80 12 94 29 q 46 -6 65 -6 q 21 4 31 -6 q 11 29 11 14 q 26 67 11 50 q 61 85 40 85 q 94 50 94 85 z "},"\"":{"ha":394,"x_min":56,"x_max":339,"o":"m 339 808 l 336 782 l 301 514 l 285 514 l 250 782 l 247 808 q 293 864 247 864 q 339 808 339 864 m 147 808 l 144 782 l 111 514 l 93 514 l 58 782 l 56 808 q 101 864 56 864 q 147 808 147 864 z "},"#":{"ha":935,"x_min":76,"x_max":857,"o":"m 857 565 l 842 518 l 650 518 l 586 339 l 793 339 l 776 292 l 569 292 l 467 0 l 410 0 l 513 292 l 335 292 l 231 0 l 175 0 l 278 292 l 76 292 l 94 339 l 296 339 l 358 518 l 140 518 l 157 565 l 375 565 l 479 860 l 536 860 l 432 565 l 610 565 l 714 860 l 771 860 l 667 565 l 857 565 m 593 518 l 415 518 l 351 339 l 529 339 l 593 518 z "},"$":{"ha":428,"x_min":3,"x_max":508,"o":"m 508 651 l 450 544 q 481 475 481 515 q 454 403 481 433 q 392 372 428 372 q 378 375 386 372 q 363 381 371 378 l 307 275 q 322 228 318 247 q 325 193 325 210 q 279 78 325 132 q 167 11 233 24 l 121 -75 l 104 -65 l 144 10 q 72 24 106 10 l 18 -76 l 3 -67 l 54 33 q 7 122 7 72 q 38 208 7 175 q 114 240 69 240 q 158 225 139 240 l 210 324 q 194 404 194 372 q 235 516 194 468 q 342 571 276 564 l 392 661 l 406 653 l 364 571 q 398 567 383 571 q 435 554 413 564 l 490 658 l 508 651 m 461 479 q 442 529 461 508 l 397 444 q 421 414 401 414 q 449 431 438 414 q 461 479 461 449 m 426 539 q 372 551 394 551 l 351 550 l 264 386 l 297 299 l 349 390 q 335 419 335 404 q 368 456 335 456 l 382 454 l 426 539 m 328 544 q 253 444 253 522 l 257 411 l 328 544 m 265 167 l 264 196 l 179 33 q 265 167 265 60 m 257 219 q 242 261 247 249 q 221 303 236 274 l 171 211 q 181 183 181 197 q 171 157 181 168 q 146 146 161 146 l 138 147 l 81 42 q 135 28 115 28 l 156 29 l 257 219 m 121 156 q 100 182 108 161 q 82 203 92 203 q 44 181 63 203 q 26 125 26 158 q 64 49 26 78 l 121 156 z "},"%":{"ha":681,"x_min":6,"x_max":674,"o":"m 639 219 q 580 69 639 143 q 463 -6 521 -6 q 406 19 428 -6 q 385 83 385 43 q 447 224 385 157 q 575 290 510 290 q 639 219 639 290 m 674 583 q 642 540 674 571 l 82 -29 q 56 -56 69 -42 q 22 -71 42 -71 q 8 -67 15 -71 q 6 -62 7 -67 q 15 -44 6 -56 q 44 -15 33 -26 l 585 513 q 463 475 514 475 q 367 506 400 475 q 301 352 356 415 q 193 289 246 289 q 138 314 160 289 q 115 379 115 339 q 178 519 115 453 q 304 586 240 586 q 369 540 340 586 q 461 494 399 494 q 565 524 513 494 q 665 588 615 556 q 674 583 669 588 m 346 514 q 306 564 346 564 q 208 484 264 564 q 153 353 153 404 q 192 308 153 308 q 292 378 239 308 q 346 514 346 449 m 617 221 q 576 269 617 269 q 480 191 536 269 q 424 60 424 113 q 463 14 424 14 q 564 85 511 14 q 617 221 617 156 z "},"&":{"ha":867,"x_min":26,"x_max":961,"o":"m 961 475 q 915 431 961 431 q 874 456 899 431 q 851 469 860 469 q 783 429 825 469 q 688 315 757 404 q 550 138 618 225 q 572 68 563 108 q 581 -15 581 28 q 478 -273 581 -169 q 233 -376 376 -376 q 83 -330 139 -376 q 26 -211 26 -283 q 72 -113 26 -156 q 160 -71 117 -71 q 167 -72 163 -71 q 169 -74 168 -72 q 84 -124 122 -92 q 46 -208 46 -157 q 90 -295 46 -261 q 203 -329 133 -329 q 448 -223 336 -329 q 560 21 560 -117 q 538 124 560 65 q 300 -6 429 -6 q 178 39 224 -6 q 132 153 132 83 q 204 301 132 238 q 422 411 276 364 q 418 448 421 424 q 415 478 415 472 q 463 624 415 565 q 569 682 510 682 q 643 656 615 682 q 671 585 671 629 q 447 393 671 476 q 542 156 461 336 q 692 351 669 324 q 808 481 768 449 q 914 525 863 525 q 947 510 933 525 q 961 475 961 496 m 653 590 q 631 643 653 622 q 572 664 608 664 q 475 610 518 664 q 432 476 432 556 q 435 447 432 464 q 440 417 438 431 q 600 490 553 454 q 653 590 653 531 m 528 140 q 471 272 488 233 q 429 386 446 335 q 257 275 315 340 q 199 131 199 210 q 229 44 199 78 q 306 11 260 11 q 528 140 428 11 z "},"'":{"ha":203,"x_min":56,"x_max":147,"o":"m 147 808 l 144 782 l 110 514 l 92 514 l 57 782 l 56 808 q 101 864 56 864 q 147 808 147 864 z "},"(":{"ha":393,"x_min":58,"x_max":754,"o":"m 754 871 q 314 497 506 746 q 114 13 114 238 q 135 -110 114 -54 q 181 -196 157 -153 l 174 -204 q 110 -122 153 -204 q 58 81 58 -24 q 229 499 58 292 q 553 781 357 653 q 743 882 708 882 q 754 871 754 882 z "},")":{"ha":393,"x_min":-296,"x_max":400,"o":"m 400 594 q 229 176 400 383 q -94 -106 101 22 q -285 -207 -250 -207 q -296 -196 -296 -207 q 144 178 -47 -71 q 344 663 344 438 q 324 785 344 729 q 278 871 300 828 l 285 879 q 349 797 306 879 q 400 594 400 699 z "},"*":{"ha":421,"x_min":238,"x_max":586,"o":"m 586 750 q 578 732 586 739 q 536 719 569 725 l 431 700 l 519 640 q 556 601 556 615 q 547 582 556 590 q 529 574 539 574 q 508 582 518 574 q 488 606 504 585 l 418 686 l 410 579 q 381 526 410 526 q 353 554 353 526 q 357 573 353 563 q 363 589 361 583 l 400 690 l 303 643 q 281 635 292 639 q 260 631 269 631 q 238 660 238 631 q 249 678 238 672 q 288 690 260 683 l 393 708 l 304 768 q 279 788 283 783 q 269 807 269 797 q 278 826 269 818 q 294 835 286 835 q 319 822 307 835 q 336 803 326 814 l 406 722 l 414 829 q 442 882 414 882 q 471 856 471 882 q 460 819 471 847 l 424 719 l 521 765 q 546 776 539 775 q 564 778 550 778 q 586 750 586 778 z "},"+":{"ha":694,"x_min":58,"x_max":649,"o":"m 649 315 l 631 268 l 368 268 l 271 0 l 224 0 l 321 268 l 58 268 l 76 315 l 339 315 l 435 582 l 482 582 l 386 315 l 649 315 z "},",":{"ha":278,"x_min":-58,"x_max":158,"o":"m 158 49 q 82 -65 158 -6 q -50 -125 6 -125 l -58 -117 q 7 -85 -58 -114 q 72 15 72 -56 q 121 85 72 85 q 158 49 158 85 z "},"-":{"ha":432,"x_min":68,"x_max":376,"o":"m 376 201 l 351 149 l 68 149 l 93 201 l 376 201 z "},".":{"ha":278,"x_min":61,"x_max":144,"o":"m 144 50 q 130 12 144 29 q 96 -6 115 -6 q 71 4 81 -6 q 61 29 61 14 q 76 67 61 50 q 111 85 90 85 q 144 50 144 85 z "},"/":{"ha":360,"x_min":-10,"x_max":436,"o":"m 436 668 l 0 -112 l -10 -108 l 372 668 l 436 668 z "},":":{"ha":278,"x_min":22,"x_max":247,"o":"m 247 288 q 232 250 247 268 q 197 232 217 232 q 172 242 182 232 q 163 268 163 251 q 178 306 163 288 q 213 324 193 324 q 238 314 228 324 q 247 288 247 304 m 106 50 q 91 12 106 29 q 57 -6 76 -6 q 32 4 42 -6 q 22 29 22 14 q 37 67 22 50 q 72 85 51 85 q 106 50 106 85 z "},";":{"ha":278,"x_min":-108,"x_max":247,"o":"m 247 288 q 232 250 247 268 q 197 232 217 232 q 172 242 182 232 q 163 268 163 251 q 178 306 163 288 q 213 324 193 324 q 238 314 228 324 q 247 288 247 304 m 110 49 q 34 -65 110 -6 q -99 -125 -42 -125 l -108 -117 q -42 -85 -108 -114 q 24 14 24 -56 q 72 83 24 83 q 110 49 110 83 z "},"<":{"ha":694,"x_min":72,"x_max":643,"o":"m 643 514 l 624 461 l 158 306 l 597 99 l 578 47 l 72 288 l 85 324 l 643 514 z "},"=":{"ha":694,"x_min":72,"x_max":671,"o":"m 671 436 l 653 389 l 150 389 l 168 436 l 671 436 m 593 222 l 575 175 l 72 175 l 90 222 l 593 222 z "},">":{"ha":694,"x_min":96,"x_max":706,"o":"m 706 324 l 693 288 l 96 75 l 115 126 l 621 306 l 225 494 l 244 547 l 706 324 z "},"?":{"ha":396,"x_min":22,"x_max":449,"o":"m 449 485 q 399 369 449 414 q 186 222 292 296 q 129 151 154 193 q 103 121 110 121 q 96 131 96 128 q 197 276 119 200 q 326 400 261 338 q 390 539 390 472 q 332 585 390 585 q 248 555 288 585 q 208 506 208 525 q 231 488 208 501 q 253 451 253 474 q 240 422 253 435 q 213 410 228 410 q 182 424 194 410 q 169 463 169 439 q 220 559 169 515 q 335 603 271 603 q 417 572 386 603 q 449 485 449 540 m 106 50 q 91 12 106 29 q 57 -6 76 -6 q 32 4 42 -6 q 22 29 22 14 q 37 67 22 50 q 72 85 51 85 q 106 50 106 85 z "},"@":{"ha":1197,"x_min":171,"x_max":1303,"o":"m 1303 600 q 1152 248 1303 422 q 856 74 1001 74 q 772 144 772 74 q 782 203 772 172 q 547 75 665 75 q 446 188 446 75 q 592 455 446 317 q 864 593 739 593 q 953 476 953 593 l 1025 583 l 1097 583 l 867 226 q 839 176 842 181 q 825 133 825 149 q 869 97 825 97 q 1019 160 928 97 q 1193 336 1124 231 q 1278 603 1278 464 q 1196 772 1278 711 q 968 833 1114 833 q 440 592 675 833 q 222 136 222 368 q 324 -60 222 21 q 583 -140 425 -140 q 997 -17 792 -140 l 1007 -35 q 575 -164 786 -164 q 276 -81 381 -164 q 171 150 171 1 q 407 615 171 389 q 974 857 660 857 q 1217 789 1132 857 q 1303 600 1303 721 m 926 490 q 854 574 926 574 q 626 406 757 574 q 503 161 503 247 q 567 99 503 99 q 795 240 664 99 q 926 490 926 381 z "},"A":{"ha":1450,"x_min":178,"x_max":1747,"o":"m 1747 875 q 1488 499 1604 706 q 1289 89 1389 326 q 1390 114 1347 89 q 1458 169 1424 142 l 1463 165 q 1415 110 1463 142 q 1281 71 1358 71 l 1250 7 l 1153 -6 l 1186 78 q 1065 105 1122 83 q 950 164 1008 126 q 517 -6 751 -6 q 268 63 358 -6 q 178 249 178 132 q 276 445 178 364 q 503 526 374 526 q 676 476 611 526 q 740 349 740 425 q 670 195 740 254 q 486 136 600 136 q 425 149 425 136 q 436 154 432 154 l 481 151 q 653 203 589 151 q 717 332 717 254 q 666 437 717 399 q 526 475 615 475 q 303 398 396 475 q 210 219 210 321 q 292 69 210 126 q 514 11 374 11 q 935 176 749 11 q 779 450 779 301 q 833 588 779 536 q 968 639 888 639 q 1096 603 1036 639 q 1219 468 1168 560 q 1358 613 1303 558 q 1528 754 1449 699 q 1747 875 1628 824 m 1672 819 q 1228 451 1479 739 q 1251 294 1251 381 q 1249 250 1251 275 q 1242 193 1247 225 q 1442 536 1328 374 q 1672 819 1538 671 m 1206 456 q 1000 603 1132 603 q 876 547 928 603 q 825 410 825 492 q 950 189 825 285 q 1115 356 1024 254 q 1206 456 1176 424 m 1235 292 q 1215 438 1235 371 q 965 179 1090 308 q 1194 94 1060 107 q 1235 292 1235 196 z "},"B":{"ha":1271,"x_min":183,"x_max":1264,"o":"m 1264 658 q 1214 538 1264 590 q 1069 460 1164 486 q 1184 397 1142 442 q 1226 278 1226 351 q 1126 76 1226 163 q 918 -6 1032 -6 q 813 28 851 -6 q 775 121 775 63 q 828 258 775 194 q 897 313 872 313 l 903 306 q 828 228 860 274 q 792 124 792 176 q 819 47 792 75 q 897 18 846 18 q 1067 106 994 18 q 1139 303 1139 193 q 1107 405 1139 364 q 1040 446 1075 446 q 1014 440 1028 446 q 960 425 974 425 q 926 450 926 425 q 968 479 926 479 q 999 476 979 479 q 1025 474 1018 474 q 1128 539 1075 474 q 1182 688 1182 604 q 1124 804 1182 763 q 947 589 1026 724 q 832 375 868 439 q 590 89 726 193 q 340 -10 461 -10 q 228 22 271 -10 q 186 100 186 53 q 203 146 186 128 q 244 164 219 164 q 280 148 265 164 q 294 110 294 132 q 286 82 294 97 q 278 61 278 67 q 298 24 278 39 q 353 10 318 10 q 540 100 450 10 q 722 360 622 182 q 822 532 804 504 q 936 685 881 625 q 1101 822 1006 758 q 888 867 1007 867 q 733 849 821 867 q 775 783 761 819 q 789 697 789 747 q 671 418 789 540 q 429 301 558 301 q 319 339 360 301 q 279 438 279 376 q 385 671 279 557 q 692 858 500 796 q 560 896 635 896 q 325 803 425 896 q 188 600 256 701 l 183 607 q 278 779 183 675 q 557 911 397 911 q 717 863 651 911 q 810 878 771 874 q 889 883 849 883 q 1126 839 1014 883 q 1161 857 1151 853 q 1197 869 1186 869 q 1208 867 1203 869 q 1193 853 1208 861 q 1151 829 1165 839 q 1264 658 1264 764 m 740 733 q 701 842 740 797 q 401 665 518 788 q 297 453 297 556 q 328 367 297 399 q 414 335 358 335 q 624 450 518 335 q 740 733 740 578 z "},"C":{"ha":911,"x_min":153,"x_max":1138,"o":"m 1138 785 q 925 540 1138 667 q 475 408 703 408 q 431 278 447 344 q 415 160 415 211 q 445 49 415 88 q 535 10 475 10 l 531 71 q 607 303 531 208 q 765 389 676 389 q 841 359 813 389 q 869 279 869 329 q 783 106 869 193 q 557 -10 689 8 q 564 -62 557 -40 q 579 -107 571 -83 l 572 -112 q 538 -11 551 -112 l 514 -11 q 372 57 424 -11 q 326 204 326 117 q 339 305 326 256 q 376 411 351 354 q 211 497 269 433 q 153 654 153 561 q 235 828 153 757 q 444 900 318 900 q 743 765 613 900 q 913 840 835 815 q 1042 865 992 865 q 1138 785 1138 865 m 1118 782 q 1043 849 1118 849 q 921 823 990 849 q 764 740 851 797 q 829 625 829 640 q 826 618 829 622 q 824 615 825 617 q 792 663 818 615 q 749 729 772 696 q 600 602 660 667 q 504 468 540 538 l 528 468 q 943 581 754 468 q 1118 782 1118 685 m 728 757 q 450 883 603 883 q 256 824 332 883 q 181 681 181 765 q 244 544 181 601 q 415 475 307 486 q 728 757 538 649 m 850 278 q 831 335 850 313 q 781 358 813 358 q 632 255 708 358 q 556 33 556 151 l 556 11 q 767 111 676 22 q 850 278 850 193 z "},"D":{"ha":1063,"x_min":46,"x_max":1139,"o":"m 1139 843 q 1085 807 1118 829 q 1013 744 1051 785 q 1097 507 1097 638 q 943 154 1097 300 q 518 0 779 0 l 369 3 q 332 1 347 3 q 243 -6 258 -6 q 153 6 185 -6 q 122 38 122 17 q 181 64 122 64 q 292 49 224 64 q 382 33 360 33 q 556 151 474 33 q 719 429 638 290 q 974 754 839 629 q 725 838 879 838 q 683 835 707 838 q 632 828 658 832 q 676 747 661 789 q 692 656 692 704 q 592 398 692 515 q 364 281 493 281 q 238 328 286 281 q 189 453 189 375 q 293 686 189 576 q 579 846 403 801 q 446 879 521 879 q 243 811 335 879 q 97 618 151 743 q 69 513 76 568 q 54 458 61 458 q 50 463 51 461 q 46 475 46 468 q 156 753 46 624 q 444 896 276 896 q 604 851 532 896 q 700 860 654 860 q 988 767 878 860 q 1078 827 1040 807 q 1133 847 1117 847 l 1139 843 m 1079 503 q 1001 729 1079 635 q 840 483 935 654 q 679 222 738 297 q 431 24 572 86 q 536 18 486 18 q 931 167 774 18 q 1079 503 1079 308 m 674 661 q 658 748 674 708 q 610 824 643 788 q 351 646 456 776 q 256 408 256 525 q 368 300 256 300 q 585 417 492 300 q 674 661 674 528 z "},"E":{"ha":725,"x_min":138,"x_max":871,"o":"m 871 814 q 775 681 871 756 q 499 547 665 594 q 523 513 507 522 q 569 504 539 504 l 604 507 q 636 488 636 507 q 607 469 636 469 q 563 476 589 469 q 532 482 536 482 q 356 390 449 482 q 250 160 250 286 q 282 62 250 101 q 364 15 314 22 l 363 51 q 435 294 363 197 q 592 385 501 385 q 663 358 636 385 q 690 286 690 331 q 607 96 690 181 q 389 -6 524 11 q 399 -68 393 -44 q 408 -110 404 -92 q 407 -115 408 -112 q 404 -118 406 -117 q 368 -6 389 -118 q 217 41 269 -6 q 165 171 165 88 q 252 368 165 282 q 501 496 339 454 q 450 539 468 513 q 372 532 404 532 q 201 580 264 532 q 138 704 138 628 q 205 841 138 786 q 378 896 272 896 q 594 819 494 896 q 703 858 651 846 q 790 871 754 871 q 871 814 871 871 m 851 814 q 797 856 851 856 q 725 840 765 856 q 631 786 685 824 q 681 717 681 733 l 678 711 q 650 739 672 711 q 617 775 638 754 q 526 688 558 740 q 494 581 494 636 q 757 688 650 608 q 851 814 851 757 m 576 808 q 378 879 486 879 q 228 836 286 879 q 169 729 169 793 q 233 619 169 665 q 385 572 296 572 l 429 576 q 421 615 421 597 q 460 714 421 664 q 576 808 499 764 m 674 281 q 606 361 674 361 q 465 267 536 361 q 388 42 388 164 l 388 14 q 590 106 501 14 q 674 281 674 192 z "},"F":{"ha":1242,"x_min":165,"x_max":1650,"o":"m 1650 858 q 1599 814 1650 840 q 1454 782 1535 782 q 1275 797 1403 782 q 1068 813 1147 813 q 775 749 888 813 q 669 601 669 689 q 706 533 669 561 q 801 504 742 504 q 992 571 900 504 q 1138 719 1064 644 l 1139 711 q 1056 571 1139 660 q 832 461 953 461 q 701 499 751 461 q 650 594 650 538 q 761 764 650 696 q 1215 854 908 854 l 1401 851 q 1533 856 1481 851 q 1636 868 1585 861 q 1647 861 1640 868 q 1650 858 1649 860 m 1375 490 q 1308 400 1349 458 q 1222 253 1260 329 q 1144 219 1169 219 q 1138 231 1138 226 q 1174 299 1138 246 q 1293 440 1218 363 q 1124 396 1208 404 q 493 -7 900 -7 q 252 59 339 -7 q 165 240 165 125 q 259 444 165 361 q 489 526 353 526 q 662 474 596 526 q 728 343 728 422 q 653 196 728 260 q 469 132 578 132 q 363 150 407 132 q 318 182 318 168 l 325 185 q 392 160 353 171 q 468 149 431 149 q 635 202 568 149 q 703 331 703 256 q 653 438 703 399 q 518 478 604 478 q 285 402 382 478 q 189 225 189 326 q 270 69 189 129 q 489 8 351 8 q 790 97 664 8 q 1018 376 915 186 q 889 313 943 351 q 800 238 844 275 q 869 317 799 263 q 1033 400 947 376 q 1238 676 1128 568 q 1356 761 1322 761 l 1361 758 q 1264 646 1324 731 q 1135 415 1200 556 q 1264 446 1208 424 q 1365 496 1314 471 q 1372 493 1368 496 q 1375 490 1374 492 z "},"G":{"ha":1108,"x_min":160,"x_max":1378,"o":"m 1378 803 q 1189 581 1378 701 q 765 433 990 453 q 758 398 761 413 q 756 365 756 383 q 828 271 756 271 q 998 355 900 271 q 1194 528 1096 439 l 1200 522 q 1178 476 1200 515 q 1115 361 1121 376 q 989 97 1058 204 q 788 -111 900 -40 q 481 -194 656 -194 q 248 -126 336 -194 q 160 51 160 -57 q 256 249 160 164 q 489 333 351 333 q 661 279 593 333 q 729 147 729 225 q 657 3 729 64 q 478 -58 585 -58 q 376 -44 421 -58 q 332 -18 332 -31 l 339 -14 q 407 -33 368 -25 q 482 -42 446 -42 q 640 13 575 -42 q 706 139 706 68 q 656 241 706 201 q 524 281 607 281 q 292 202 392 281 q 193 26 193 124 q 268 -116 193 -57 q 460 -175 343 -175 q 786 -31 639 -175 q 1081 406 921 100 q 806 251 929 251 q 706 291 744 251 q 668 396 668 331 l 669 429 q 474 504 543 442 q 404 663 404 567 q 488 841 404 768 q 701 914 572 914 q 983 785 869 914 q 1151 854 1071 831 q 1282 878 1231 878 q 1378 803 1378 878 m 1361 799 q 1283 860 1361 860 q 1163 834 1231 860 q 1011 753 1094 808 q 1072 643 1072 668 q 1071 635 1072 638 q 1067 633 1069 633 q 1047 664 1064 633 q 996 743 1022 708 q 858 619 913 683 q 782 489 803 554 q 1194 604 1008 489 q 1361 799 1361 707 m 968 776 q 847 868 914 838 q 701 899 779 899 q 510 837 589 899 q 431 692 431 775 q 501 550 431 610 q 686 490 571 490 q 968 776 760 654 z "},"H":{"ha":1438,"x_min":125,"x_max":1835,"o":"m 1835 783 q 1379 474 1835 606 q 1260 228 1299 328 q 1221 75 1221 129 q 1256 24 1221 24 q 1369 97 1297 24 q 1442 172 1406 135 l 1449 165 q 1371 76 1449 149 q 1239 -4 1285 -4 q 1181 31 1204 -4 q 1157 124 1157 67 q 1272 444 1157 250 q 1064 381 1164 414 q 799 84 956 186 q 456 -18 642 -18 q 214 49 303 -18 q 125 226 125 115 q 226 428 125 344 q 478 513 326 513 q 652 463 588 513 q 717 335 717 414 q 636 185 717 250 q 439 121 556 121 q 331 138 379 121 q 282 165 282 156 l 288 171 q 356 147 315 158 q 440 136 397 136 q 619 193 544 136 q 694 319 694 250 q 642 423 694 383 q 497 463 590 463 q 251 382 350 463 q 158 207 158 306 q 237 56 158 113 q 450 0 315 0 q 727 81 614 0 q 946 343 840 161 q 842 289 890 319 q 760 240 763 240 q 810 289 758 254 q 957 367 863 324 q 1065 540 1004 453 q 1179 690 1117 615 q 1103 653 1140 671 q 1004 625 1042 625 q 919 726 919 625 q 922 758 919 738 q 925 788 925 779 q 907 822 925 822 q 725 690 836 822 q 618 558 671 624 l 615 564 q 731 722 615 601 q 935 856 857 856 q 1007 765 1007 856 l 1003 690 q 1032 651 1003 651 q 1186 717 1083 651 q 1407 858 1296 788 q 1426 842 1426 858 q 1346 789 1426 828 q 1260 731 1292 763 q 1175 604 1222 692 q 1075 403 1142 542 q 1288 467 1181 435 q 1569 756 1421 647 q 1767 847 1694 847 q 1835 783 1835 847 m 1815 779 q 1767 829 1815 829 q 1610 747 1706 829 q 1392 494 1506 658 q 1706 633 1597 557 q 1815 779 1815 708 z "},"I":{"ha":1050,"x_min":160,"x_max":1429,"o":"m 1429 847 q 1385 829 1407 838 q 1260 729 1322 801 q 1071 418 1165 619 q 1161 454 1122 426 q 1229 513 1194 483 q 1186 451 1232 489 q 1057 392 1131 406 q 818 97 965 199 q 485 -4 671 -4 q 249 67 338 -4 q 160 246 160 138 q 256 444 160 360 q 499 528 353 528 q 672 473 606 528 q 738 333 738 418 q 665 190 738 249 q 479 132 593 132 q 372 149 419 132 q 325 179 325 165 l 328 183 q 399 158 360 169 q 476 147 438 147 q 649 201 581 147 q 718 324 718 254 q 668 435 718 394 q 528 476 618 476 q 294 402 388 476 q 201 225 201 328 q 276 74 201 133 q 479 14 351 14 q 749 106 632 14 q 964 392 865 197 q 863 436 897 400 q 828 531 828 472 q 1025 764 828 668 q 1408 850 1203 850 q 1424 849 1417 850 q 1429 847 1425 849 m 1363 835 q 1007 724 1138 813 q 883 524 883 639 q 908 447 883 475 q 976 418 932 418 q 1164 685 1075 588 q 1363 835 1258 789 z "},"J":{"ha":1124,"x_min":24,"x_max":1476,"o":"m 1476 860 q 1431 829 1476 857 q 1301 710 1365 790 q 1106 371 1204 588 q 1200 414 1160 385 q 1271 475 1235 444 q 1215 403 1274 446 q 1093 349 1157 361 q 1000 179 1024 221 q 896 1 965 117 q 1039 85 979 36 q 1128 172 1083 128 l 1135 165 q 1038 63 1135 136 q 881 -22 968 10 q 608 -304 758 -204 q 325 -400 464 -400 q 108 -322 193 -400 q 24 -129 24 -244 q 110 76 24 -7 q 325 160 196 160 q 461 107 407 160 q 515 -24 515 54 q 482 -131 515 -89 q 800 -24 567 -72 q 885 140 836 47 q 993 349 969 303 q 892 387 929 349 q 856 485 856 425 q 981 700 856 604 q 1240 825 1078 775 q 1457 867 1375 867 q 1474 863 1467 867 q 1476 860 1475 863 m 1433 849 q 1049 710 1192 818 q 915 479 915 608 q 1006 367 915 375 q 1433 849 1203 735 m 789 -44 q 499 -140 596 -83 q 353 -242 425 -190 q 328 -224 328 -242 q 412 -158 328 -200 q 496 -40 496 -117 q 452 66 496 25 q 333 107 408 107 q 138 31 222 107 q 54 -149 54 -44 q 128 -315 54 -247 q 317 -382 203 -382 q 566 -297 446 -382 q 789 -44 686 -212 z "},"K":{"ha":1447,"x_min":96,"x_max":1831,"o":"m 1831 764 q 1816 726 1831 742 q 1779 710 1801 710 q 1751 722 1764 710 q 1739 751 1739 735 q 1747 776 1739 758 q 1754 803 1754 794 q 1710 832 1754 832 q 1549 737 1639 832 q 1372 549 1460 642 q 1132 415 1254 438 q 1258 242 1258 375 q 1247 154 1258 213 q 1236 68 1236 96 q 1272 24 1236 24 q 1351 69 1301 24 q 1453 172 1401 121 l 1460 165 q 1383 76 1460 149 q 1263 -1 1301 -1 q 1192 42 1224 -1 q 1160 146 1160 85 q 1174 254 1160 171 q 1181 322 1181 296 q 1160 374 1181 353 q 1108 396 1140 396 l 1082 394 q 1064 408 1064 394 q 1081 423 1064 421 q 1117 428 1099 425 q 1304 563 1197 450 q 1489 753 1472 738 q 1719 850 1604 850 q 1800 825 1769 850 q 1831 764 1831 800 m 1388 843 q 1354 811 1388 826 q 1289 782 1321 796 q 1101 525 1213 742 q 869 171 972 274 q 418 -7 692 -7 q 181 60 267 -7 q 96 240 96 128 q 196 442 96 358 q 446 526 296 526 q 619 474 553 526 q 685 343 685 422 q 608 191 685 251 q 407 131 531 131 q 298 148 344 131 q 251 179 251 165 q 261 183 258 183 q 328 157 288 168 q 411 146 368 146 q 588 202 515 146 q 660 333 660 258 q 606 435 660 397 q 460 474 553 474 q 229 399 326 474 q 132 219 132 324 q 203 65 132 119 q 407 10 275 10 q 722 115 603 10 q 921 382 786 172 q 1196 733 1061 601 q 1086 677 1129 696 q 1013 658 1043 658 q 950 683 975 658 q 925 746 925 708 q 925 764 925 758 q 921 810 925 800 q 897 819 917 819 q 819 782 868 819 q 707 661 764 739 q 651 572 681 625 q 628 542 635 542 l 625 549 q 732 718 625 596 q 939 854 851 854 q 1010 765 1010 854 q 1015 710 1010 731 q 1046 689 1021 689 q 1178 740 1089 689 q 1371 854 1274 797 q 1388 843 1388 854 z "},"L":{"ha":947,"x_min":86,"x_max":1149,"o":"m 1149 801 q 1049 631 1149 722 q 751 451 940 531 q 632 251 693 335 q 482 94 564 158 q 611 56 549 69 q 718 43 674 43 q 856 86 793 43 q 968 183 911 135 l 971 181 q 875 78 971 151 q 679 -6 767 -6 q 431 60 606 -6 q 328 12 376 28 q 228 -4 279 -4 q 124 18 163 -4 q 86 75 86 40 q 208 149 86 149 q 318 136 257 149 q 440 106 361 128 q 529 214 479 132 q 644 424 571 282 q 581 415 611 418 q 515 413 551 413 q 302 476 383 413 q 221 635 221 539 q 308 817 221 744 q 538 890 394 890 q 872 738 731 890 q 997 831 946 801 q 1088 860 1047 860 q 1132 843 1115 860 q 1149 801 1149 826 m 1131 794 q 1083 842 1131 842 q 1002 808 1050 842 q 897 707 954 775 q 942 632 942 646 q 938 625 942 629 q 921 643 933 625 q 886 690 903 671 q 831 606 860 654 q 775 500 797 550 q 1042 647 944 563 q 1131 794 1131 725 m 858 724 q 535 875 724 875 q 327 812 407 875 q 247 656 247 749 q 330 519 247 574 q 549 465 413 465 q 674 476 600 465 q 762 612 721 556 q 858 724 803 668 m 399 71 q 293 106 333 94 q 197 121 238 121 q 111 72 111 121 q 144 30 111 47 q 228 13 176 13 q 399 71 317 13 z "},"M":{"ha":1553,"x_min":119,"x_max":1754,"o":"m 1754 851 q 1646 672 1754 840 q 1443 340 1508 460 q 1333 54 1333 140 q 1342 33 1333 42 q 1363 25 1350 25 q 1454 71 1400 25 q 1557 172 1506 121 l 1564 165 q 1482 74 1564 144 q 1342 -4 1393 -4 q 1284 23 1306 -4 q 1263 96 1263 50 q 1364 365 1263 199 q 1661 767 1457 519 q 1396 492 1568 696 q 1124 167 1260 328 q 944 6 988 6 q 907 67 907 6 q 1024 344 907 163 q 1396 797 1156 550 q 982 419 1189 647 q 700 118 736 150 q 408 -4 560 -4 q 198 65 276 -4 q 119 243 119 133 q 211 435 119 358 q 438 511 303 511 q 606 458 542 511 q 669 325 669 406 q 599 181 669 242 q 418 119 528 119 q 297 144 350 119 q 243 185 243 169 q 244 190 243 188 q 247 193 246 192 q 323 153 278 171 q 422 136 368 136 q 581 188 517 136 q 644 307 644 239 q 590 414 644 372 q 440 456 536 456 q 223 391 306 456 q 140 231 140 326 q 214 77 140 140 q 404 14 288 14 q 618 85 514 14 q 824 274 700 140 q 1079 547 1060 528 q 1461 857 1393 857 l 1465 849 q 1382 744 1440 819 q 1238 540 1311 653 q 1057 231 1124 364 q 1001 89 1001 119 q 1006 81 1001 85 q 1071 136 1022 81 q 1206 297 1079 144 q 1424 550 1317 432 q 1647 781 1558 700 q 1751 856 1729 856 l 1754 851 z "},"N":{"ha":1340,"x_min":56,"x_max":1813,"o":"m 1813 813 q 1798 777 1813 792 q 1765 763 1783 763 q 1726 789 1739 763 q 1700 815 1714 815 q 1579 725 1660 815 q 1375 442 1490 626 q 1232 196 1303 326 q 1150 46 1190 121 q 1113 -6 1121 -6 q 1104 7 1104 -6 q 1123 65 1115 26 q 1131 153 1131 103 q 1119 283 1131 196 q 1108 415 1108 371 q 1158 729 1108 533 q 956 378 1042 506 q 706 104 833 197 q 381 -6 554 -6 q 144 62 232 -6 q 56 240 56 129 q 151 447 56 367 q 401 526 246 526 q 580 477 515 526 q 644 343 644 428 q 568 196 644 258 q 375 133 492 133 q 293 144 329 133 q 257 163 257 154 l 267 165 q 321 155 293 160 q 371 150 349 150 q 551 203 481 150 q 622 329 622 256 q 567 437 622 397 q 417 476 513 476 q 181 399 276 476 q 86 214 86 322 q 167 68 86 125 q 382 11 249 11 q 814 231 611 11 q 1088 639 938 365 q 1239 860 1208 860 q 1244 850 1244 854 q 1217 758 1229 814 q 1204 632 1204 701 l 1206 471 q 1201 324 1206 375 q 1167 110 1193 229 q 1757 860 1561 860 q 1797 846 1782 860 q 1813 813 1813 832 z "},"O":{"ha":856,"x_min":132,"x_max":1004,"o":"m 1004 735 q 992 689 1004 689 q 985 700 985 694 l 988 731 q 951 825 988 792 q 847 858 915 858 q 635 778 744 858 q 663 760 649 768 q 693 738 676 751 q 785 761 749 761 q 900 711 858 761 q 942 569 942 661 q 766 180 942 367 q 419 -7 590 -7 q 275 58 329 -7 q 221 232 221 122 q 313 513 221 368 q 579 782 406 658 q 535 790 561 786 q 493 794 508 794 q 291 729 379 794 q 164 550 203 664 q 148 483 153 519 q 138 446 143 446 q 132 461 132 456 q 233 701 132 597 q 489 811 340 811 q 539 807 515 811 q 596 794 563 803 q 842 878 742 878 q 960 840 917 878 q 1004 735 1004 801 m 753 550 q 690 717 753 656 q 524 557 585 654 q 463 372 463 460 q 490 292 463 324 q 557 261 517 261 q 691 349 629 261 q 753 550 753 438 m 925 578 q 888 698 925 651 q 793 744 851 744 q 710 724 751 744 q 774 627 751 676 q 797 513 797 578 q 718 310 797 394 q 567 233 646 233 q 478 272 513 233 q 444 374 444 310 q 505 560 444 463 q 676 728 565 657 q 615 767 647 753 q 379 482 469 653 q 296 190 296 324 q 335 60 296 107 q 444 14 375 14 q 754 196 590 14 q 925 578 925 386 z "},"P":{"ha":1021,"x_min":160,"x_max":1231,"o":"m 1231 607 q 1158 447 1231 517 q 993 378 1086 378 q 909 393 943 378 q 875 421 875 408 q 879 428 875 424 q 917 413 896 419 q 961 406 939 406 q 1094 478 1038 406 q 1151 650 1151 550 q 1071 794 1151 747 q 876 506 1004 735 q 649 161 739 260 q 311 -7 494 -7 q 201 22 242 -7 q 160 96 160 50 q 176 144 160 125 q 218 164 193 164 q 253 149 238 164 q 268 113 268 133 q 261 85 268 103 q 254 58 254 67 q 276 26 254 39 q 335 13 297 13 q 574 161 464 13 q 772 488 672 324 q 1054 806 907 704 q 974 831 1021 821 q 872 842 926 842 q 707 825 790 842 q 757 682 757 768 q 636 410 757 528 q 400 300 524 300 q 296 338 335 300 q 257 440 257 375 q 374 669 257 550 q 657 833 497 796 q 528 871 604 871 q 306 783 403 871 q 168 593 236 688 q 163 601 163 599 q 204 693 163 629 q 329 822 256 771 q 533 889 425 889 q 688 840 622 889 q 785 855 742 850 q 871 860 828 860 q 1079 824 978 860 q 1117 848 1099 836 q 1144 860 1135 860 l 1151 854 q 1138 840 1151 849 q 1099 815 1111 825 q 1231 607 1231 732 m 711 718 q 672 819 711 785 q 393 668 514 789 q 278 447 278 554 q 308 365 278 396 q 392 333 338 333 q 597 451 490 333 q 711 718 711 578 z "},"Q":{"ha":958,"x_min":101,"x_max":1013,"o":"m 1013 642 q 517 86 1013 336 q 717 33 651 33 q 854 81 785 33 q 978 185 915 132 l 983 182 q 885 81 983 153 q 654 -6 767 -6 q 562 6 607 -6 q 440 46 517 18 q 242 -1 335 -1 q 138 20 175 -1 q 101 76 101 42 q 134 130 101 110 q 226 150 167 150 q 340 136 275 150 q 489 96 406 122 q 810 365 676 179 q 939 700 939 544 q 897 806 939 765 q 783 847 854 847 q 763 847 772 847 q 718 840 761 847 q 775 690 775 783 q 665 423 775 543 q 421 303 554 303 q 321 339 356 303 q 286 440 286 375 q 386 663 286 551 q 672 844 496 783 q 554 879 626 879 q 378 827 461 879 q 238 679 296 775 q 206 614 221 653 q 189 589 196 589 q 185 599 185 596 q 282 768 185 665 q 554 896 403 896 q 703 851 633 896 q 796 865 756 865 q 954 804 896 865 q 1013 642 1013 743 m 728 718 q 686 832 728 792 q 407 661 515 778 q 306 446 306 553 q 333 364 306 394 q 411 333 361 333 q 624 463 519 333 q 728 718 728 592 m 418 57 q 285 105 343 90 q 189 119 226 119 q 124 75 124 119 q 157 31 124 49 q 246 14 190 14 q 418 57 329 14 z "},"R":{"ha":1207,"x_min":147,"x_max":1218,"o":"m 1218 167 q 1149 78 1218 149 q 1019 -3 1069 -3 q 959 35 986 -3 q 932 128 932 72 q 943 211 932 163 q 968 338 968 321 q 956 383 968 365 q 925 400 943 400 q 899 398 918 400 q 878 396 881 396 q 842 418 842 396 q 876 442 842 442 q 913 436 889 442 q 943 431 938 431 q 1057 499 999 431 q 1124 672 1124 576 q 1060 794 1124 751 q 874 524 994 746 q 646 169 733 268 q 300 -7 489 -7 q 190 22 231 -7 q 150 96 150 51 q 166 145 150 126 q 206 164 182 164 q 242 149 226 164 q 257 113 257 133 q 250 85 257 103 q 243 58 243 67 q 265 26 243 39 q 324 13 286 13 q 567 168 453 13 q 768 501 667 335 q 1042 806 900 715 q 831 849 965 849 q 758 844 790 849 q 696 832 725 839 q 742 686 742 768 q 630 422 742 538 q 390 306 518 306 q 282 343 321 306 q 243 446 243 381 q 350 664 243 553 q 651 840 468 788 q 589 869 622 861 q 508 878 556 878 q 347 830 429 878 q 210 701 265 782 q 165 610 185 664 q 156 592 158 592 q 147 600 147 592 q 239 763 147 661 q 522 894 358 894 q 683 847 622 894 q 835 865 757 865 q 962 854 903 865 q 1068 824 1021 843 q 1105 848 1088 836 q 1132 860 1122 860 q 1139 854 1135 860 q 1125 840 1139 849 q 1088 815 1100 825 q 1174 742 1143 786 q 1206 647 1206 697 q 1131 499 1206 568 q 949 415 1057 429 q 1043 271 1043 361 q 1032 183 1043 231 q 1004 61 1004 65 q 1032 24 1004 24 q 1143 97 1074 24 q 1211 172 1176 135 l 1218 167 m 701 715 q 665 825 701 788 q 369 663 483 778 q 264 446 264 556 q 292 365 264 394 q 372 335 321 335 q 585 454 475 335 q 701 715 701 581 z "},"S":{"ha":954,"x_min":101,"x_max":1347,"o":"m 1347 792 q 1257 632 1347 715 q 992 488 1156 538 q 753 115 892 236 q 419 -6 614 -6 q 189 64 276 -6 q 101 242 101 133 q 198 438 101 357 q 435 519 294 519 q 603 469 540 519 q 665 336 665 419 q 598 191 665 249 q 421 133 531 133 q 310 148 358 133 q 263 175 263 163 l 265 179 q 338 158 301 167 q 415 149 375 149 q 583 201 518 149 q 647 331 647 253 q 594 437 647 397 q 450 476 540 476 q 228 400 321 476 q 135 218 135 324 q 211 69 135 126 q 414 13 288 13 q 696 124 583 13 q 896 472 801 228 l 833 468 q 626 531 706 468 q 546 688 546 594 q 618 833 546 775 q 806 892 690 892 q 1092 757 979 892 q 1283 857 1215 857 q 1347 792 1347 857 m 1331 793 q 1283 842 1331 842 q 1211 813 1254 842 q 1118 725 1168 783 q 1157 654 1157 676 l 1151 649 q 1131 673 1144 649 q 1107 710 1118 697 q 1052 623 1078 672 q 1004 518 1026 574 q 1246 643 1150 551 q 1331 793 1331 724 m 1079 743 q 960 842 1029 808 q 806 875 890 875 q 642 824 706 875 q 578 703 578 774 q 663 561 578 622 q 876 500 749 500 l 908 501 q 988 635 944 575 q 1079 743 1026 689 z "},"T":{"ha":1097,"x_min":121,"x_max":1622,"o":"m 1622 861 q 1574 819 1622 842 q 1428 790 1511 790 q 1240 803 1375 790 q 1031 817 1106 817 q 746 753 854 817 q 643 606 643 693 q 676 529 643 560 q 763 499 710 499 q 968 568 875 499 q 1110 719 1039 643 q 1113 713 1113 715 q 1031 575 1113 664 q 797 463 926 463 q 672 501 718 463 q 625 603 625 539 q 782 790 625 724 q 1228 856 939 856 l 1425 856 q 1610 867 1599 867 q 1619 864 1615 867 q 1622 861 1621 863 m 1361 764 q 1264 669 1319 735 q 1153 496 1201 596 q 859 110 1021 225 q 464 -6 697 -6 q 212 63 303 -6 q 121 246 121 132 q 216 442 121 360 q 460 524 311 524 q 628 474 564 524 q 692 344 692 424 q 623 194 692 251 q 440 136 554 136 q 333 153 381 136 q 285 182 285 169 l 290 186 q 360 163 322 172 q 438 153 399 153 q 607 207 540 153 q 674 343 674 261 q 621 444 674 407 q 475 482 568 482 q 249 403 344 482 q 154 224 154 325 q 238 69 154 128 q 467 10 321 10 q 777 108 653 10 q 1040 458 901 207 q 1189 658 1106 576 q 1351 767 1299 767 q 1360 765 1357 767 q 1361 764 1360 764 z "},"U":{"ha":1049,"x_min":74,"x_max":1321,"o":"m 1321 850 l 910 211 q 864 128 885 172 q 838 50 838 71 q 861 22 838 22 q 981 97 907 22 q 1053 172 1017 135 l 1060 165 q 982 75 1060 146 q 854 -3 897 -3 q 797 86 797 -3 q 842 247 797 154 q 650 56 742 125 q 524 -6 569 -6 q 456 88 456 -6 q 488 214 456 146 q 575 361 513 268 l 729 594 q 777 683 761 643 q 793 747 793 722 q 665 844 793 844 l 613 840 q 664 713 664 799 q 574 492 664 593 q 354 385 478 385 q 263 418 296 385 q 229 507 229 451 q 318 693 229 600 q 567 843 414 794 q 482 860 522 860 q 285 790 383 860 q 131 599 188 719 q 89 453 100 532 q 81 428 86 428 q 74 446 74 438 q 201 739 74 603 q 486 875 329 875 q 593 851 542 875 q 635 858 617 857 q 675 860 654 860 q 836 700 836 860 q 804 571 836 640 q 714 419 779 518 l 575 207 q 517 108 536 147 q 499 51 499 69 q 536 18 499 18 q 697 118 590 18 q 958 443 824 238 l 1218 844 l 1321 850 m 629 744 q 586 833 629 803 q 339 692 433 785 q 250 514 250 603 q 338 422 250 422 q 535 525 440 422 q 629 744 629 628 z "},"V":{"ha":825,"x_min":121,"x_max":1332,"o":"m 1332 822 q 1318 789 1332 803 q 1285 775 1304 775 q 1251 785 1271 775 q 1228 796 1232 796 q 1139 735 1197 796 q 997 565 1110 704 q 789 318 883 426 q 529 56 650 158 q 418 -24 436 -24 q 408 -12 408 -15 q 447 54 408 -6 q 499 144 476 97 q 572 338 533 215 q 686 660 653 590 q 542 755 592 660 q 450 850 492 850 q 240 755 342 850 q 139 551 139 660 q 166 474 139 504 q 235 444 193 444 q 356 490 296 444 q 458 622 415 536 q 482 686 469 644 q 500 728 494 728 q 504 719 503 724 q 508 700 508 707 q 436 490 508 582 q 264 399 364 399 q 160 438 200 399 q 121 546 121 478 q 237 776 121 674 q 496 878 353 878 q 629 789 586 878 q 696 683 678 689 q 913 876 817 876 q 949 861 935 876 q 963 822 963 846 q 908 726 963 774 q 760 658 849 674 q 658 344 725 493 q 482 43 590 196 q 803 363 618 143 q 1083 701 943 535 q 1288 868 1224 868 q 1319 856 1307 868 q 1332 822 1332 843 m 944 822 q 940 842 944 833 q 915 858 932 858 q 835 812 876 858 q 763 678 794 765 q 896 738 842 689 q 944 822 944 781 z "},"W":{"ha":1138,"x_min":118,"x_max":1644,"o":"m 1644 822 q 1631 789 1644 803 q 1597 775 1617 775 q 1565 785 1585 775 q 1542 796 1546 796 q 1453 735 1513 796 q 1308 567 1413 693 q 1100 318 1168 396 q 913 121 1006 208 q 785 11 844 56 q 731 -24 739 -24 q 721 -12 721 -15 q 763 56 721 -3 q 813 141 790 94 q 873 289 836 188 q 940 465 910 390 q 1038 669 989 583 q 906 513 979 607 q 774 339 839 425 q 622 163 697 242 q 483 25 538 72 q 414 -22 428 -22 l 404 -12 q 443 54 404 -4 q 496 144 476 103 q 569 336 531 215 q 683 660 651 593 q 540 760 592 669 q 446 850 488 850 q 247 765 347 850 q 136 551 136 671 q 163 475 136 506 q 231 444 189 444 q 352 491 292 444 q 454 622 413 538 q 478 686 465 644 q 497 728 490 728 q 500 722 500 724 q 504 704 504 713 q 433 491 504 583 q 260 399 363 399 q 158 438 197 399 q 118 546 118 478 q 235 778 118 679 q 492 878 351 878 q 619 794 578 878 q 693 683 668 694 q 803 826 743 775 q 908 876 863 876 q 961 822 961 876 q 907 728 961 775 q 757 658 847 675 q 654 347 719 493 q 489 57 589 201 q 663 231 582 138 q 806 407 719 294 q 935 574 926 564 q 1023 675 978 626 q 1115 775 1068 724 q 1161 842 1118 779 q 1199 869 1181 869 q 1214 850 1214 869 q 1144 758 1182 815 q 1070 581 1103 696 q 997 375 1038 465 q 796 43 925 214 q 1101 351 908 128 q 1399 697 1250 526 q 1600 868 1547 868 q 1631 855 1618 868 q 1644 822 1644 842 m 944 822 q 940 842 944 833 q 915 858 932 858 q 839 817 876 858 q 763 678 796 769 q 896 738 842 689 q 944 822 944 781 z "},"X":{"ha":886,"x_min":89,"x_max":1258,"o":"m 1258 775 q 768 446 1258 596 q 668 241 701 336 q 635 83 635 146 q 686 14 635 14 q 783 64 725 14 q 892 172 838 118 l 899 165 q 824 75 899 147 q 683 -6 739 -6 q 592 135 592 -6 l 599 204 q 394 46 499 101 q 221 -6 297 -6 q 136 21 168 -6 q 104 88 104 47 q 675 438 104 283 q 752 590 728 526 q 776 718 776 654 q 747 808 776 775 q 664 842 718 842 q 633 842 649 842 q 611 836 618 838 q 658 728 658 800 q 557 503 658 601 q 365 413 464 413 q 269 511 269 413 q 349 692 269 599 q 572 842 436 794 q 494 860 536 860 q 289 783 388 860 q 138 578 190 707 q 110 492 121 539 q 94 446 99 446 q 89 458 89 453 q 190 704 89 564 q 488 876 315 876 q 596 847 546 876 q 633 856 618 853 q 665 858 647 858 q 781 811 739 858 q 822 678 822 764 l 819 633 q 1024 801 921 740 q 1179 856 1115 856 q 1238 833 1217 856 q 1258 775 1258 811 m 1240 775 q 1185 838 1240 838 q 1010 749 1114 838 q 778 467 890 647 q 1240 775 1240 606 m 635 739 q 589 831 635 793 q 368 686 454 783 q 289 515 289 597 q 307 464 289 483 q 356 444 325 444 q 541 551 447 444 q 635 739 635 657 m 664 417 q 156 88 156 285 q 233 14 156 14 q 429 113 319 14 q 664 417 547 219 z "},"Y":{"ha":1144,"x_min":107,"x_max":1519,"o":"m 1519 869 q 1499 848 1519 857 q 1454 831 1478 839 q 1200 506 1332 772 q 943 65 1035 169 q 443 -156 750 -156 q 198 -90 289 -156 q 107 85 107 -24 q 204 290 107 204 q 446 376 301 376 q 613 326 551 376 q 675 193 675 275 q 601 43 675 103 q 417 -17 528 -17 q 331 6 331 -17 l 338 10 q 357 8 349 10 q 417 1 400 1 q 583 53 515 1 q 650 183 650 106 q 601 290 650 250 q 461 329 551 329 q 238 249 336 329 q 140 72 140 169 q 221 -78 140 -18 q 435 -139 301 -139 q 793 1 647 -139 q 1074 438 922 125 q 774 231 875 231 q 708 315 708 231 q 761 472 708 382 q 863 628 811 547 q 915 756 915 708 q 881 827 915 801 q 785 853 847 853 q 524 758 649 853 q 400 572 400 664 q 424 510 400 533 q 493 488 449 488 q 640 542 565 488 q 754 679 715 596 q 781 752 768 710 q 797 794 793 794 q 800 788 800 790 q 804 769 804 776 q 724 547 804 642 q 514 446 638 446 q 416 477 453 446 q 379 560 379 508 q 509 769 379 668 q 786 869 639 869 q 910 825 865 869 q 954 704 954 781 q 901 544 954 639 q 804 393 883 513 q 750 283 750 311 q 782 253 750 253 q 1018 415 868 253 q 1278 717 1147 565 q 1504 879 1425 879 q 1519 869 1519 879 z "},"Z":{"ha":994,"x_min":99,"x_max":1258,"o":"m 1258 796 q 1172 676 1258 728 q 953 625 1085 625 l 906 625 q 763 464 856 572 q 617 296 646 329 q 765 97 732 258 q 811 28 779 28 q 869 51 832 28 q 952 124 906 75 q 1000 172 999 172 l 1006 165 q 931 76 1006 144 q 776 -3 843 -3 q 675 115 708 -3 q 592 268 638 247 q 189 -6 336 -6 q 123 16 147 -6 q 99 76 99 38 q 211 240 99 168 q 489 317 329 317 q 536 315 514 317 q 585 308 558 314 q 679 424 632 365 q 771 533 754 514 q 865 636 810 579 q 736 758 778 664 q 635 840 700 840 q 438 756 543 840 q 321 551 321 661 q 350 469 321 501 q 422 438 379 438 q 543 489 482 438 q 646 632 604 540 q 669 700 657 656 q 683 724 676 724 q 688 710 688 715 q 624 513 688 607 q 440 403 549 403 q 341 441 381 403 q 301 544 301 479 q 429 775 301 675 q 665 865 544 865 q 814 789 765 865 q 896 672 883 681 q 1063 810 986 763 q 1190 857 1139 857 q 1240 840 1222 857 q 1258 796 1258 824 m 1240 794 q 1226 826 1240 814 q 1192 839 1213 839 q 1076 794 1139 839 q 933 657 1013 749 q 1006 649 971 649 q 1172 694 1103 649 q 1240 794 1240 739 m 557 278 q 514 286 533 285 q 460 288 494 288 q 208 219 308 288 q 117 78 117 157 q 136 29 117 46 q 190 13 156 13 q 355 79 260 13 q 557 278 450 146 z "},"[":{"ha":417,"x_min":-56,"x_max":715,"o":"m 715 860 q 710 854 711 856 q 692 849 701 849 l 561 849 l -1 -57 l 135 -57 q 157 -68 157 -57 q 133 -81 157 -81 l -26 -81 q -56 -67 -56 -81 q -33 -24 -56 -56 l 493 838 q 521 866 507 860 q 561 872 535 872 l 692 872 q 715 860 715 872 z "},"\\":{"ha":360,"x_min":221,"x_max":306,"o":"m 306 -108 l 293 -112 l 221 668 l 276 668 l 306 -108 z "},"]":{"ha":417,"x_min":-197,"x_max":575,"o":"m 575 858 q 553 814 575 851 l 25 -46 q -3 -74 11 -68 q -43 -81 -17 -81 l -174 -81 q -197 -69 -197 -81 q -174 -57 -197 -57 l -43 -57 l 519 849 l 383 849 q 363 860 363 849 q 383 872 363 872 l 546 872 q 575 858 575 872 z "},"^":{"ha":694,"x_min":217,"x_max":522,"o":"m 522 376 q 513 364 522 364 q 444 471 497 364 l 303 396 q 232 365 244 365 q 217 376 217 365 q 236 397 217 385 q 297 436 271 419 q 393 501 344 465 q 463 550 458 550 q 479 536 475 550 l 519 392 l 522 376 z "},"_":{"ha":607,"x_min":0,"x_max":607,"o":"m 607 -286 l 0 -286 l 0 -239 l 607 -239 l 607 -286 z "},"`":{"ha":694,"x_min":324,"x_max":454,"o":"m 454 392 l 444 383 q 374 444 424 383 q 324 546 324 504 q 363 596 324 596 q 390 584 382 596 q 397 533 397 572 q 414 450 397 485 q 454 392 433 421 z "},"a":{"ha":479,"x_min":-10,"x_max":489,"o":"m 489 167 q 381 47 489 139 q 282 -6 318 -6 q 232 54 232 -6 l 238 100 q 85 -6 153 -6 q 33 27 53 -6 q 14 118 14 60 q 24 174 14 146 q -3 150 8 150 l -10 156 q 79 253 -10 178 q 267 342 183 342 q 313 326 296 342 q 331 286 331 310 q 325 258 331 274 l 375 332 l 456 336 l 322 126 q 296 85 308 106 q 276 33 276 51 q 296 14 276 14 q 372 66 318 14 q 482 172 426 118 l 489 167 m 311 286 q 300 313 311 301 q 271 324 289 324 q 132 217 204 324 q 65 53 65 118 q 94 15 65 15 q 228 115 146 15 q 311 286 311 215 z "},"b":{"ha":411,"x_min":-8,"x_max":450,"o":"m 450 739 l 149 228 q 50 35 50 63 q 86 13 50 13 q 199 64 146 13 q 274 215 258 122 q 285 307 279 261 q 322 342 292 342 q 357 292 357 342 q 340 209 357 253 q 281 110 322 165 l 301 107 q 382 144 339 107 q 425 182 403 163 q 431 174 431 176 q 390 129 431 161 q 292 89 340 89 l 264 92 q 170 19 219 44 q 76 -6 121 -6 q 6 71 6 -6 q 26 149 6 99 q 53 208 42 186 l 8 158 q -3 150 0 150 l -8 156 q 85 274 28 197 q 211 464 150 361 l 367 728 l 450 739 z "},"c":{"ha":342,"x_min":-10,"x_max":353,"o":"m 353 165 q 278 78 353 147 q 119 -6 189 -6 q 46 31 75 -6 q 17 125 17 68 q 24 174 17 143 q -3 151 7 151 l -10 156 q 78 254 -10 178 q 258 342 179 342 q 317 325 296 342 q 338 278 338 308 q 325 238 338 253 q 293 222 313 222 q 257 254 257 222 q 282 286 257 269 q 294 304 294 294 q 268 324 294 324 q 150 243 218 324 q 76 68 76 156 q 126 11 76 11 q 236 61 176 11 q 346 172 290 117 q 351 169 349 172 q 353 165 351 167 z "},"d":{"ha":479,"x_min":-10,"x_max":674,"o":"m 674 739 l 343 165 q 283 33 283 63 q 303 17 283 17 q 404 94 328 17 q 482 172 481 172 l 489 167 q 415 78 489 151 q 282 -6 332 -6 q 232 54 232 -6 l 238 100 q 85 -6 153 -6 q 33 27 53 -6 q 14 118 14 60 q 24 174 14 146 q -3 150 8 150 l -10 156 q 81 253 -10 176 q 267 342 186 342 q 313 326 296 342 q 331 286 331 310 q 325 258 331 274 l 596 736 l 674 739 m 311 286 q 300 313 311 301 q 271 324 289 324 q 131 218 201 324 q 65 53 65 121 q 94 15 65 15 q 228 115 146 15 q 311 286 311 215 z "},"e":{"ha":342,"x_min":-8,"x_max":353,"o":"m 353 165 q 274 75 353 146 q 124 -6 183 -6 q 46 31 75 -6 q 17 125 17 67 q 24 175 17 144 q -3 151 7 151 l -8 156 q 76 253 -8 178 q 261 342 178 342 q 328 286 328 342 q 263 190 328 238 q 83 117 197 143 l 78 68 q 126 13 78 13 q 268 92 186 13 q 346 172 307 132 q 351 169 349 172 q 353 165 351 167 m 288 303 q 267 326 288 326 q 181 278 231 326 q 90 136 122 221 q 236 211 176 154 q 288 303 288 260 z "},"f":{"ha":267,"x_min":-208,"x_max":575,"o":"m 575 700 q 203 306 575 574 l 61 17 l 67 17 q 194 94 114 17 q 272 172 233 133 l 279 165 q 194 71 279 147 q 54 -12 101 -12 l 44 -12 l -122 -346 l -208 -356 l -15 0 q -35 33 -35 15 q -24 62 -35 50 q 3 74 -12 74 l 22 68 l 146 299 q 58 214 97 256 q -4 150 0 150 l -8 156 q 38 217 -8 165 q 182 361 89 274 q 518 757 389 757 q 558 740 542 757 q 575 700 575 724 m 547 706 q 515 740 547 740 q 224 344 418 740 q 472 564 381 450 q 547 706 547 657 z "},"g":{"ha":449,"x_min":-139,"x_max":460,"o":"m 460 165 q 239 -31 460 106 q 65 -292 147 -203 q -76 -382 -17 -382 q -139 -322 -139 -382 q 186 -24 -139 -211 l 247 110 q 85 -6 149 -6 q 33 27 53 -6 q 14 118 14 60 q 24 174 14 146 q -3 150 8 150 l -10 156 q 81 253 -10 176 q 267 342 186 342 q 313 326 296 342 q 331 286 331 310 q 325 258 331 274 l 375 332 l 450 336 q 257 -3 335 151 q 375 90 325 42 q 453 172 414 131 l 460 165 m 311 286 q 300 313 311 301 q 271 324 289 324 q 135 223 206 324 q 65 53 65 122 q 94 15 65 15 q 228 115 146 15 q 311 286 311 214 m 172 -49 q -106 -324 -106 -210 q -71 -365 -106 -365 q 172 -49 15 -365 z "},"h":{"ha":458,"x_min":-51,"x_max":469,"o":"m 469 165 q 392 75 469 150 q 276 -6 308 -6 q 218 81 218 -6 q 260 185 218 125 q 349 308 303 244 q 335 324 349 324 q 24 7 272 324 l -51 -1 l 124 278 l 26 174 q 8 156 17 163 q -1 150 6 153 l -8 156 q 97 275 35 200 q 229 464 167 357 l 385 728 l 464 739 l 121 156 q 343 343 292 343 q 376 326 364 343 q 389 283 389 310 q 323 148 389 236 q 257 33 257 60 q 276 13 257 13 q 385 92 307 13 q 464 172 424 132 l 469 165 z "},"i":{"ha":267,"x_min":-8,"x_max":340,"o":"m 340 546 q 326 509 340 526 q 292 492 311 492 q 267 501 276 492 q 257 526 257 511 q 273 563 257 546 q 307 581 289 581 q 340 546 340 581 m 279 165 q 204 76 279 150 q 75 -6 121 -6 q 10 71 10 -6 q 51 176 10 108 q 108 265 72 211 q 43 197 83 242 q -4 151 3 151 l -8 156 q 146 331 -8 169 l 233 336 l 94 119 q 65 68 76 92 q 53 33 53 44 q 74 11 53 11 q 163 61 108 11 q 272 172 217 117 l 279 165 z "},"j":{"ha":244,"x_min":-340,"x_max":300,"o":"m 300 546 q 285 509 300 526 q 251 492 271 492 q 218 526 218 492 q 233 563 218 546 q 267 581 247 581 q 300 546 300 581 m 257 167 q 204 100 257 153 q 38 -31 136 32 q -136 -292 -54 -203 q -278 -382 -218 -382 q -340 -322 -340 -382 q -15 -24 -340 -211 l 131 290 q 36 186 96 254 q -3 150 4 150 l -8 156 q 19 194 -8 163 l 139 331 l 225 336 q 53 -3 138 153 q 171 93 117 42 q 249 172 210 132 l 257 167 m -31 -49 q -308 -324 -308 -210 q -274 -365 -308 -365 q -31 -49 -187 -365 z "},"k":{"ha":469,"x_min":-51,"x_max":481,"o":"m 463 739 l 22 7 l -51 -1 l 124 278 l 26 174 q 8 156 17 163 q -1 150 6 153 l -8 156 q 97 275 35 200 q 229 464 167 357 l 385 728 l 463 739 m 481 165 q 404 75 481 150 q 283 -6 322 -6 q 233 22 256 -6 q 211 86 211 49 q 222 143 211 110 q 229 168 229 164 l 228 183 q 196 170 210 175 q 169 165 182 165 q 144 186 144 165 q 185 211 144 211 q 222 201 203 211 q 328 300 235 204 q 410 343 369 343 q 457 300 457 343 q 421 260 457 260 q 388 293 401 260 q 372 310 381 310 q 335 261 365 310 q 247 192 300 206 q 296 118 296 160 q 285 67 296 97 q 274 28 274 36 q 290 13 274 13 q 394 92 315 13 q 474 172 433 132 l 481 165 z "},"l":{"ha":267,"x_min":-8,"x_max":482,"o":"m 482 739 l 108 147 q 65 76 78 100 q 49 33 49 46 q 71 11 49 11 q 160 61 104 11 q 272 172 215 117 l 279 165 q 168 46 279 140 q 79 -6 107 -6 q 10 71 10 -6 q 50 176 10 110 q 107 265 65 203 q 31 181 78 236 q -3 150 4 150 l -8 156 q 38 215 -8 165 q 164 358 157 347 l 403 728 l 482 739 z "},"m":{"ha":740,"x_min":-8,"x_max":751,"o":"m 751 165 q 669 72 751 150 q 560 -6 588 -6 q 499 81 499 -6 q 541 188 499 129 q 629 308 583 246 q 615 324 629 324 q 314 7 558 324 l 228 -1 l 386 235 q 424 308 424 288 q 407 324 424 324 q 342 288 382 324 q 243 179 310 258 q 101 7 203 132 l 15 -1 l 175 235 q 204 279 194 263 q 214 307 214 296 q 197 324 214 324 q 110 267 167 324 q -3 150 54 210 l -8 156 q 19 194 -8 163 l 58 238 q 201 343 157 343 q 249 286 249 343 q 200 156 249 232 q 411 343 351 343 q 447 328 433 343 q 460 292 460 314 q 410 157 460 231 q 624 343 572 343 q 657 326 644 343 q 669 283 669 310 q 603 147 669 235 q 538 33 538 60 q 557 13 538 13 q 665 92 586 13 q 744 172 704 132 l 751 165 z "},"n":{"ha":538,"x_min":-8,"x_max":550,"o":"m 550 165 q 436 46 550 143 q 357 -6 376 -6 q 314 19 332 -6 q 296 81 296 43 q 339 185 296 125 q 428 308 382 246 q 414 322 428 322 q 101 7 351 322 l 17 -1 l 175 235 q 203 277 193 260 q 214 307 214 294 q 197 324 214 324 q 111 267 168 324 q -3 150 54 210 l -8 156 q 19 194 -8 163 l 58 238 q 201 343 157 343 q 249 286 249 343 q 200 156 249 232 q 421 342 367 342 q 468 283 468 342 q 402 147 468 236 q 336 33 336 58 q 356 13 336 13 q 464 92 385 13 q 543 172 503 132 l 550 165 z "},"o":{"ha":403,"x_min":-8,"x_max":422,"o":"m 422 174 q 382 126 422 157 q 285 89 333 89 q 257 92 267 89 q 96 -6 168 -6 q 14 119 14 -6 q 17 144 14 131 q 24 175 19 158 q -3 151 7 151 l -8 156 q 76 253 -8 176 q 256 343 176 343 q 316 320 293 343 q 339 257 339 297 q 272 110 339 193 l 292 107 q 358 129 328 107 q 418 182 388 156 q 422 174 422 176 m 306 263 q 260 324 306 324 q 136 225 204 324 q 68 57 68 126 q 106 14 68 14 q 228 94 156 14 q 306 263 306 182 z "},"p":{"ha":458,"x_min":-231,"x_max":469,"o":"m 469 165 q 388 72 469 149 q 281 -6 306 -6 q 235 18 251 -6 q 218 81 218 42 q 283 214 218 135 q 349 308 349 293 q 335 324 349 324 q 171 185 293 324 q 8 -40 81 83 l -151 -311 l -231 -319 l 124 278 l 26 174 q 8 156 17 163 q -1 150 6 153 l -8 156 q 100 276 35 201 q 238 461 174 361 l 307 571 l 381 578 l 121 156 q 343 343 292 343 q 376 326 364 343 q 389 283 389 310 q 323 149 389 236 q 257 33 257 61 q 276 13 257 13 q 356 65 301 13 q 464 172 410 117 l 469 165 z "},"q":{"ha":440,"x_min":-14,"x_max":454,"o":"m 454 168 q 285 -37 389 89 q 61 -339 167 -181 l -14 -343 l 238 101 q 85 -4 153 -4 q 14 118 14 -4 q 17 144 14 131 q 24 174 19 158 q -3 151 7 151 l -10 156 q 83 258 -10 183 q 267 343 188 343 q 329 286 329 343 l 325 254 l 375 333 l 440 336 l 154 -171 q 226 -83 190 -126 q 365 82 263 -39 q 449 172 443 172 l 454 168 m 311 286 q 300 313 311 301 q 271 324 289 324 q 132 218 204 324 q 65 53 65 119 q 94 15 65 15 q 228 115 146 15 q 311 286 311 214 z "},"r":{"ha":401,"x_min":-8,"x_max":422,"o":"m 422 324 q 353 252 422 301 q 285 147 285 203 q 315 115 285 115 q 375 144 344 115 q 407 174 406 174 l 414 167 q 380 126 414 154 q 317 99 346 99 q 267 146 267 99 q 282 204 267 165 q 200 125 244 174 q 101 8 156 76 l 17 0 l 175 235 q 204 279 194 263 q 214 307 214 296 q 197 324 214 324 q 111 267 168 324 q -3 150 54 210 l -8 156 q 19 194 -8 163 l 58 238 q 201 343 157 343 q 249 290 249 343 q 240 233 249 261 q 190 140 231 206 q 253 200 250 197 q 296 238 264 211 q 338 319 318 294 q 394 343 358 343 q 422 324 422 343 z "},"s":{"ha":265,"x_min":-37,"x_max":276,"o":"m 276 165 q 201 78 276 149 q 47 -6 113 -6 q -14 11 10 -6 q -37 57 -37 28 q -26 85 -37 74 q 0 96 -15 96 q 25 72 25 96 q 18 48 25 65 q 11 26 11 31 q 29 14 11 14 q 106 79 67 14 q 151 267 151 157 l 150 313 q 42 193 106 268 q -4 150 4 150 l -10 156 q 149 335 -10 164 q 199 386 168 386 q 222 363 222 386 q 206 336 222 344 q 167 296 167 318 q 178 218 167 268 q 189 146 189 168 q 174 74 189 108 q 229 132 204 104 q 269 172 265 172 q 275 169 272 172 q 276 165 275 167 z "},"t":{"ha":267,"x_min":-8,"x_max":442,"o":"m 442 454 l 432 438 l 292 438 l 111 147 q 53 33 53 60 q 74 11 53 11 q 163 61 107 11 q 272 172 217 117 l 279 165 q 171 47 279 140 q 79 -6 110 -6 q 10 71 10 -6 q 51 176 10 108 q 108 265 72 211 q 43 197 83 242 q -4 151 3 151 l -8 156 q 82 261 -8 167 q 164 358 138 319 l 217 438 l 158 438 l 168 454 l 228 454 l 301 571 l 381 578 l 303 454 l 442 454 z "},"u":{"ha":471,"x_min":-10,"x_max":482,"o":"m 482 167 q 399 72 482 149 q 292 -6 317 -6 q 244 16 260 -6 q 229 76 229 38 q 235 111 229 89 q 75 -6 132 -6 q 27 15 46 -6 q 8 71 8 36 q 50 176 8 108 q 107 265 78 222 q 29 182 71 229 q -4 151 3 151 l -10 156 q 144 331 -10 168 l 232 335 l 111 147 q 53 33 53 56 q 72 13 53 13 q 367 331 175 13 l 449 335 l 303 106 q 276 60 285 78 q 268 33 268 42 q 288 13 268 13 q 366 65 313 13 q 475 172 419 117 l 482 167 z "},"v":{"ha":492,"x_min":-8,"x_max":511,"o":"m 511 174 q 471 126 511 158 q 372 89 422 89 l 344 92 q 163 -4 243 -4 q 115 18 132 -4 q 99 78 99 40 q 156 206 99 128 q 213 310 213 283 q 197 324 213 324 q 110 267 167 324 q -3 150 54 210 l -8 156 q 19 194 -8 163 l 58 238 q 119 300 103 285 q 204 343 167 343 q 257 279 257 343 q 199 147 257 232 q 140 42 140 63 q 171 13 140 13 q 285 64 222 13 q 382 206 356 122 q 393 285 388 226 q 432 343 399 343 q 465 303 465 343 q 442 226 465 274 q 363 110 414 172 l 382 107 q 447 129 417 107 q 506 182 476 156 q 511 174 511 178 z "},"w":{"ha":625,"x_min":-8,"x_max":644,"o":"m 644 174 q 622 143 644 165 q 506 89 567 89 l 478 92 q 296 -4 374 -4 q 249 18 267 -4 q 231 78 231 40 l 235 111 q 75 -6 132 -6 q 27 15 46 -6 q 8 71 8 36 q 49 175 8 110 q 106 261 64 199 q 43 196 72 231 q -3 150 4 150 l -8 156 q 69 250 -8 168 q 149 331 94 276 l 232 335 l 111 147 q 69 77 85 107 q 53 33 53 47 q 72 13 53 13 q 367 331 175 13 l 449 335 l 313 122 q 274 42 274 63 q 304 13 274 13 q 417 64 354 13 q 513 206 486 122 q 528 301 514 208 q 565 343 535 343 q 597 303 597 343 q 572 224 597 274 q 493 110 547 174 l 515 107 q 597 144 556 107 q 636 182 617 163 q 644 174 644 182 z "},"x":{"ha":406,"x_min":-58,"x_max":460,"o":"m 460 299 q 450 276 460 285 q 426 268 440 268 q 396 291 406 268 q 375 314 386 314 q 276 221 342 314 q 204 36 204 118 q 225 13 204 13 q 304 63 250 13 q 411 172 357 117 l 419 165 q 338 72 419 149 q 228 -6 257 -6 q 156 106 156 -6 q 68 22 107 50 q -3 -6 29 -6 q -43 7 -28 -6 q -58 38 -58 19 q -22 76 -58 76 q 8 49 3 76 q 25 21 14 21 q 138 111 69 21 q 213 300 213 211 q 194 324 213 324 q 113 269 167 324 q -3 150 54 210 l -8 156 q 19 194 -8 163 l 58 238 q 200 343 157 343 q 260 242 260 343 l 258 221 q 338 314 303 285 q 407 343 372 343 q 460 299 460 343 z "},"y":{"ha":518,"x_min":-67,"x_max":531,"o":"m 531 165 q 311 -31 531 104 q 135 -294 221 -200 q -4 -382 54 -382 q -67 -322 -67 -382 q 257 -24 -67 -211 l 353 161 q 150 4 217 4 q 114 24 129 4 q 99 75 99 43 q 156 207 99 129 q 213 307 213 285 q 194 324 213 324 q 111 267 168 324 q -3 150 54 210 l -8 156 q 19 194 -8 163 l 58 238 q 119 300 103 285 q 204 343 167 343 q 257 279 257 343 q 199 151 257 238 q 140 44 140 65 q 146 28 140 35 q 160 21 151 21 q 267 94 192 21 q 447 332 361 186 l 521 336 q 328 -3 408 153 q 446 90 396 42 q 525 172 485 131 l 531 165 m 244 -49 q 35 -203 108 -126 q -33 -324 -33 -272 q 1 -365 -33 -365 q 244 -49 83 -365 z "},"z":{"ha":401,"x_min":-44,"x_max":413,"o":"m 413 165 q 335 76 413 151 q 217 -6 250 -6 q 165 61 165 -6 q 172 97 165 74 q 175 114 175 107 q 167 118 169 118 q 115 106 149 118 q 50 69 81 93 q 4 21 31 54 q -29 -4 -15 -4 q -44 11 -44 -4 q 13 69 -44 38 q 250 261 133 174 q 208 251 229 256 q 171 247 188 247 q 104 271 129 247 l 26 176 l 7 156 q 0 149 6 153 q -3 147 -1 147 l -8 151 l -7 161 l 6 178 q 50 231 26 203 q 94 289 74 260 l 89 310 q 129 347 89 347 q 161 321 161 347 q 158 306 161 314 q 151 286 154 296 q 190 265 151 265 q 278 288 242 265 q 344 338 311 313 q 363 324 363 338 q 340 294 363 307 q 306 275 325 286 q 94 111 189 192 q 150 136 136 131 q 196 147 178 147 q 229 135 215 147 q 243 103 243 122 q 231 58 243 86 q 218 25 218 31 q 226 13 218 13 q 326 92 250 13 q 403 172 364 132 l 413 165 z "},"{":{"ha":556,"x_min":188,"x_max":779,"o":"m 779 896 l 768 868 q 631 835 674 868 q 556 711 589 803 l 525 625 q 432 451 479 499 q 254 375 375 396 q 378 271 378 351 q 343 126 378 222 l 311 39 q 289 -50 289 -21 q 317 -102 289 -86 q 410 -118 344 -118 l 400 -144 q 262 -123 300 -144 q 224 -49 224 -101 q 249 61 224 -6 l 296 192 q 317 278 317 250 q 287 335 317 317 q 188 360 257 353 l 200 392 q 351 435 304 401 q 431 560 397 469 l 478 690 q 583 851 519 807 q 779 896 646 896 z "},"|":{"ha":556,"x_min":139,"x_max":633,"o":"m 633 925 l 193 -286 l 139 -286 l 579 925 l 633 925 z "},"}":{"ha":556,"x_min":35,"x_max":626,"o":"m 626 390 l 614 358 q 463 315 510 349 q 383 190 417 281 l 336 60 q 231 -101 294 -57 q 35 -146 168 -146 l 46 -118 q 183 -85 140 -118 q 258 39 225 -53 l 289 125 q 382 299 335 251 q 560 375 439 354 q 436 479 436 399 q 471 624 436 528 l 503 711 q 525 800 525 771 q 497 852 525 836 q 404 868 469 868 l 414 894 q 552 873 514 894 q 590 799 590 851 q 565 689 590 756 l 518 558 q 497 472 497 500 q 527 415 497 433 q 626 390 557 397 z "},"~":{"ha":694,"x_min":235,"x_max":568,"o":"m 568 507 q 542 444 568 481 q 469 400 508 400 q 393 423 444 400 q 322 446 342 446 q 274 417 296 446 q 246 388 251 388 q 235 396 235 388 q 263 458 235 421 q 335 503 296 503 q 410 480 358 503 q 481 457 461 457 q 529 486 507 457 q 557 515 551 515 q 568 507 568 515 z "},"":{"ha":1065,"x_min":178,"x_max":1747,"o":"m 1747 875 q 1488 499 1604 706 q 1289 89 1389 326 q 1390 114 1347 89 q 1458 169 1424 142 l 1463 165 q 1415 110 1463 142 q 1281 71 1358 71 l 1250 7 l 1153 -6 l 1186 78 q 1065 105 1122 83 q 950 164 1008 126 q 517 -6 751 -6 q 268 63 358 -6 q 178 249 178 132 q 276 445 178 364 q 503 526 374 526 q 676 476 611 526 q 740 349 740 425 q 670 195 740 254 q 486 136 600 136 q 425 149 425 136 q 436 154 432 154 l 481 151 q 653 203 589 151 q 717 332 717 254 q 666 437 717 399 q 526 475 615 475 q 303 398 396 475 q 210 219 210 321 q 292 69 210 126 q 514 11 374 11 q 935 176 749 11 q 779 450 779 301 q 833 588 779 536 q 968 639 888 639 q 1096 603 1036 639 q 1219 468 1168 560 q 1358 613 1303 558 q 1528 754 1449 699 q 1747 875 1628 824 m 1672 819 q 1228 451 1479 739 q 1251 294 1251 381 q 1249 250 1251 275 q 1242 193 1247 225 q 1442 536 1328 374 q 1672 819 1538 671 m 1206 456 q 1000 603 1132 603 q 876 547 928 603 q 825 410 825 492 q 950 189 825 285 q 1115 356 1024 254 q 1206 456 1176 424 m 1235 292 q 1215 438 1235 371 q 965 179 1090 308 q 1194 94 1060 107 q 1235 292 1235 196 m 1507 981 q 1493 944 1507 960 q 1457 929 1479 929 q 1418 969 1418 929 q 1433 1006 1418 990 q 1469 1021 1449 1021 q 1507 981 1507 1021 m 1310 981 q 1296 944 1310 960 q 1260 929 1282 929 q 1221 969 1221 929 q 1235 1006 1221 992 q 1271 1021 1250 1021 q 1310 981 1310 1021 z "},"":{"ha":1065,"x_min":178,"x_max":1747,"o":"m 1747 875 q 1488 499 1604 706 q 1289 89 1389 326 q 1390 114 1347 89 q 1458 169 1424 142 l 1463 165 q 1415 110 1463 142 q 1281 71 1358 71 l 1250 7 l 1153 -6 l 1186 78 q 1065 105 1122 83 q 950 164 1008 126 q 517 -6 751 -6 q 268 63 358 -6 q 178 249 178 132 q 276 445 178 364 q 503 526 374 526 q 676 476 611 526 q 740 349 740 425 q 670 195 740 254 q 486 136 600 136 q 425 149 425 136 q 436 154 432 154 l 481 151 q 653 203 589 151 q 717 332 717 254 q 666 437 717 399 q 526 475 615 475 q 303 398 396 475 q 210 219 210 321 q 292 69 210 126 q 514 11 374 11 q 935 176 749 11 q 779 450 779 301 q 833 588 779 536 q 968 639 888 639 q 1096 603 1036 639 q 1219 468 1168 560 q 1358 613 1303 558 q 1528 754 1449 699 q 1747 875 1628 824 m 1672 819 q 1228 451 1479 739 q 1251 294 1251 381 q 1249 250 1251 275 q 1242 193 1247 225 q 1442 536 1328 374 q 1672 819 1538 671 m 1206 456 q 1000 603 1132 603 q 876 547 928 603 q 825 410 825 492 q 950 189 825 285 q 1115 356 1024 254 q 1206 456 1176 424 m 1235 292 q 1215 438 1235 371 q 965 179 1090 308 q 1194 94 1060 107 q 1235 292 1235 196 m 1468 1000 q 1425 925 1468 958 q 1332 892 1382 892 q 1274 908 1294 892 q 1253 953 1253 925 q 1296 1025 1253 993 q 1392 1057 1339 1057 q 1447 1042 1426 1057 q 1468 1000 1468 1026 m 1435 990 q 1421 1019 1435 1008 q 1382 1031 1407 1031 q 1318 1008 1347 1031 q 1289 958 1289 986 q 1340 917 1289 917 q 1405 940 1375 917 q 1435 990 1435 963 z "},"":{"ha":706,"x_min":36,"x_max":1138,"o":"m 1138 785 q 925 540 1138 667 q 475 408 703 408 q 431 278 447 344 q 415 160 415 211 q 445 49 415 88 q 535 10 475 10 l 531 71 q 607 303 531 208 q 765 389 676 389 q 841 359 813 389 q 869 279 869 329 q 783 106 869 193 q 557 -10 689 8 q 564 -62 557 -40 q 579 -107 571 -83 l 572 -112 q 538 -11 551 -112 l 514 -11 q 372 57 424 -11 q 326 204 326 117 q 339 305 326 256 q 376 411 351 354 q 211 497 269 433 q 153 654 153 561 q 235 828 153 757 q 444 900 318 900 q 743 765 613 900 q 913 840 835 815 q 1042 865 992 865 q 1138 785 1138 865 m 1118 782 q 1043 849 1118 849 q 921 823 990 849 q 764 740 851 797 q 829 625 829 640 q 826 618 829 622 q 824 615 825 617 q 792 663 818 615 q 749 729 772 696 q 600 602 660 667 q 504 468 540 538 l 528 468 q 943 581 754 468 q 1118 782 1118 685 m 728 757 q 450 883 603 883 q 256 824 332 883 q 181 681 181 765 q 244 544 181 601 q 415 475 307 486 q 728 757 538 649 m 850 278 q 831 335 850 313 q 781 358 813 358 q 632 255 708 358 q 556 33 556 151 l 556 11 q 767 111 676 22 q 850 278 850 193 m 319 -128 q 285 -198 319 -171 q 194 -225 251 -225 q 86 -205 136 -225 q 36 -174 36 -185 q 46 -168 43 -168 q 119 -187 82 -179 q 190 -196 156 -196 q 247 -178 224 -196 q 269 -136 269 -160 q 204 -89 269 -89 l 168 -94 l 161 -71 q 231 -53 192 -53 q 319 -128 319 -53 z "},"":{"ha":607,"x_min":138,"x_max":871,"o":"m 871 814 q 775 681 871 756 q 499 547 665 594 q 523 513 507 522 q 569 504 539 504 l 604 507 q 636 488 636 507 q 607 469 636 469 q 563 476 589 469 q 532 482 536 482 q 356 390 449 482 q 250 160 250 286 q 282 62 250 101 q 364 15 314 22 l 363 51 q 435 294 363 197 q 592 385 501 385 q 663 358 636 385 q 690 286 690 331 q 607 96 690 181 q 389 -6 524 11 q 399 -68 393 -44 q 408 -110 404 -92 q 407 -115 408 -112 q 404 -118 406 -117 q 368 -6 389 -118 q 217 41 269 -6 q 165 171 165 88 q 252 368 165 282 q 501 496 339 454 q 450 539 468 513 q 372 532 404 532 q 201 580 264 532 q 138 704 138 628 q 205 841 138 786 q 378 896 272 896 q 594 819 494 896 q 703 858 651 846 q 790 871 754 871 q 871 814 871 871 m 851 814 q 797 856 851 856 q 725 840 765 856 q 631 786 685 824 q 681 717 681 733 l 678 711 q 650 739 672 711 q 617 775 638 754 q 526 688 558 740 q 494 581 494 636 q 757 688 650 608 q 851 814 851 757 m 576 808 q 378 879 486 879 q 228 836 286 879 q 169 729 169 793 q 233 619 169 665 q 385 572 296 572 l 429 576 q 421 615 421 597 q 460 714 421 664 q 576 808 499 764 m 674 281 q 606 361 674 361 q 465 267 536 361 q 388 42 388 164 l 388 14 q 590 106 501 14 q 674 281 674 192 m 861 1050 q 769 933 861 994 q 661 881 690 881 q 651 889 651 881 q 699 926 651 890 q 750 981 728 947 q 782 1049 754 986 q 825 1086 799 1086 q 861 1050 861 1086 z "},"":{"ha":1069,"x_min":56,"x_max":1813,"o":"m 1813 813 q 1798 777 1813 792 q 1765 763 1783 763 q 1726 789 1739 763 q 1700 815 1714 815 q 1579 725 1660 815 q 1375 442 1490 626 q 1232 196 1303 326 q 1150 46 1190 121 q 1113 -6 1121 -6 q 1104 7 1104 -6 q 1123 65 1115 26 q 1131 153 1131 103 q 1119 283 1131 196 q 1108 415 1108 371 q 1158 729 1108 533 q 956 378 1042 506 q 706 104 833 197 q 381 -6 554 -6 q 144 62 232 -6 q 56 240 56 129 q 151 447 56 367 q 401 526 246 526 q 580 477 515 526 q 644 343 644 428 q 568 196 644 258 q 375 133 492 133 q 293 144 329 133 q 257 163 257 154 l 267 165 q 321 155 293 160 q 371 150 349 150 q 551 203 481 150 q 622 329 622 256 q 567 437 622 397 q 417 476 513 476 q 181 399 276 476 q 86 214 86 322 q 167 68 86 125 q 382 11 249 11 q 814 231 611 11 q 1088 639 938 365 q 1239 860 1208 860 q 1244 850 1244 854 q 1217 758 1229 814 q 1204 632 1204 701 l 1206 471 q 1201 324 1206 375 q 1167 110 1193 229 q 1757 860 1561 860 q 1797 846 1782 860 q 1813 813 1813 832 m 1353 1031 q 1326 968 1353 1004 q 1254 924 1293 924 q 1178 947 1229 924 q 1107 969 1126 969 q 1058 940 1081 969 q 1031 911 1036 911 q 1019 919 1019 911 q 1047 982 1019 944 q 1119 1026 1081 1026 q 1194 1003 1143 1026 q 1265 981 1246 981 q 1314 1010 1292 981 q 1342 1039 1336 1039 q 1353 1031 1353 1039 z "},"":{"ha":679,"x_min":132,"x_max":1004,"o":"m 1004 735 q 992 689 1004 689 q 985 700 985 694 l 988 731 q 951 825 988 792 q 847 858 915 858 q 635 778 744 858 q 663 760 649 768 q 693 738 676 751 q 785 761 749 761 q 900 711 858 761 q 942 569 942 661 q 766 180 942 367 q 419 -7 590 -7 q 275 58 329 -7 q 221 232 221 122 q 313 513 221 368 q 579 782 406 658 q 535 790 561 786 q 493 794 508 794 q 291 729 379 794 q 164 550 203 664 q 148 483 153 519 q 138 446 143 446 q 132 461 132 456 q 233 701 132 597 q 489 811 340 811 q 539 807 515 811 q 596 794 563 803 q 842 878 742 878 q 960 840 917 878 q 1004 735 1004 801 m 753 550 q 690 717 753 656 q 524 557 585 654 q 463 372 463 460 q 490 292 463 324 q 557 261 517 261 q 691 349 629 261 q 753 550 753 438 m 925 578 q 888 698 925 651 q 793 744 851 744 q 710 724 751 744 q 774 627 751 676 q 797 513 797 578 q 718 310 797 394 q 567 233 646 233 q 478 272 513 233 q 444 374 444 310 q 505 560 444 463 q 676 728 565 657 q 615 767 647 753 q 379 482 469 653 q 296 190 296 324 q 335 60 296 107 q 444 14 375 14 q 754 196 590 14 q 925 578 925 386 m 889 972 q 875 936 889 951 q 839 921 861 921 q 800 961 800 921 q 815 997 800 982 q 851 1013 831 1013 q 889 972 889 1013 m 692 972 q 678 936 692 951 q 642 921 664 921 q 603 961 603 921 q 617 998 603 983 q 653 1013 632 1013 q 692 972 692 1013 z "},"":{"ha":800,"x_min":74,"x_max":1321,"o":"m 1321 850 l 910 211 q 864 128 885 172 q 838 50 838 71 q 861 22 838 22 q 981 97 907 22 q 1053 172 1017 135 l 1060 165 q 982 75 1060 146 q 854 -3 897 -3 q 797 86 797 -3 q 842 247 797 154 q 650 56 742 125 q 524 -6 569 -6 q 456 88 456 -6 q 488 214 456 146 q 575 361 513 268 l 729 594 q 777 683 761 643 q 793 747 793 722 q 665 844 793 844 l 613 840 q 664 713 664 799 q 574 492 664 593 q 354 385 478 385 q 263 418 296 385 q 229 507 229 451 q 318 693 229 600 q 567 843 414 794 q 482 860 522 860 q 285 790 383 860 q 131 599 188 719 q 89 453 100 532 q 81 428 86 428 q 74 446 74 438 q 201 739 74 603 q 486 875 329 875 q 593 851 542 875 q 635 858 617 857 q 675 860 654 860 q 836 700 836 860 q 804 571 836 640 q 714 419 779 518 l 575 207 q 517 108 536 147 q 499 51 499 69 q 536 18 499 18 q 697 118 590 18 q 958 443 824 238 l 1218 844 l 1321 850 m 629 744 q 586 833 629 803 q 339 692 433 785 q 250 514 250 603 q 338 422 250 422 q 535 525 440 422 q 629 744 629 628 m 958 979 q 944 943 958 958 q 908 928 931 928 q 869 968 869 928 q 885 1004 869 989 q 921 1019 900 1019 q 958 979 958 1019 m 761 979 q 747 943 761 958 q 711 928 733 928 q 672 968 672 928 q 687 1005 672 990 q 722 1019 701 1019 q 761 979 761 1019 z "},"":{"ha":479,"x_min":-10,"x_max":489,"o":"m 489 167 q 381 47 489 139 q 282 -6 318 -6 q 232 54 232 -6 l 238 100 q 85 -6 153 -6 q 33 27 53 -6 q 14 118 14 60 q 24 174 14 146 q -3 150 8 150 l -10 156 q 79 253 -10 178 q 267 342 183 342 q 313 326 296 342 q 331 286 331 310 q 325 258 331 274 l 375 332 l 456 336 l 322 126 q 296 85 308 106 q 276 33 276 51 q 296 14 276 14 q 372 66 318 14 q 482 172 426 118 l 489 167 m 311 286 q 300 313 311 301 q 271 324 289 324 q 132 217 204 324 q 65 53 65 118 q 94 15 65 15 q 228 115 146 15 q 311 286 311 215 m 439 578 q 347 461 439 522 q 239 408 268 408 q 229 417 229 408 q 276 454 229 418 q 328 508 306 475 q 360 576 332 514 q 403 614 376 614 q 439 578 439 614 z "},"":{"ha":479,"x_min":-10,"x_max":489,"o":"m 489 167 q 381 47 489 139 q 282 -6 318 -6 q 232 54 232 -6 l 238 100 q 85 -6 153 -6 q 33 27 53 -6 q 14 118 14 60 q 24 174 14 146 q -3 150 8 150 l -10 156 q 79 253 -10 178 q 267 342 183 342 q 313 326 296 342 q 331 286 331 310 q 325 258 331 274 l 375 332 l 456 336 l 322 126 q 296 85 308 106 q 276 33 276 51 q 296 14 276 14 q 372 66 318 14 q 482 172 426 118 l 489 167 m 311 286 q 300 313 311 301 q 271 324 289 324 q 132 217 204 324 q 65 53 65 118 q 94 15 65 15 q 228 115 146 15 q 311 286 311 215 m 367 408 l 357 400 q 286 460 336 400 q 236 563 236 521 q 275 613 236 613 q 302 601 294 613 q 310 550 310 589 q 326 467 310 501 q 367 408 346 438 z "},"":{"ha":479,"x_min":-10,"x_max":489,"o":"m 489 167 q 381 47 489 139 q 282 -6 318 -6 q 232 54 232 -6 l 238 100 q 85 -6 153 -6 q 33 27 53 -6 q 14 118 14 60 q 24 174 14 146 q -3 150 8 150 l -10 156 q 79 253 -10 178 q 267 342 183 342 q 313 326 296 342 q 331 286 331 310 q 325 258 331 274 l 375 332 l 456 336 l 322 126 q 296 85 308 106 q 276 33 276 51 q 296 14 276 14 q 372 66 318 14 q 482 172 426 118 l 489 167 m 311 286 q 300 313 311 301 q 271 324 289 324 q 132 217 204 324 q 65 53 65 118 q 94 15 65 15 q 228 115 146 15 q 311 286 311 215 m 460 424 q 450 411 460 411 q 424 435 440 411 q 382 518 408 460 l 240 443 q 169 413 182 413 q 154 424 154 413 q 174 444 154 432 q 235 483 208 467 q 331 549 282 513 q 400 597 396 597 q 417 583 413 597 l 457 439 l 460 424 z "},"":{"ha":479,"x_min":-10,"x_max":489,"o":"m 489 167 q 381 47 489 139 q 282 -6 318 -6 q 232 54 232 -6 l 238 100 q 85 -6 153 -6 q 33 27 53 -6 q 14 118 14 60 q 24 174 14 146 q -3 150 8 150 l -10 156 q 79 253 -10 178 q 267 342 183 342 q 313 326 296 342 q 331 286 331 310 q 325 258 331 274 l 375 332 l 456 336 l 322 126 q 296 85 308 106 q 276 33 276 51 q 296 14 276 14 q 372 66 318 14 q 482 172 426 118 l 489 167 m 311 286 q 300 313 311 301 q 271 324 289 324 q 132 217 204 324 q 65 53 65 118 q 94 15 65 15 q 228 115 146 15 q 311 286 311 215 m 479 524 q 465 488 479 503 q 429 472 451 472 q 390 513 390 472 q 406 549 390 533 q 442 564 421 564 q 479 524 479 564 m 282 524 q 268 488 282 503 q 232 472 254 472 q 193 513 193 472 q 208 549 193 535 q 243 564 222 564 q 282 524 282 564 z "},"":{"ha":479,"x_min":-10,"x_max":489,"o":"m 489 167 q 381 47 489 139 q 282 -6 318 -6 q 232 54 232 -6 l 238 100 q 85 -6 153 -6 q 33 27 53 -6 q 14 118 14 60 q 24 174 14 146 q -3 150 8 150 l -10 156 q 79 253 -10 178 q 267 342 183 342 q 313 326 296 342 q 331 286 331 310 q 325 258 331 274 l 375 332 l 456 336 l 322 126 q 296 85 308 106 q 276 33 276 51 q 296 14 276 14 q 372 66 318 14 q 482 172 426 118 l 489 167 m 311 286 q 300 313 311 301 q 271 324 289 324 q 132 217 204 324 q 65 53 65 118 q 94 15 65 15 q 228 115 146 15 q 311 286 311 215 m 483 565 q 457 503 483 539 q 385 458 424 458 q 308 481 360 458 q 238 504 257 504 q 189 475 211 504 q 161 446 167 446 q 150 454 150 446 q 178 517 150 479 q 250 561 211 561 q 325 538 274 561 q 396 515 376 515 q 444 544 422 515 q 472 574 467 574 q 483 565 483 574 z "},"":{"ha":479,"x_min":-10,"x_max":489,"o":"m 489 167 q 381 47 489 139 q 282 -6 318 -6 q 232 54 232 -6 l 238 100 q 85 -6 153 -6 q 33 27 53 -6 q 14 118 14 60 q 24 174 14 146 q -3 150 8 150 l -10 156 q 79 253 -10 178 q 267 342 183 342 q 313 326 296 342 q 331 286 331 310 q 325 258 331 274 l 375 332 l 456 336 l 322 126 q 296 85 308 106 q 276 33 276 51 q 296 14 276 14 q 372 66 318 14 q 482 172 426 118 l 489 167 m 311 286 q 300 313 311 301 q 271 324 289 324 q 132 217 204 324 q 65 53 65 118 q 94 15 65 15 q 228 115 146 15 q 311 286 311 215 m 440 542 q 397 467 440 500 q 304 433 354 433 q 246 450 267 433 q 225 494 225 467 q 268 567 225 535 q 364 599 311 599 q 419 583 399 599 q 440 542 440 568 m 407 532 q 393 561 407 550 q 354 572 379 572 q 290 550 319 572 q 261 500 261 528 q 313 458 261 458 q 377 481 347 458 q 407 532 407 504 z "},"":{"ha":342,"x_min":-72,"x_max":353,"o":"m 353 165 q 278 78 353 147 q 119 -6 189 -6 q 46 31 75 -6 q 17 125 17 68 q 24 174 17 143 q -3 151 7 151 l -10 156 q 78 254 -10 178 q 258 342 179 342 q 317 325 296 342 q 338 278 338 308 q 325 238 338 253 q 293 222 313 222 q 257 254 257 222 q 282 286 257 269 q 294 304 294 294 q 268 324 294 324 q 150 243 218 324 q 76 68 76 156 q 126 11 76 11 q 236 61 176 11 q 346 172 290 117 q 351 169 349 172 q 353 165 351 167 m 211 -128 q 177 -198 211 -171 q 86 -225 143 -225 q -22 -205 28 -225 q -72 -174 -72 -185 q -62 -168 -65 -168 q 10 -187 -26 -179 q 82 -196 47 -196 q 138 -178 115 -196 q 161 -136 161 -160 q 96 -89 161 -89 l 60 -94 l 53 -71 q 122 -53 83 -53 q 211 -128 211 -53 z "},"":{"ha":342,"x_min":-8,"x_max":411,"o":"m 353 165 q 274 75 353 146 q 124 -6 183 -6 q 46 31 75 -6 q 17 125 17 67 q 24 175 17 144 q -3 151 7 151 l -8 156 q 76 253 -8 178 q 261 342 178 342 q 328 286 328 342 q 263 190 328 238 q 83 117 197 143 l 78 68 q 126 13 78 13 q 268 92 186 13 q 346 172 307 132 q 351 169 349 172 q 353 165 351 167 m 288 303 q 267 326 288 326 q 181 278 231 326 q 90 136 122 221 q 236 211 176 154 q 288 303 288 260 m 411 578 q 319 461 411 522 q 211 408 240 408 q 201 417 201 408 q 249 454 201 418 q 300 508 278 475 q 332 576 304 514 q 375 614 349 614 q 411 578 411 614 z "},"":{"ha":342,"x_min":-8,"x_max":353,"o":"m 353 165 q 274 75 353 146 q 124 -6 183 -6 q 46 31 75 -6 q 17 125 17 67 q 24 175 17 144 q -3 151 7 151 l -8 156 q 76 253 -8 178 q 261 342 178 342 q 328 286 328 342 q 263 190 328 238 q 83 117 197 143 l 78 68 q 126 13 78 13 q 268 92 186 13 q 346 172 307 132 q 351 169 349 172 q 353 165 351 167 m 288 303 q 267 326 288 326 q 181 278 231 326 q 90 136 122 221 q 236 211 176 154 q 288 303 288 260 m 333 417 l 324 408 q 253 469 303 408 q 203 571 203 529 q 242 621 203 621 q 269 609 261 621 q 276 558 276 597 q 293 475 276 510 q 333 417 313 446 z "},"":{"ha":342,"x_min":-8,"x_max":396,"o":"m 353 165 q 274 75 353 146 q 124 -6 183 -6 q 46 31 75 -6 q 17 125 17 67 q 24 175 17 144 q -3 151 7 151 l -8 156 q 76 253 -8 178 q 261 342 178 342 q 328 286 328 342 q 263 190 328 238 q 83 117 197 143 l 78 68 q 126 13 78 13 q 268 92 186 13 q 346 172 307 132 q 351 169 349 172 q 353 165 351 167 m 288 303 q 267 326 288 326 q 181 278 231 326 q 90 136 122 221 q 236 211 176 154 q 288 303 288 260 m 396 438 q 386 425 396 425 q 360 449 376 425 q 318 532 344 474 l 176 457 q 106 426 118 426 q 90 438 90 426 q 110 458 90 446 q 171 497 144 481 q 267 563 218 526 q 336 611 332 611 q 353 597 349 611 l 393 453 l 396 438 z "},"":{"ha":342,"x_min":-8,"x_max":432,"o":"m 353 165 q 274 75 353 146 q 124 -6 183 -6 q 46 31 75 -6 q 17 125 17 67 q 24 175 17 144 q -3 151 7 151 l -8 156 q 76 253 -8 178 q 261 342 178 342 q 328 286 328 342 q 263 190 328 238 q 83 117 197 143 l 78 68 q 126 13 78 13 q 268 92 186 13 q 346 172 307 132 q 351 169 349 172 q 353 165 351 167 m 288 303 q 267 326 288 326 q 181 278 231 326 q 90 136 122 221 q 236 211 176 154 q 288 303 288 260 m 432 529 q 418 493 432 508 q 382 478 404 478 q 343 518 343 478 q 358 554 343 539 q 394 569 374 569 q 432 529 432 569 m 235 529 q 221 493 235 508 q 185 478 207 478 q 146 518 146 478 q 160 555 146 540 q 196 569 175 569 q 235 529 235 569 z "},"":{"ha":267,"x_min":-8,"x_max":363,"o":"m 279 165 q 204 76 279 150 q 75 -6 121 -6 q 10 71 10 -6 q 51 176 10 108 q 108 265 72 211 q 43 197 83 242 q -4 151 3 151 l -8 156 q 146 331 -8 169 l 233 336 l 94 119 q 65 68 76 92 q 53 33 53 44 q 74 11 53 11 q 163 61 108 11 q 272 172 217 117 l 279 165 m 363 569 q 271 453 363 514 q 163 400 192 400 q 153 408 153 400 q 200 446 153 410 q 251 500 229 467 q 283 568 256 506 q 326 606 300 606 q 363 569 363 606 z "},"":{"ha":267,"x_min":-8,"x_max":279,"o":"m 279 165 q 204 76 279 150 q 75 -6 121 -6 q 10 71 10 -6 q 51 176 10 108 q 108 265 72 211 q 43 197 83 242 q -4 151 3 151 l -8 156 q 146 331 -8 169 l 233 336 l 94 119 q 65 68 76 92 q 53 33 53 44 q 74 11 53 11 q 163 61 108 11 q 272 172 217 117 l 279 165 m 271 403 l 261 394 q 190 455 240 394 q 140 557 140 515 q 179 607 140 607 q 206 595 199 607 q 214 544 214 583 q 231 461 214 496 q 271 403 250 432 z "},"":{"ha":267,"x_min":-8,"x_max":358,"o":"m 279 165 q 204 76 279 150 q 75 -6 121 -6 q 10 71 10 -6 q 51 176 10 108 q 108 265 72 211 q 43 197 83 242 q -4 151 3 151 l -8 156 q 146 331 -8 169 l 233 336 l 94 119 q 65 68 76 92 q 53 33 53 44 q 74 11 53 11 q 163 61 108 11 q 272 172 217 117 l 279 165 m 358 426 q 349 414 358 414 q 323 438 339 414 q 281 521 307 463 l 139 446 q 68 415 81 415 q 53 426 53 415 q 72 447 53 435 q 133 486 107 469 q 229 551 181 515 q 299 600 294 600 q 315 586 311 600 l 356 442 l 358 426 z "},"":{"ha":267,"x_min":-8,"x_max":364,"o":"m 279 165 q 204 76 279 150 q 75 -6 121 -6 q 10 71 10 -6 q 51 176 10 108 q 108 265 72 211 q 43 197 83 242 q -4 151 3 151 l -8 156 q 146 331 -8 169 l 233 336 l 94 119 q 65 68 76 92 q 53 33 53 44 q 74 11 53 11 q 163 61 108 11 q 272 172 217 117 l 279 165 m 364 485 q 350 449 364 464 q 314 433 336 433 q 275 474 275 433 q 290 510 275 494 q 326 525 306 525 q 364 485 364 525 m 167 485 q 153 449 167 464 q 117 433 139 433 q 78 474 78 433 q 92 510 78 496 q 128 525 107 525 q 167 485 167 525 z "},"":{"ha":538,"x_min":-8,"x_max":579,"o":"m 550 165 q 436 46 550 143 q 357 -6 376 -6 q 314 19 332 -6 q 296 81 296 43 q 339 185 296 125 q 428 308 382 246 q 414 322 428 322 q 101 7 351 322 l 17 -1 l 175 235 q 203 277 193 260 q 214 307 214 294 q 197 324 214 324 q 111 267 168 324 q -3 150 54 210 l -8 156 q 19 194 -8 163 l 58 238 q 201 343 157 343 q 249 286 249 343 q 200 156 249 232 q 421 342 367 342 q 468 283 468 342 q 402 147 468 236 q 336 33 336 58 q 356 13 336 13 q 464 92 385 13 q 543 172 503 132 l 550 165 m 579 563 q 553 500 579 536 q 481 456 519 456 q 404 478 456 456 q 333 501 353 501 q 285 472 307 501 q 257 443 263 443 q 246 451 246 443 q 274 514 246 476 q 346 558 307 558 q 421 535 369 558 q 492 513 472 513 q 540 542 518 513 q 568 571 563 571 q 579 563 579 571 z "},"":{"ha":403,"x_min":-8,"x_max":422,"o":"m 422 174 q 382 126 422 157 q 285 89 333 89 q 257 92 267 89 q 96 -6 168 -6 q 14 119 14 -6 q 17 144 14 131 q 24 175 19 158 q -3 151 7 151 l -8 156 q 76 253 -8 176 q 256 343 176 343 q 316 320 293 343 q 339 257 339 297 q 272 110 339 193 l 292 107 q 358 129 328 107 q 418 182 388 156 q 422 174 422 176 m 306 263 q 260 324 306 324 q 136 225 204 324 q 68 57 68 126 q 106 14 68 14 q 228 94 156 14 q 306 263 306 182 m 421 581 q 329 464 421 525 q 221 411 250 411 q 211 419 211 411 q 258 457 211 421 q 310 511 288 478 q 342 579 314 517 q 385 617 358 617 q 421 581 421 617 z "},"":{"ha":403,"x_min":-8,"x_max":422,"o":"m 422 174 q 382 126 422 157 q 285 89 333 89 q 257 92 267 89 q 96 -6 168 -6 q 14 119 14 -6 q 17 144 14 131 q 24 175 19 158 q -3 151 7 151 l -8 156 q 76 253 -8 176 q 256 343 176 343 q 316 320 293 343 q 339 257 339 297 q 272 110 339 193 l 292 107 q 358 129 328 107 q 418 182 388 156 q 422 174 422 176 m 306 263 q 260 324 306 324 q 136 225 204 324 q 68 57 68 126 q 106 14 68 14 q 228 94 156 14 q 306 263 306 182 m 335 408 l 325 400 q 254 460 304 400 q 204 563 204 521 q 243 613 204 613 q 270 601 263 613 q 278 550 278 589 q 294 467 278 501 q 335 408 314 438 z "},"":{"ha":403,"x_min":-8,"x_max":422,"o":"m 422 174 q 382 126 422 157 q 285 89 333 89 q 257 92 267 89 q 96 -6 168 -6 q 14 119 14 -6 q 17 144 14 131 q 24 175 19 158 q -3 151 7 151 l -8 156 q 76 253 -8 176 q 256 343 176 343 q 316 320 293 343 q 339 257 339 297 q 272 110 339 193 l 292 107 q 358 129 328 107 q 418 182 388 156 q 422 174 422 176 m 306 263 q 260 324 306 324 q 136 225 204 324 q 68 57 68 126 q 106 14 68 14 q 228 94 156 14 q 306 263 306 182 m 414 435 q 404 422 414 422 q 378 447 394 422 q 336 529 363 471 l 194 454 q 124 424 136 424 q 108 435 108 424 q 128 456 108 443 q 189 494 163 478 q 285 560 236 524 q 354 608 350 608 q 371 594 367 608 l 411 450 l 414 435 z "},"":{"ha":403,"x_min":-8,"x_max":453,"o":"m 422 174 q 382 126 422 157 q 285 89 333 89 q 257 92 267 89 q 96 -6 168 -6 q 14 119 14 -6 q 17 144 14 131 q 24 175 19 158 q -3 151 7 151 l -8 156 q 76 253 -8 176 q 256 343 176 343 q 316 320 293 343 q 339 257 339 297 q 272 110 339 193 l 292 107 q 358 129 328 107 q 418 182 388 156 q 422 174 422 176 m 306 263 q 260 324 306 324 q 136 225 204 324 q 68 57 68 126 q 106 14 68 14 q 228 94 156 14 q 306 263 306 182 m 453 535 q 439 499 453 514 q 403 483 425 483 q 364 524 364 483 q 379 560 364 544 q 415 575 394 575 q 453 535 453 575 m 256 535 q 242 499 256 514 q 206 483 228 483 q 167 524 167 483 q 181 560 167 546 q 217 575 196 575 q 256 535 256 575 z "},"":{"ha":403,"x_min":-8,"x_max":454,"o":"m 422 174 q 382 126 422 157 q 285 89 333 89 q 257 92 267 89 q 96 -6 168 -6 q 14 119 14 -6 q 17 144 14 131 q 24 175 19 158 q -3 151 7 151 l -8 156 q 76 253 -8 176 q 256 343 176 343 q 316 320 293 343 q 339 257 339 297 q 272 110 339 193 l 292 107 q 358 129 328 107 q 418 182 388 156 q 422 174 422 176 m 306 263 q 260 324 306 324 q 136 225 204 324 q 68 57 68 126 q 106 14 68 14 q 228 94 156 14 q 306 263 306 182 m 454 568 q 428 506 454 542 q 356 461 394 461 q 279 484 331 461 q 208 507 228 507 q 160 478 182 507 q 132 449 138 449 q 121 457 121 449 q 149 519 121 482 q 221 564 182 564 q 296 541 244 564 q 367 518 347 518 q 415 547 393 518 q 443 576 438 576 q 454 568 454 576 z "},"":{"ha":471,"x_min":-10,"x_max":482,"o":"m 482 167 q 399 72 482 149 q 292 -6 317 -6 q 244 16 260 -6 q 229 76 229 38 q 235 111 229 89 q 75 -6 132 -6 q 27 15 46 -6 q 8 71 8 36 q 50 176 8 108 q 107 265 78 222 q 29 182 71 229 q -4 151 3 151 l -10 156 q 144 331 -10 168 l 232 335 l 111 147 q 53 33 53 56 q 72 13 53 13 q 367 331 175 13 l 449 335 l 303 106 q 276 60 285 78 q 268 33 268 42 q 288 13 268 13 q 366 65 313 13 q 475 172 419 117 l 482 167 m 476 583 q 385 467 476 528 q 276 414 306 414 q 267 422 267 414 q 314 460 267 424 q 365 514 343 481 q 397 582 369 519 q 440 619 414 619 q 476 583 476 619 z "},"":{"ha":471,"x_min":-10,"x_max":482,"o":"m 482 167 q 399 72 482 149 q 292 -6 317 -6 q 244 16 260 -6 q 229 76 229 38 q 235 111 229 89 q 75 -6 132 -6 q 27 15 46 -6 q 8 71 8 36 q 50 176 8 108 q 107 265 78 222 q 29 182 71 229 q -4 151 3 151 l -10 156 q 144 331 -10 168 l 232 335 l 111 147 q 53 33 53 56 q 72 13 53 13 q 367 331 175 13 l 449 335 l 303 106 q 276 60 285 78 q 268 33 268 42 q 288 13 268 13 q 366 65 313 13 q 475 172 419 117 l 482 167 m 393 411 l 383 403 q 313 463 363 403 q 263 565 263 524 q 301 615 263 615 q 328 603 321 615 q 336 553 336 592 q 353 469 336 504 q 393 411 372 440 z "},"":{"ha":471,"x_min":-10,"x_max":482,"o":"m 482 167 q 399 72 482 149 q 292 -6 317 -6 q 244 16 260 -6 q 229 76 229 38 q 235 111 229 89 q 75 -6 132 -6 q 27 15 46 -6 q 8 71 8 36 q 50 176 8 108 q 107 265 78 222 q 29 182 71 229 q -4 151 3 151 l -10 156 q 144 331 -10 168 l 232 335 l 111 147 q 53 33 53 56 q 72 13 53 13 q 367 331 175 13 l 449 335 l 303 106 q 276 60 285 78 q 268 33 268 42 q 288 13 268 13 q 366 65 313 13 q 475 172 419 117 l 482 167 m 478 435 q 468 422 478 422 q 442 447 458 422 q 400 529 426 471 l 258 454 q 188 424 200 424 q 172 435 172 424 q 192 456 172 443 q 253 494 226 478 q 349 560 300 524 q 418 608 414 608 q 435 594 431 608 l 475 450 l 478 435 z "},"":{"ha":471,"x_min":-10,"x_max":489,"o":"m 482 167 q 399 72 482 149 q 292 -6 317 -6 q 244 16 260 -6 q 229 76 229 38 q 235 111 229 89 q 75 -6 132 -6 q 27 15 46 -6 q 8 71 8 36 q 50 176 8 108 q 107 265 78 222 q 29 182 71 229 q -4 151 3 151 l -10 156 q 144 331 -10 168 l 232 335 l 111 147 q 53 33 53 56 q 72 13 53 13 q 367 331 175 13 l 449 335 l 303 106 q 276 60 285 78 q 268 33 268 42 q 288 13 268 13 q 366 65 313 13 q 475 172 419 117 l 482 167 m 489 526 q 475 490 489 506 q 439 475 461 475 q 400 515 400 475 q 415 551 400 536 q 451 567 431 567 q 489 526 489 567 m 292 526 q 278 490 292 506 q 242 475 264 475 q 203 515 203 475 q 217 552 203 538 q 253 567 232 567 q 292 526 292 567 z "},"":{"ha":681,"x_min":111,"x_max":763,"o":"m 763 635 q 710 600 763 600 q 642 607 682 600 q 536 635 601 614 l 528 550 q 346 250 454 433 q 132 -115 243 78 l 111 -108 q 251 153 168 -4 q 365 374 335 311 q 449 556 418 481 l 517 635 q 408 608 460 617 q 336 600 357 600 q 294 632 294 600 q 360 667 294 667 q 425 662 385 667 q 525 649 465 657 q 578 790 544 696 q 644 883 611 883 q 673 874 661 883 q 685 853 685 865 q 644 776 685 828 q 547 650 557 663 q 644 663 599 657 q 717 668 690 668 q 753 662 743 668 q 763 635 763 656 z "},"":{"ha":400,"x_min":38,"x_max":363,"o":"m 363 694 q 315 581 363 628 q 199 533 268 533 q 85 581 132 533 q 38 694 38 628 q 85 810 38 763 q 200 857 132 857 q 315 809 267 857 q 363 694 363 761 m 326 694 q 290 785 326 749 q 200 821 254 821 q 110 784 147 821 q 74 694 74 747 q 110 605 74 642 q 200 568 147 568 q 290 604 254 568 q 326 694 326 640 z "},"":{"ha":494,"x_min":57,"x_max":376,"o":"m 376 279 q 365 244 376 258 q 336 231 354 231 q 311 254 311 231 q 322 286 311 269 q 333 310 333 303 q 322 326 333 318 l 139 24 q 167 17 156 17 q 244 43 204 17 q 319 103 282 72 l 324 99 q 246 28 324 71 q 157 0 196 0 l 128 4 l 81 -75 l 64 -64 l 111 14 q 57 126 57 51 q 136 275 57 204 q 311 346 215 346 l 354 418 l 371 408 l 331 342 q 376 279 376 326 m 300 329 q 172 228 226 306 q 117 71 117 150 q 125 36 117 51 l 300 329 z "},"":{"ha":653,"x_min":-53,"x_max":690,"o":"m 690 506 q 683 463 690 481 q 668 444 676 444 q 663 453 663 450 q 670 471 667 460 q 674 503 674 482 q 657 550 674 532 q 615 568 640 568 q 414 301 526 568 l 554 301 l 554 283 l 406 283 q 222 61 325 125 q 374 28 311 28 q 467 58 424 28 q 547 125 507 92 l 551 121 q 488 54 551 106 q 353 -6 413 -6 q 189 38 307 -6 q 43 -4 121 -4 q -26 11 1 -4 q -53 50 -53 26 q 24 99 -53 99 q 103 91 63 99 q 189 71 143 83 q 259 152 224 97 q 329 283 294 207 l 203 283 l 203 301 l 340 301 q 472 517 407 447 q 611 588 538 588 q 669 565 647 588 q 690 506 690 542 m 160 50 q 85 73 117 65 q 21 81 54 81 q -33 51 -33 81 q -12 24 -33 35 q 46 13 8 13 q 160 50 108 13 z "},"":{"ha":607,"x_min":7,"x_max":725,"o":"m 725 826 q 701 800 725 800 q 623 831 661 817 q 547 844 585 844 q 448 816 483 844 q 413 735 413 788 q 476 565 413 697 q 540 369 540 433 q 492 241 540 292 q 357 179 444 190 q 379 94 379 128 q 312 -37 379 18 q 147 -92 244 -92 q 49 -74 90 -92 q 7 -33 7 -56 q 14 -12 7 -21 q 35 -4 21 -4 q 115 -39 76 -24 q 192 -54 153 -54 q 291 -23 253 -54 q 329 53 329 8 q 264 225 329 93 q 199 422 199 357 q 248 551 199 500 q 383 613 297 601 q 371 646 375 633 q 363 697 363 672 q 429 826 363 771 q 583 882 496 882 q 685 865 644 882 q 725 826 725 847 m 501 329 q 465 444 501 368 q 392 596 428 521 q 278 550 319 586 q 238 461 238 514 q 282 332 238 428 q 347 196 314 264 q 460 239 418 204 q 501 329 501 274 z "},"":{"ha":556,"x_min":103,"x_max":454,"o":"m 454 450 q 403 326 454 378 q 278 275 351 275 q 153 326 204 275 q 103 450 103 376 q 154 574 103 522 q 279 625 206 625 q 403 575 351 625 q 454 450 454 525 z "},"":{"ha":607,"x_min":53,"x_max":553,"o":"m 553 836 l 476 836 l 476 0 l 435 0 l 435 836 l 321 836 l 321 0 l 279 0 l 279 463 q 115 520 176 463 q 53 668 53 578 q 117 817 53 760 q 288 874 181 874 l 553 874 l 553 836 z "},"":{"ha":419,"x_min":-208,"x_max":575,"o":"m 575 700 q 449 506 575 622 q 322 344 322 389 q 328 281 322 315 q 343 156 343 185 q 341 119 343 138 q 326 74 339 100 q 393 146 354 101 q 421 172 417 172 q 426 169 424 172 q 429 165 428 167 q 356 78 429 147 q 199 -6 268 -6 q 138 12 161 -6 q 115 57 115 29 q 121 78 115 68 q 151 96 132 96 q 179 72 179 96 q 171 51 179 67 q 163 26 163 36 q 186 14 163 14 q 253 52 222 14 q 285 157 285 90 q 279 235 285 185 q 274 306 274 285 q 344 425 274 346 q 476 567 410 496 q 547 706 547 651 q 515 740 547 740 q 390 642 461 740 q 224 347 325 550 l -122 -346 l -208 -356 l 146 299 q 58 214 97 256 q -4 150 0 150 l -8 156 q 38 217 -8 165 q 182 361 89 274 q 518 757 389 757 q 558 740 542 757 q 575 700 575 724 z "},"":{"ha":999,"x_min":90,"x_max":908,"o":"m 908 400 q 788 113 908 232 q 499 -7 667 -7 q 210 113 329 -7 q 90 400 90 232 q 212 691 90 572 q 500 810 333 810 q 786 692 664 810 q 908 400 908 575 m 864 400 q 761 659 864 551 q 500 767 658 767 q 243 661 350 767 q 136 400 136 556 q 243 140 136 246 q 499 35 350 35 q 757 143 650 35 q 864 400 864 251 m 760 271 q 671 163 760 163 q 599 200 618 163 q 585 289 585 228 q 449 404 585 404 l 425 403 l 425 257 q 444 210 425 224 q 507 196 463 196 l 507 174 l 278 174 l 278 196 q 341 209 322 196 q 360 257 360 222 l 360 560 q 341 607 360 593 q 278 621 322 621 l 278 643 l 510 643 q 648 612 599 643 q 697 526 697 581 q 656 453 697 481 q 525 408 615 425 q 657 249 636 376 q 690 194 665 194 q 738 271 738 194 l 760 271 m 621 526 q 588 598 621 571 q 492 625 554 625 q 425 579 425 625 l 425 424 l 465 422 q 621 526 621 422 z "},"":{"ha":999,"x_min":90,"x_max":908,"o":"m 908 400 q 788 112 908 231 q 499 -7 668 -7 q 214 107 333 -7 q 90 400 90 225 q 212 691 90 572 q 500 810 333 810 q 790 688 671 810 q 908 400 908 567 m 864 400 q 758 662 864 557 q 500 767 651 767 q 240 658 344 767 q 136 400 136 550 q 244 140 136 244 q 499 35 351 35 q 756 142 647 35 q 864 400 864 249 m 690 268 q 490 146 622 146 q 325 217 393 146 q 257 392 257 288 q 324 576 257 501 q 489 650 392 650 q 556 637 522 650 q 625 610 590 624 q 664 646 657 610 l 682 646 l 682 465 l 660 465 q 490 626 622 626 q 338 404 338 626 q 501 178 338 178 q 672 279 606 178 l 690 268 z "},"":{"ha":999,"x_min":150,"x_max":851,"o":"m 851 533 l 717 533 l 717 549 l 735 549 q 764 581 764 549 l 764 821 l 654 531 l 649 531 l 546 819 l 546 581 q 575 549 546 549 l 593 549 l 593 533 l 475 533 l 475 547 l 493 547 q 522 581 522 547 l 522 797 q 493 832 522 832 l 475 832 l 475 846 l 576 846 l 663 601 l 756 846 l 851 846 l 851 832 l 833 832 q 804 799 804 832 l 804 581 q 833 549 804 549 l 851 549 l 851 533 m 421 743 l 408 743 q 324 832 399 832 l 310 832 l 310 581 q 339 549 310 549 l 357 549 l 357 533 l 214 533 l 214 549 l 233 549 q 263 581 263 549 l 263 832 l 249 832 q 164 743 172 832 l 150 743 l 157 846 l 415 846 l 421 743 z "},"":{"ha":694,"x_min":347,"x_max":557,"o":"m 557 556 q 465 439 557 500 q 357 386 386 386 q 347 394 347 386 q 394 432 347 396 q 446 486 424 453 q 478 554 450 492 q 521 592 494 592 q 557 556 557 592 z "},"":{"ha":694,"x_min":272,"x_max":558,"o":"m 558 485 q 544 449 558 464 q 508 433 531 433 q 469 474 469 433 q 485 510 469 494 q 521 525 500 525 q 558 485 558 525 m 361 485 q 347 449 361 464 q 311 433 333 433 q 272 474 272 433 q 287 510 272 496 q 322 525 301 525 q 361 485 361 525 z "},"":{"ha":1411,"x_min":40,"x_max":1594,"o":"m 1594 747 q 1540 620 1594 675 q 1418 565 1485 565 q 1360 585 1382 565 q 1339 642 1339 606 q 1390 739 1339 693 q 1463 779 1435 779 l 1469 775 q 1398 710 1429 747 q 1367 632 1367 674 q 1381 593 1367 607 q 1419 579 1394 579 q 1526 631 1474 579 q 1578 747 1578 683 q 1550 824 1578 796 q 1472 851 1522 851 q 1288 744 1375 851 q 1206 560 1206 644 q 1216 520 1206 535 q 1240 506 1226 506 l 1268 506 q 1335 483 1335 506 q 1299 465 1335 465 q 1263 470 1281 465 q 1225 481 1244 475 q 1047 397 1140 481 q 938 164 938 299 q 978 56 938 97 q 1083 14 1018 14 q 1273 105 1182 14 q 1364 281 1364 196 q 1344 340 1364 318 q 1293 363 1325 363 q 1206 321 1254 363 q 1111 197 1150 274 q 1083 119 1093 161 q 1068 78 1074 78 q 1065 82 1065 81 q 1061 99 1061 90 q 1128 302 1061 217 q 1276 388 1196 388 q 1355 359 1325 388 q 1385 283 1385 331 q 1290 94 1385 188 q 1060 -6 1189 -6 q 881 101 922 -6 l 857 32 q 826 0 844 1 l 769 -6 l 760 -6 q 750 3 750 0 l 757 22 l 779 78 q 544 154 657 89 q 217 -4 367 -4 q 90 34 139 -4 q 40 128 40 72 q 58 190 40 167 q 106 214 76 214 q 142 199 126 214 q 158 163 158 185 q 126 113 158 128 q 94 90 94 97 q 132 41 94 64 q 225 18 169 18 q 528 164 375 18 q 353 436 353 293 q 412 578 353 521 q 557 636 471 636 q 706 592 640 636 q 811 463 772 547 q 1225 868 1178 868 l 1229 860 q 1139 686 1193 794 q 1024 428 1074 556 q 1206 497 1108 475 q 1149 596 1149 538 q 1261 790 1149 703 q 1465 869 1364 869 q 1560 838 1525 869 q 1594 747 1594 806 m 1199 833 q 1038 682 1138 786 q 819 446 953 594 q 846 279 846 358 q 838 190 846 236 q 1040 588 949 428 q 1199 833 1131 749 m 799 447 q 713 564 767 524 q 588 604 658 604 q 456 550 508 604 q 403 413 403 496 q 442 278 403 339 q 540 178 475 224 q 799 447 631 246 m 828 297 q 804 429 828 356 q 654 261 689 299 q 557 167 608 213 q 672 115 614 133 q 786 90 731 96 q 828 297 828 179 z "},"":{"ha":679,"x_min":43,"x_max":835,"o":"m 835 932 l 769 844 q 831 733 831 807 q 817 686 831 686 q 810 699 810 693 l 814 732 q 760 831 814 806 l 699 747 q 753 614 753 710 q 577 205 753 415 q 228 -6 401 -6 q 157 7 190 -6 l 72 -108 l 57 -94 l 139 15 q 69 97 94 43 q 43 221 43 150 q 251 649 43 431 q 674 867 458 867 q 715 865 703 867 q 750 854 726 863 l 817 944 l 835 932 m 740 840 q 679 850 713 850 q 302 614 489 850 q 115 156 115 378 q 158 42 115 88 l 667 738 l 644 742 q 506 668 585 742 q 360 461 421 589 q 328 372 342 422 q 308 322 314 322 q 304 340 304 333 q 404 614 304 472 q 626 765 511 765 q 681 757 653 765 l 740 840 m 736 613 q 688 729 736 693 l 175 32 q 238 14 203 14 q 574 231 403 14 q 736 613 736 438 z "},"":{"ha":694,"x_min":8,"x_max":649,"o":"m 649 315 l 631 268 l 368 268 l 288 49 l 599 49 l 581 1 l 8 1 l 26 49 l 240 49 l 321 268 l 58 268 l 76 315 l 339 315 l 435 582 l 482 582 l 386 315 l 649 315 z "},"":{"ha":494,"x_min":33,"x_max":651,"o":"m 651 568 l 436 388 l 549 388 l 528 353 l 394 353 l 301 278 l 479 278 l 457 244 l 281 244 l 124 0 l 72 0 l 228 244 l 33 244 l 54 278 l 249 278 l 235 353 l 101 353 l 125 388 l 226 388 l 182 568 l 236 568 l 296 314 l 600 568 l 651 568 z "},"":{"ha":624,"x_min":-29,"x_max":626,"o":"m 626 182 q 579 53 626 115 q 469 -8 532 -8 q 385 94 385 -8 l 386 114 q 226 -12 336 -12 q 96 113 113 -12 q 57 -194 76 -40 q 13 -246 44 -246 q -29 -210 -29 -246 q -3 -74 -29 -183 q 64 215 44 119 l 129 522 l 199 522 l 133 217 l 129 164 q 156 74 129 107 q 228 40 182 40 q 393 239 347 40 l 460 522 l 529 522 l 460 211 q 448 144 451 172 q 444 107 444 115 q 489 51 444 51 q 575 126 544 51 q 611 200 606 200 q 626 182 626 200 z "},"":{"ha":360,"x_min":-7,"x_max":367,"o":"m 367 761 q 306 694 367 747 q 217 640 244 640 q 174 682 174 640 l 179 714 q 64 640 115 640 q 25 663 39 640 q 11 726 11 685 l 17 765 q -3 749 6 749 l -7 753 q 61 822 -7 769 q 199 882 139 882 q 247 843 247 882 l 244 825 l 282 876 l 342 879 l 242 732 q 216 690 224 706 q 208 667 208 675 q 221 653 208 653 q 301 708 244 653 q 363 764 358 764 l 367 761 m 233 843 q 203 869 233 869 q 101 799 153 869 q 50 682 50 729 q 72 654 50 654 q 171 724 108 654 q 233 843 233 793 z "},"":{"ha":303,"x_min":-6,"x_max":317,"o":"m 317 765 q 288 733 317 754 q 214 707 251 707 l 192 708 q 72 640 128 640 q 11 728 11 640 q 18 765 11 744 q -3 749 4 749 l -6 753 q 60 822 -6 768 q 192 885 136 885 q 238 868 221 885 q 254 822 254 851 q 204 721 254 779 l 218 719 q 271 735 247 719 q 314 771 292 753 l 317 765 m 229 828 q 196 869 229 869 q 100 799 149 869 q 51 683 51 729 q 79 653 51 653 q 171 710 118 653 q 229 828 229 772 z "},"":{"ha":590,"x_min":-10,"x_max":603,"o":"m 603 165 q 522 75 603 146 q 368 -6 431 -6 q 294 31 322 -6 q 267 129 267 67 q 101 -6 168 -6 q 47 26 68 -6 q 26 111 26 57 q 32 155 26 135 q 40 186 38 175 q -3 150 4 150 l -10 156 q 89 256 -10 178 q 267 342 199 342 q 328 279 328 342 l 364 343 l 431 350 l 401 294 q 511 342 457 342 q 576 286 576 342 q 511 190 576 238 q 333 117 446 143 l 326 68 q 375 13 326 13 q 483 63 424 13 q 596 172 539 117 l 603 165 m 538 303 q 515 326 538 326 q 429 278 479 326 q 339 136 371 221 q 486 211 426 154 q 538 303 538 260 m 308 286 q 297 311 308 300 q 271 322 286 322 q 144 225 215 322 q 72 49 72 128 q 81 21 72 29 q 99 13 90 13 q 231 114 153 13 q 308 286 308 215 z "},"":{"ha":401,"x_min":-10,"x_max":418,"o":"m 418 174 q 372 123 418 157 q 283 89 326 89 l 256 90 q 94 -6 169 -6 l 82 -4 l 25 -89 l 6 -76 l 61 4 q 14 118 14 25 q 16 144 14 129 q 24 175 18 158 q -3 151 10 151 l -10 156 q 75 253 -10 176 q 256 343 175 343 q 288 338 272 343 l 336 411 l 354 400 l 306 328 q 338 257 338 308 q 271 108 338 190 l 293 106 q 369 140 326 106 q 411 176 390 158 l 418 174 m 306 261 q 293 307 306 289 l 92 14 l 101 13 q 231 99 156 13 q 306 261 306 186 m 276 319 l 258 322 q 135 224 203 322 q 67 53 67 125 q 76 25 67 42 l 276 319 z "},"":{"ha":396,"x_min":24,"x_max":450,"o":"m 450 569 q 435 531 450 549 q 400 514 421 514 q 367 549 367 514 q 381 587 367 569 q 415 604 396 604 q 440 594 431 604 q 450 569 450 585 m 376 468 q 354 421 376 456 q 276 325 326 376 q 147 201 211 263 q 82 60 82 132 q 140 14 82 14 q 224 44 185 14 q 264 93 264 74 q 242 111 264 97 q 219 147 219 125 q 232 176 219 164 q 260 189 244 189 q 290 174 278 189 q 303 136 303 160 q 252 40 303 83 q 138 -4 201 -4 q 55 27 86 -4 q 24 114 24 58 q 74 229 24 185 q 286 376 179 303 q 343 447 318 406 q 369 478 363 478 q 376 468 376 471 z "},"":{"ha":321,"x_min":13,"x_max":438,"o":"m 438 564 q 422 527 438 544 q 388 510 406 510 q 363 519 372 510 q 353 544 353 529 q 367 581 353 564 q 401 599 382 599 q 426 589 415 599 q 438 564 438 579 m 357 461 q 343 428 357 451 l 117 4 l 13 -4 l 315 442 q 346 472 335 472 q 357 461 357 472 z "},"":{"ha":1421,"x_min":36,"x_max":1393,"o":"m 1225 336 q 1186 210 1225 300 q 1125 85 1160 150 q 1090 29 1100 42 q 1035 -6 1063 -6 q 988 11 1013 -6 q 964 49 964 28 q 978 85 964 65 q 993 101 983 93 q 1019 75 1006 88 q 1053 63 1033 63 q 1139 146 1100 63 q 1172 272 1172 217 q 1155 313 1172 303 q 1104 322 1138 322 q 1048 290 1053 322 q 1036 254 1043 258 l 1026 275 q 1028 297 1028 281 q 1033 351 1028 340 q 1100 381 1047 381 q 1188 373 1151 381 q 1225 336 1225 365 m 1393 149 q 1344 24 1393 64 q 1208 -17 1296 -17 q 1160 -11 1181 -17 q 1124 19 1124 -1 q 1131 38 1124 32 q 1149 43 1138 43 q 1169 38 1158 43 q 1185 23 1181 32 q 1197 8 1189 14 q 1221 -3 1206 3 q 1322 40 1285 -3 q 1360 143 1360 83 q 1332 329 1360 272 q 1191 422 1293 410 q 1040 440 1089 435 q 963 444 990 444 q 872 436 919 444 q 793 424 824 428 q 527 274 669 401 q 374 43 385 146 q 400 -36 400 3 q 399 -58 400 -56 q 386 -67 394 -67 q 360 -37 371 -67 q 350 13 350 -8 l 350 19 q 300 61 317 44 q 264 113 267 94 q 260 144 261 132 q 260 163 260 157 q 261 176 260 172 q 167 106 211 135 q 67 60 97 60 q 36 83 39 60 q 53 161 36 113 q 81 225 65 197 l 117 275 l 131 293 q 90 304 103 293 q 72 344 78 315 q 147 358 110 339 q 217 408 183 376 q 222 410 219 408 q 228 390 228 403 q 199 322 228 344 q 150 292 174 307 q 111 238 124 257 q 86 175 86 201 q 96 129 86 157 q 117 101 106 101 q 217 154 142 101 q 272 194 244 174 q 296 256 288 233 q 328 314 313 296 q 344 333 335 322 q 365 343 354 343 q 382 325 382 343 q 358 278 382 303 q 317 243 343 263 q 306 205 314 238 q 297 165 297 172 q 321 114 297 149 q 358 67 340 85 q 515 299 381 178 q 751 435 643 414 q 883 459 825 450 q 1001 468 942 468 q 1206 449 1090 468 q 1329 378 1282 435 q 1393 149 1393 300 m 924 13 q 896 -4 921 -4 q 882 -3 888 -4 q 853 33 847 8 q 878 47 857 47 q 893 44 882 47 q 924 13 928 35 m 910 168 q 883 97 910 133 q 831 44 864 72 q 642 -19 743 -19 q 553 0 590 -19 q 506 72 506 25 q 526 128 506 104 q 581 161 546 151 l 583 157 q 549 136 558 146 q 529 100 532 121 q 588 35 529 54 q 688 22 625 22 q 844 72 778 22 q 868 97 860 83 q 876 126 876 110 q 858 159 876 151 q 807 167 839 167 q 760 164 793 167 q 725 161 726 161 q 654 178 682 161 q 619 242 619 199 q 674 338 619 303 q 794 374 729 374 q 828 372 817 374 q 850 357 839 369 q 871 350 864 363 q 886 324 883 326 l 889 318 q 872 296 886 308 q 854 275 858 283 q 846 269 853 267 q 818 286 831 283 q 806 297 806 289 q 817 318 806 304 q 828 343 828 332 q 813 360 828 357 q 790 364 797 364 q 703 342 743 364 q 653 269 653 314 q 676 235 653 244 q 725 226 699 226 l 797 229 q 869 222 849 229 q 910 168 910 208 m 504 10 q 474 -8 500 -8 q 460 -7 465 -8 q 442 3 449 -4 q 431 31 426 15 q 458 46 435 46 q 472 43 464 46 q 504 10 510 31 z "},"":{"ha":393,"x_min":-306,"x_max":657,"o":"m 657 639 q 622 604 657 604 q 589 638 590 604 q 565 672 588 672 q 274 347 454 672 l 396 347 l 396 329 l 265 329 l 203 210 q -232 -257 -37 -257 q -306 -204 -306 -257 q -271 -169 -306 -169 q -239 -204 -243 -169 q -214 -239 -235 -239 q -94 -174 -156 -239 q 36 18 -44 -121 q 207 329 99 125 l 97 329 l 97 347 l 217 347 q 583 690 419 690 q 657 639 657 690 z "},"":{"ha":374,"x_min":71,"x_max":383,"o":"m 383 306 q 372 286 383 297 l 239 175 l 281 49 l 285 33 q 274 21 285 21 q 256 39 264 21 l 186 183 l 354 307 q 372 315 367 315 q 383 306 383 315 m 269 306 q 257 286 269 299 l 125 175 l 165 49 l 169 33 q 160 21 169 21 q 140 39 149 21 l 71 183 l 239 307 q 257 315 251 315 q 269 306 269 315 z "},"":{"ha":374,"x_min":-14,"x_max":301,"o":"m 301 154 l 132 29 q 114 21 121 21 q 101 32 101 21 q 115 50 101 36 l 247 161 l 207 288 l 203 303 q 213 315 203 315 q 232 297 222 315 l 301 154 m 186 154 l 17 29 q -1 21 6 21 q -14 32 -14 21 q 0 50 -14 36 l 131 161 l 92 288 l 88 303 q 97 315 88 315 q 117 297 107 315 l 186 154 z "},"":{"ha":1215,"x_min":140,"x_max":1033,"o":"m 1033 50 q 1019 12 1033 29 q 985 -6 1004 -6 q 960 4 969 -6 q 950 29 950 14 q 965 67 950 49 q 1000 85 981 85 q 1033 50 1033 85 m 628 50 q 613 12 628 29 q 579 -6 599 -6 q 554 4 564 -6 q 544 29 544 14 q 559 67 544 50 q 594 85 574 85 q 628 50 628 85 m 224 50 q 209 12 224 29 q 175 -6 194 -6 q 150 4 160 -6 q 140 29 140 14 q 155 67 140 50 q 189 85 169 85 q 214 75 204 85 q 224 50 224 65 z "},"":{"ha":278,"x_min":0,"x_max":0,"o":""},"":{"ha":1065,"x_min":178,"x_max":1747,"o":"m 1747 875 q 1488 499 1604 706 q 1289 89 1389 326 q 1390 114 1347 89 q 1458 169 1424 142 l 1463 165 q 1415 110 1463 142 q 1281 71 1358 71 l 1250 7 l 1153 -6 l 1186 78 q 1065 105 1122 83 q 950 164 1008 126 q 517 -6 751 -6 q 268 63 358 -6 q 178 249 178 132 q 276 445 178 364 q 503 526 374 526 q 676 476 611 526 q 740 349 740 425 q 670 195 740 254 q 486 136 600 136 q 425 149 425 136 q 436 154 432 154 l 481 151 q 653 203 589 151 q 717 332 717 254 q 666 437 717 399 q 526 475 615 475 q 303 398 396 475 q 210 219 210 321 q 292 69 210 126 q 514 11 374 11 q 935 176 749 11 q 779 450 779 301 q 833 588 779 536 q 968 639 888 639 q 1096 603 1036 639 q 1219 468 1168 560 q 1358 613 1303 558 q 1528 754 1449 699 q 1747 875 1628 824 m 1672 819 q 1228 451 1479 739 q 1251 294 1251 381 q 1249 250 1251 275 q 1242 193 1247 225 q 1442 536 1328 374 q 1672 819 1538 671 m 1206 456 q 1000 603 1132 603 q 876 547 928 603 q 825 410 825 492 q 950 189 825 285 q 1115 356 1024 254 q 1206 456 1176 424 m 1235 292 q 1215 438 1235 371 q 965 179 1090 308 q 1194 94 1060 107 q 1235 292 1235 196 m 1367 885 l 1357 876 q 1286 937 1336 876 q 1236 1039 1236 997 q 1275 1089 1236 1089 q 1302 1077 1294 1089 q 1310 1026 1310 1065 q 1326 943 1310 978 q 1367 885 1346 914 z "},"":{"ha":1065,"x_min":178,"x_max":1747,"o":"m 1747 875 q 1488 499 1604 706 q 1289 89 1389 326 q 1390 114 1347 89 q 1458 169 1424 142 l 1463 165 q 1415 110 1463 142 q 1281 71 1358 71 l 1250 7 l 1153 -6 l 1186 78 q 1065 105 1122 83 q 950 164 1008 126 q 517 -6 751 -6 q 268 63 358 -6 q 178 249 178 132 q 276 445 178 364 q 503 526 374 526 q 676 476 611 526 q 740 349 740 425 q 670 195 740 254 q 486 136 600 136 q 425 149 425 136 q 436 154 432 154 l 481 151 q 653 203 589 151 q 717 332 717 254 q 666 437 717 399 q 526 475 615 475 q 303 398 396 475 q 210 219 210 321 q 292 69 210 126 q 514 11 374 11 q 935 176 749 11 q 779 450 779 301 q 833 588 779 536 q 968 639 888 639 q 1096 603 1036 639 q 1219 468 1168 560 q 1358 613 1303 558 q 1528 754 1449 699 q 1747 875 1628 824 m 1672 819 q 1228 451 1479 739 q 1251 294 1251 381 q 1249 250 1251 275 q 1242 193 1247 225 q 1442 536 1328 374 q 1672 819 1538 671 m 1206 456 q 1000 603 1132 603 q 876 547 928 603 q 825 410 825 492 q 950 189 825 285 q 1115 356 1024 254 q 1206 456 1176 424 m 1235 292 q 1215 438 1235 371 q 965 179 1090 308 q 1194 94 1060 107 q 1235 292 1235 196 m 1531 1028 q 1504 965 1531 1001 q 1432 921 1471 921 q 1356 944 1407 921 q 1285 967 1304 967 q 1236 938 1258 967 q 1208 908 1214 908 q 1197 917 1197 908 q 1225 979 1197 942 q 1297 1024 1258 1024 q 1372 1001 1321 1024 q 1443 978 1424 978 q 1492 1007 1469 978 q 1519 1036 1514 1036 q 1531 1028 1531 1036 z "},"":{"ha":679,"x_min":132,"x_max":1004,"o":"m 1004 735 q 992 689 1004 689 q 985 700 985 694 l 988 731 q 951 825 988 792 q 847 858 915 858 q 635 778 744 858 q 663 760 649 768 q 693 738 676 751 q 785 761 749 761 q 900 711 858 761 q 942 569 942 661 q 766 180 942 367 q 419 -7 590 -7 q 275 58 329 -7 q 221 232 221 122 q 313 513 221 368 q 579 782 406 658 q 535 790 561 786 q 493 794 508 794 q 291 729 379 794 q 164 550 203 664 q 148 483 153 519 q 138 446 143 446 q 132 461 132 456 q 233 701 132 597 q 489 811 340 811 q 539 807 515 811 q 596 794 563 803 q 842 878 742 878 q 960 840 917 878 q 1004 735 1004 801 m 753 550 q 690 717 753 656 q 524 557 585 654 q 463 372 463 460 q 490 292 463 324 q 557 261 517 261 q 691 349 629 261 q 753 550 753 438 m 925 578 q 888 698 925 651 q 793 744 851 744 q 710 724 751 744 q 774 627 751 676 q 797 513 797 578 q 718 310 797 394 q 567 233 646 233 q 478 272 513 233 q 444 374 444 310 q 505 560 444 463 q 676 728 565 657 q 615 767 647 753 q 379 482 469 653 q 296 190 296 324 q 335 60 296 107 q 444 14 375 14 q 754 196 590 14 q 925 578 925 386 m 917 1029 q 890 967 917 1003 q 818 922 857 922 q 742 945 793 922 q 671 968 690 968 q 622 939 644 968 q 594 910 600 910 q 583 918 583 910 q 611 981 583 943 q 683 1025 644 1025 q 758 1002 707 1025 q 829 979 810 979 q 878 1008 856 979 q 906 1038 900 1038 q 917 1029 917 1038 z "},"":{"ha":1118,"x_min":43,"x_max":1301,"o":"m 1301 747 q 1247 620 1301 675 q 1125 565 1192 565 q 1067 585 1089 565 q 1046 642 1046 606 q 1097 739 1046 693 q 1169 779 1142 779 q 1176 775 1172 779 q 1105 710 1136 747 q 1074 632 1074 674 q 1089 593 1074 607 q 1126 579 1104 579 q 1233 631 1181 579 q 1285 747 1285 683 q 1257 824 1285 796 q 1179 851 1229 851 q 993 740 1082 851 q 913 560 913 640 q 923 520 913 535 q 947 506 933 506 l 990 507 q 1026 501 1010 507 q 1042 483 1042 494 q 1006 465 1042 465 q 970 470 989 465 q 932 481 951 475 q 749 389 839 481 q 650 163 650 289 q 688 54 650 94 q 789 14 725 14 q 980 105 889 14 q 1071 281 1071 196 q 1051 340 1071 318 q 1000 363 1032 363 q 867 274 925 363 q 779 78 822 175 q 768 99 768 78 q 835 302 768 217 q 983 388 903 388 q 1062 359 1032 388 q 1092 283 1092 331 q 999 97 1092 189 q 768 -6 894 -6 q 621 44 678 -6 q 564 175 564 94 l 567 196 q 397 49 488 104 q 228 -6 307 -6 q 94 55 144 -6 q 43 219 43 115 q 251 648 43 429 q 672 867 460 867 q 785 831 743 867 q 828 740 828 796 q 815 689 828 689 q 810 700 810 694 l 813 733 q 776 818 813 786 q 679 850 740 850 q 400 724 539 850 q 197 447 278 613 q 115 156 115 281 q 148 52 115 90 q 236 14 181 14 q 558 214 388 14 q 735 613 735 419 q 710 706 735 672 q 644 740 685 740 q 497 660 581 740 q 353 446 407 572 q 325 366 336 408 q 310 324 314 324 q 303 340 303 333 q 409 621 303 476 q 631 765 515 765 q 719 726 686 765 q 751 615 751 686 q 728 475 751 549 q 700 404 703 411 q 781 454 740 435 q 913 497 833 479 q 856 596 856 538 q 968 792 856 706 q 1172 869 1071 869 q 1267 838 1232 869 q 1301 747 1301 806 z "},"":{"ha":583,"x_min":-10,"x_max":596,"o":"m 596 165 q 521 78 596 147 q 364 -6 432 -6 q 265 104 285 -6 q 94 -6 169 -6 q 14 118 14 -6 q 24 175 14 147 q -3 151 6 151 l -10 156 q 76 254 -10 178 q 251 343 176 343 q 335 264 326 343 q 506 343 425 343 q 553 326 536 343 q 571 286 571 310 q 507 190 571 236 q 329 117 443 143 l 324 68 q 372 14 324 14 q 479 64 419 14 q 589 172 533 118 q 594 169 592 172 q 596 165 594 167 m 532 303 q 510 326 532 326 q 425 278 475 326 q 335 136 367 221 q 481 211 422 156 q 532 303 532 260 m 301 261 q 257 322 301 322 q 131 222 197 322 q 65 56 65 121 q 103 14 65 14 q 225 94 154 14 q 301 261 301 181 z "},"":{"ha":607,"x_min":10,"x_max":617,"o":"m 617 196 l 592 156 l 10 156 l 33 196 l 617 196 z "},"":{"ha":1215,"x_min":-12,"x_max":1226,"o":"m 1226 196 l 1203 156 l -12 156 l 13 196 l 1226 196 z "},"":{"ha":385,"x_min":239,"x_max":557,"o":"m 557 875 q 499 821 526 847 q 464 768 472 794 q 451 694 456 717 q 413 654 443 654 q 378 690 378 654 q 456 815 378 740 q 546 883 526 883 q 557 875 557 883 m 419 875 q 362 821 389 847 q 326 768 335 794 q 315 694 319 717 q 276 654 307 654 q 239 690 239 654 q 317 814 239 738 q 407 883 388 883 q 419 875 419 883 z "},"":{"ha":385,"x_min":214,"x_max":531,"o":"m 531 847 q 453 722 531 797 q 363 654 382 654 q 353 663 353 654 q 408 714 382 689 q 444 768 435 739 q 459 851 453 819 q 496 882 465 882 q 531 847 531 882 m 393 847 q 315 722 393 797 q 226 654 244 654 q 214 663 214 654 q 269 714 243 689 q 306 768 296 739 q 320 851 314 819 q 357 882 326 882 q 393 847 393 882 z "},"":{"ha":247,"x_min":239,"x_max":419,"o":"m 419 875 q 362 821 389 847 q 326 768 335 794 q 315 694 319 717 q 276 654 307 654 q 239 690 239 654 q 318 814 239 738 q 407 883 390 883 q 419 875 419 883 z "},"":{"ha":247,"x_min":81,"x_max":260,"o":"m 260 579 q 182 454 260 529 q 92 386 111 386 q 81 396 81 386 q 137 447 110 421 q 172 501 164 474 q 187 584 181 553 q 224 615 193 615 q 260 579 260 615 z "},"":{"ha":694,"x_min":58,"x_max":649,"o":"m 464 415 q 449 378 464 396 q 414 360 433 360 q 389 369 399 360 q 379 396 379 379 q 394 433 379 415 q 429 451 410 451 q 454 442 444 451 q 464 415 464 432 m 649 315 l 631 268 l 58 268 l 76 315 l 649 315 m 322 178 q 308 140 322 157 q 274 122 293 122 q 249 132 258 122 q 239 157 239 142 q 253 195 239 178 q 289 213 268 213 q 322 178 322 213 z "},"":{"ha":518,"x_min":-67,"x_max":544,"o":"m 531 165 q 311 -31 531 104 q 135 -294 221 -200 q -4 -382 54 -382 q -67 -322 -67 -382 q 257 -24 -67 -211 l 353 161 q 150 4 217 4 q 114 24 129 4 q 99 75 99 43 q 156 207 99 129 q 213 307 213 285 q 194 324 213 324 q 111 267 168 324 q -3 150 54 210 l -8 156 q 19 194 -8 163 l 58 238 q 119 300 103 285 q 204 343 167 343 q 257 279 257 343 q 199 151 257 238 q 140 44 140 65 q 146 28 140 35 q 160 21 151 21 q 267 94 192 21 q 447 332 361 186 l 521 336 q 328 -3 408 153 q 446 90 396 42 q 525 172 485 131 l 531 165 m 244 -49 q 35 -203 108 -126 q -33 -324 -33 -272 q 1 -365 -33 -365 q 244 -49 83 -365 m 544 521 q 531 485 544 500 q 494 469 517 469 q 456 510 456 469 q 471 546 456 531 q 507 561 486 561 q 544 521 544 561 m 347 521 q 333 485 347 500 q 297 469 319 469 q 258 510 258 469 q 273 547 258 532 q 308 561 288 561 q 347 521 347 561 z "},"":{"ha":849,"x_min":107,"x_max":1519,"o":"m 1519 869 q 1499 848 1519 857 q 1454 831 1478 839 q 1200 506 1332 772 q 943 65 1035 169 q 443 -156 750 -156 q 198 -90 289 -156 q 107 85 107 -24 q 204 290 107 204 q 446 376 301 376 q 613 326 551 376 q 675 193 675 275 q 601 43 675 103 q 417 -17 528 -17 q 331 6 331 -17 l 338 10 q 357 8 349 10 q 417 1 400 1 q 583 53 515 1 q 650 183 650 106 q 601 290 650 250 q 461 329 551 329 q 238 249 336 329 q 140 72 140 169 q 221 -78 140 -18 q 435 -139 301 -139 q 793 1 647 -139 q 1074 438 922 125 q 774 231 875 231 q 708 315 708 231 q 761 472 708 382 q 863 628 811 547 q 915 756 915 708 q 881 827 915 801 q 785 853 847 853 q 524 758 649 853 q 400 572 400 664 q 424 510 400 533 q 493 488 449 488 q 640 542 565 488 q 754 679 715 596 q 781 752 768 710 q 797 794 793 794 q 800 788 800 790 q 804 769 804 776 q 724 547 804 642 q 514 446 638 446 q 416 477 453 446 q 379 560 379 508 q 509 769 379 668 q 786 869 639 869 q 910 825 865 869 q 954 704 954 781 q 901 544 954 639 q 804 393 883 513 q 750 283 750 311 q 782 253 750 253 q 1018 415 868 253 q 1278 717 1147 565 q 1504 879 1425 879 q 1519 869 1519 879 m 1056 975 q 1011 929 1056 929 q 978 965 978 929 q 990 997 978 985 q 1022 1010 1003 1010 q 1056 975 1056 1010 m 883 975 q 839 929 883 929 q 806 965 806 929 q 818 997 806 985 q 849 1010 831 1010 q 883 975 883 1010 z "},"":{"ha":203,"x_min":-208,"x_max":410,"o":"m 410 586 l -175 -15 l -208 -15 l 378 586 l 410 586 z "},"":{"ha":736,"x_min":56,"x_max":682,"o":"m 682 247 l 646 211 l 525 333 q 368 279 456 279 q 213 333 282 279 l 90 211 l 56 247 l 179 368 q 124 522 124 436 q 179 678 124 610 l 56 799 l 90 833 l 213 711 q 368 767 282 767 q 525 711 456 767 l 646 833 l 682 799 l 558 678 q 614 522 614 610 q 558 368 614 436 l 682 247 m 567 524 q 510 663 567 606 q 369 719 453 719 q 229 663 286 719 q 172 524 172 606 q 230 385 172 443 q 369 328 288 328 q 510 385 453 328 q 567 524 567 442 z "},"":{"ha":258,"x_min":71,"x_max":269,"o":"m 269 306 q 257 286 269 299 l 125 175 l 165 49 l 169 33 q 160 21 169 21 q 140 39 149 21 l 71 183 l 239 307 q 257 315 251 315 q 269 306 269 315 z "},"":{"ha":258,"x_min":-14,"x_max":186,"o":"m 186 154 l 17 29 q -1 21 6 21 q -14 32 -14 21 q 0 50 -14 36 l 131 161 l 92 288 l 88 303 q 97 315 88 315 q 117 297 107 315 l 186 154 z "},"":{"ha":535,"x_min":-208,"x_max":608,"o":"m 608 546 q 594 509 608 526 q 560 492 579 492 q 526 526 526 492 q 542 563 526 546 q 576 581 558 581 q 608 546 608 581 m 575 700 q 203 306 575 574 l 61 17 q 154 58 103 17 q 264 169 192 89 q 413 331 357 274 l 500 336 l 381 147 q 333 68 344 90 q 321 33 321 46 q 342 11 321 11 q 429 61 375 11 q 539 172 483 117 q 544 169 542 172 q 547 165 546 167 q 469 76 547 151 q 346 -6 385 -6 q 296 15 315 -6 q 276 71 276 36 q 318 176 276 108 q 375 265 339 211 q 190 67 282 165 q 44 -12 107 -12 l -122 -346 l -208 -356 l -15 0 q -35 33 -35 15 q -24 62 -35 50 q 3 74 -12 74 l 22 68 l 146 299 q 58 214 97 256 q -4 150 0 150 l -8 156 q 38 217 -8 165 q 182 361 89 274 q 518 757 389 757 q 558 740 542 757 q 575 700 575 724 m 547 706 q 515 740 547 740 q 224 344 418 740 q 472 564 381 450 q 547 706 547 657 z "},"":{"ha":535,"x_min":-208,"x_max":750,"o":"m 750 739 l 375 147 q 315 33 315 51 q 338 11 315 11 q 426 61 371 11 q 539 172 482 117 q 544 169 542 172 q 547 165 546 167 q 468 75 547 150 q 343 -6 383 -6 q 295 15 314 -6 q 276 71 276 36 q 318 176 276 108 q 375 265 339 211 q 245 122 310 192 q 140 22 181 51 q 44 -12 92 -12 l -122 -346 l -208 -356 l -15 0 q -35 33 -35 15 q -24 62 -35 50 q 3 74 -12 74 l 22 68 l 146 299 q 58 214 97 256 q -4 150 0 150 l -8 156 q 38 217 -8 165 q 182 361 89 274 q 518 757 389 757 q 558 740 542 757 q 575 700 575 724 q 203 306 575 574 l 64 17 q 208 106 106 8 q 410 331 335 225 l 671 728 l 750 739 m 547 706 q 515 740 547 740 q 224 344 418 740 q 472 564 381 450 q 547 706 547 657 z "},"":{"ha":681,"x_min":24,"x_max":763,"o":"m 763 635 q 710 600 763 600 q 642 607 682 600 q 536 635 601 614 q 475 489 493 532 q 435 371 444 414 q 358 272 403 340 q 269 133 314 203 q 367 156 314 146 q 449 167 419 167 q 490 136 490 167 q 425 99 490 99 q 342 106 389 99 q 260 118 296 113 q 207 -23 240 71 q 140 -117 174 -117 q 113 -107 125 -117 q 100 -86 100 -97 q 160 15 100 -60 q 238 118 213 82 q 143 105 189 111 q 68 99 97 99 q 24 132 24 99 q 75 167 24 167 q 144 160 103 167 q 249 133 186 153 q 313 282 281 207 q 351 399 340 350 q 443 517 403 458 q 517 635 479 568 q 408 608 460 617 q 336 600 357 600 q 294 632 294 600 q 360 667 294 667 q 425 662 385 667 q 525 649 465 657 q 578 790 544 696 q 644 883 611 883 q 673 874 661 883 q 685 853 685 865 q 644 776 685 828 q 547 650 557 663 q 644 663 599 657 q 717 668 690 668 q 753 662 743 668 q 763 635 763 656 z "},"":{"ha":278,"x_min":117,"x_max":206,"o":"m 206 289 q 193 258 206 271 q 161 246 181 246 q 129 258 142 246 q 117 289 117 271 q 161 333 117 333 q 192 321 178 333 q 206 289 206 308 z "},"":{"ha":247,"x_min":-43,"x_max":136,"o":"m 136 49 q 58 -75 136 1 q -32 -144 -12 -144 q -43 -136 -43 -144 q 13 -81 -14 -108 q 49 -29 40 -54 q 63 53 57 22 q 100 85 69 85 q 136 49 136 85 z "},"":{"ha":385,"x_min":-26,"x_max":289,"o":"m 289 49 q 211 -76 289 -1 q 121 -144 140 -144 q 111 -136 111 -144 q 167 -81 140 -108 q 203 -29 194 -54 q 217 53 211 22 q 254 85 224 85 q 289 49 289 85 m 151 49 q 74 -75 151 0 q -15 -144 3 -144 q -26 -136 -26 -144 q 28 -81 1 -108 q 64 -29 56 -54 q 78 53 72 22 q 115 85 85 85 q 151 49 151 85 z "},"":{"ha":983,"x_min":6,"x_max":943,"o":"m 943 219 q 884 69 943 143 q 767 -6 825 -6 q 712 19 733 -6 q 690 83 690 43 q 751 224 690 157 q 878 290 813 290 q 943 219 943 290 m 639 219 q 580 69 639 143 q 463 -6 521 -6 q 406 19 428 -6 q 385 83 385 43 q 447 224 385 157 q 575 290 510 290 q 639 219 639 290 m 674 583 q 642 540 674 571 l 82 -29 q 56 -56 69 -42 q 22 -71 42 -71 q 8 -67 15 -71 q 6 -62 7 -67 q 15 -44 6 -56 q 44 -15 33 -26 l 585 513 q 463 475 514 475 q 367 506 400 475 q 301 352 356 415 q 193 289 246 289 q 138 314 160 289 q 115 379 115 339 q 178 519 115 453 q 304 586 240 586 q 369 540 342 586 q 461 494 397 494 q 565 524 513 494 q 665 588 615 556 q 674 583 669 588 m 922 221 q 881 269 922 269 q 783 191 838 269 q 728 60 728 113 q 767 14 728 14 q 868 85 814 14 q 922 221 922 156 m 346 514 q 306 564 346 564 q 207 483 261 564 q 153 353 153 403 q 192 308 153 308 q 292 378 239 308 q 346 514 346 449 m 617 221 q 576 269 617 269 q 480 191 536 269 q 424 60 424 113 q 463 14 424 14 q 564 85 511 14 q 617 221 617 156 z "},"":{"ha":1065,"x_min":178,"x_max":1747,"o":"m 1747 875 q 1488 499 1604 706 q 1289 89 1389 326 q 1390 114 1347 89 q 1458 169 1424 142 l 1463 165 q 1415 110 1463 142 q 1281 71 1358 71 l 1250 7 l 1153 -6 l 1186 78 q 1065 105 1122 83 q 950 164 1008 126 q 517 -6 751 -6 q 268 63 358 -6 q 178 249 178 132 q 276 445 178 364 q 503 526 374 526 q 676 476 611 526 q 740 349 740 425 q 670 195 740 254 q 486 136 600 136 q 425 149 425 136 q 436 154 432 154 l 481 151 q 653 203 589 151 q 717 332 717 254 q 666 437 717 399 q 526 475 615 475 q 303 398 396 475 q 210 219 210 321 q 292 69 210 126 q 514 11 374 11 q 935 176 749 11 q 779 450 779 301 q 833 588 779 536 q 968 639 888 639 q 1096 603 1036 639 q 1219 468 1168 560 q 1358 613 1303 558 q 1528 754 1449 699 q 1747 875 1628 824 m 1672 819 q 1228 451 1479 739 q 1251 294 1251 381 q 1249 250 1251 275 q 1242 193 1247 225 q 1442 536 1328 374 q 1672 819 1538 671 m 1206 456 q 1000 603 1132 603 q 876 547 928 603 q 825 410 825 492 q 950 189 825 285 q 1115 356 1024 254 q 1206 456 1176 424 m 1235 292 q 1215 438 1235 371 q 965 179 1090 308 q 1194 94 1060 107 q 1235 292 1235 196 m 1479 892 q 1469 879 1479 879 q 1444 903 1460 879 q 1401 986 1428 928 l 1260 911 q 1189 881 1201 881 q 1174 892 1174 881 q 1193 913 1174 900 q 1254 951 1228 935 q 1350 1017 1301 981 q 1419 1065 1415 1065 q 1436 1051 1432 1065 l 1476 907 l 1479 892 z "},"":{"ha":607,"x_min":138,"x_max":871,"o":"m 871 814 q 775 681 871 756 q 499 547 665 594 q 523 513 507 522 q 569 504 539 504 l 604 507 q 636 488 636 507 q 607 469 636 469 q 563 476 589 469 q 532 482 536 482 q 356 390 449 482 q 250 160 250 286 q 282 62 250 101 q 364 15 314 22 l 363 51 q 435 294 363 197 q 592 385 501 385 q 663 358 636 385 q 690 286 690 331 q 607 96 690 181 q 389 -6 524 11 q 399 -68 393 -44 q 408 -110 404 -92 q 407 -115 408 -112 q 404 -118 406 -117 q 368 -6 389 -118 q 217 41 269 -6 q 165 171 165 88 q 252 368 165 282 q 501 496 339 454 q 450 539 468 513 q 372 532 404 532 q 201 580 264 532 q 138 704 138 628 q 205 841 138 786 q 378 896 272 896 q 594 819 494 896 q 703 858 651 846 q 790 871 754 871 q 871 814 871 871 m 851 814 q 797 856 851 856 q 725 840 765 856 q 631 786 685 824 q 681 717 681 733 l 678 711 q 650 739 672 711 q 617 775 638 754 q 526 688 558 740 q 494 581 494 636 q 757 688 650 608 q 851 814 851 757 m 576 808 q 378 879 486 879 q 228 836 286 879 q 169 729 169 793 q 233 619 169 665 q 385 572 296 572 l 429 576 q 421 615 421 597 q 460 714 421 664 q 576 808 499 764 m 674 281 q 606 361 674 361 q 465 267 536 361 q 388 42 388 164 l 388 14 q 590 106 501 14 q 674 281 674 192 m 821 899 q 811 886 821 886 q 785 910 801 886 q 743 993 769 935 l 601 918 q 531 888 543 888 q 515 899 515 888 q 535 919 515 907 q 596 958 569 942 q 692 1024 643 988 q 761 1072 757 1072 q 778 1058 774 1072 l 818 914 l 821 899 z "},"":{"ha":1065,"x_min":178,"x_max":1747,"o":"m 1747 875 q 1488 499 1604 706 q 1289 89 1389 326 q 1390 114 1347 89 q 1458 169 1424 142 l 1463 165 q 1415 110 1463 142 q 1281 71 1358 71 l 1250 7 l 1153 -6 l 1186 78 q 1065 105 1122 83 q 950 164 1008 126 q 517 -6 751 -6 q 268 63 358 -6 q 178 249 178 132 q 276 445 178 364 q 503 526 374 526 q 676 476 611 526 q 740 349 740 425 q 670 195 740 254 q 486 136 600 136 q 425 149 425 136 q 436 154 432 154 l 481 151 q 653 203 589 151 q 717 332 717 254 q 666 437 717 399 q 526 475 615 475 q 303 398 396 475 q 210 219 210 321 q 292 69 210 126 q 514 11 374 11 q 935 176 749 11 q 779 450 779 301 q 833 588 779 536 q 968 639 888 639 q 1096 603 1036 639 q 1219 468 1168 560 q 1358 613 1303 558 q 1528 754 1449 699 q 1747 875 1628 824 m 1672 819 q 1228 451 1479 739 q 1251 294 1251 381 q 1249 250 1251 275 q 1242 193 1247 225 q 1442 536 1328 374 q 1672 819 1538 671 m 1206 456 q 1000 603 1132 603 q 876 547 928 603 q 825 410 825 492 q 950 189 825 285 q 1115 356 1024 254 q 1206 456 1176 424 m 1235 292 q 1215 438 1235 371 q 965 179 1090 308 q 1194 94 1060 107 q 1235 292 1235 196 m 1517 1035 q 1425 918 1517 979 q 1317 865 1346 865 q 1307 874 1307 865 q 1354 911 1307 875 q 1406 965 1383 932 q 1438 1033 1410 971 q 1481 1071 1454 1071 q 1517 1035 1517 1071 z "},"":{"ha":607,"x_min":138,"x_max":871,"o":"m 871 814 q 775 681 871 756 q 499 547 665 594 q 523 513 507 522 q 569 504 539 504 l 604 507 q 636 488 636 507 q 607 469 636 469 q 563 476 589 469 q 532 482 536 482 q 356 390 449 482 q 250 160 250 286 q 282 62 250 101 q 364 15 314 22 l 363 51 q 435 294 363 197 q 592 385 501 385 q 663 358 636 385 q 690 286 690 331 q 607 96 690 181 q 389 -6 524 11 q 399 -68 393 -44 q 408 -110 404 -92 q 407 -115 408 -112 q 404 -118 406 -117 q 368 -6 389 -118 q 217 41 269 -6 q 165 171 165 88 q 252 368 165 282 q 501 496 339 454 q 450 539 468 513 q 372 532 404 532 q 201 580 264 532 q 138 704 138 628 q 205 841 138 786 q 378 896 272 896 q 594 819 494 896 q 703 858 651 846 q 790 871 754 871 q 871 814 871 871 m 851 814 q 797 856 851 856 q 725 840 765 856 q 631 786 685 824 q 681 717 681 733 l 678 711 q 650 739 672 711 q 617 775 638 754 q 526 688 558 740 q 494 581 494 636 q 757 688 650 608 q 851 814 851 757 m 576 808 q 378 879 486 879 q 228 836 286 879 q 169 729 169 793 q 233 619 169 665 q 385 572 296 572 l 429 576 q 421 615 421 597 q 460 714 421 664 q 576 808 499 764 m 674 281 q 606 361 674 361 q 465 267 536 361 q 388 42 388 164 l 388 14 q 590 106 501 14 q 674 281 674 192 m 863 976 q 849 940 863 956 q 813 925 835 925 q 774 965 774 925 q 789 1001 774 986 q 825 1017 804 1017 q 863 976 863 1017 m 665 976 q 651 940 665 956 q 615 925 638 925 q 576 965 576 925 q 591 1002 576 988 q 626 1017 606 1017 q 665 976 665 1017 z "},"":{"ha":607,"x_min":138,"x_max":871,"o":"m 871 814 q 775 681 871 756 q 499 547 665 594 q 523 513 507 522 q 569 504 539 504 l 604 507 q 636 488 636 507 q 607 469 636 469 q 563 476 589 469 q 532 482 536 482 q 356 390 449 482 q 250 160 250 286 q 282 62 250 101 q 364 15 314 22 l 363 51 q 435 294 363 197 q 592 385 501 385 q 663 358 636 385 q 690 286 690 331 q 607 96 690 181 q 389 -6 524 11 q 399 -68 393 -44 q 408 -110 404 -92 q 407 -115 408 -112 q 404 -118 406 -117 q 368 -6 389 -118 q 217 41 269 -6 q 165 171 165 88 q 252 368 165 282 q 501 496 339 454 q 450 539 468 513 q 372 532 404 532 q 201 580 264 532 q 138 704 138 628 q 205 841 138 786 q 378 896 272 896 q 594 819 494 896 q 703 858 651 846 q 790 871 754 871 q 871 814 871 871 m 851 814 q 797 856 851 856 q 725 840 765 856 q 631 786 685 824 q 681 717 681 733 l 678 711 q 650 739 672 711 q 617 775 638 754 q 526 688 558 740 q 494 581 494 636 q 757 688 650 608 q 851 814 851 757 m 576 808 q 378 879 486 879 q 228 836 286 879 q 169 729 169 793 q 233 619 169 665 q 385 572 296 572 l 429 576 q 421 615 421 597 q 460 714 421 664 q 576 808 499 764 m 674 281 q 606 361 674 361 q 465 267 536 361 q 388 42 388 164 l 388 14 q 590 106 501 14 q 674 281 674 192 m 728 893 l 718 885 q 647 945 697 885 q 597 1047 597 1006 q 636 1097 597 1097 q 663 1085 656 1097 q 671 1035 671 1074 q 688 951 671 986 q 728 893 707 922 z "},"":{"ha":675,"x_min":160,"x_max":1429,"o":"m 1429 847 q 1385 829 1407 838 q 1260 729 1322 801 q 1071 418 1165 619 q 1161 454 1122 426 q 1229 513 1194 483 q 1186 451 1232 489 q 1057 392 1131 406 q 818 97 965 199 q 485 -4 671 -4 q 249 67 338 -4 q 160 246 160 138 q 256 444 160 360 q 499 528 353 528 q 672 473 606 528 q 738 333 738 418 q 665 190 738 249 q 479 132 593 132 q 372 149 419 132 q 325 179 325 165 l 328 183 q 399 158 360 169 q 476 147 438 147 q 649 201 581 147 q 718 324 718 254 q 668 435 718 394 q 528 476 618 476 q 294 402 388 476 q 201 225 201 328 q 276 74 201 133 q 479 14 351 14 q 749 106 632 14 q 964 392 865 197 q 863 436 897 400 q 828 531 828 472 q 1025 764 828 668 q 1408 850 1203 850 q 1424 849 1417 850 q 1429 847 1425 849 m 1363 835 q 1007 724 1138 813 q 883 524 883 639 q 908 447 883 475 q 976 418 932 418 q 1164 685 1075 588 q 1363 835 1258 789 m 1135 1042 q 1043 925 1135 986 q 935 872 964 872 q 925 881 925 872 q 972 918 925 882 q 1024 972 1001 939 q 1056 1040 1028 978 q 1099 1078 1072 1078 q 1135 1042 1135 1078 z "},"":{"ha":675,"x_min":160,"x_max":1429,"o":"m 1429 847 q 1385 829 1407 838 q 1260 729 1322 801 q 1071 418 1165 619 q 1161 454 1122 426 q 1229 513 1194 483 q 1186 451 1232 489 q 1057 392 1131 406 q 818 97 965 199 q 485 -4 671 -4 q 249 67 338 -4 q 160 246 160 138 q 256 444 160 360 q 499 528 353 528 q 672 473 606 528 q 738 333 738 418 q 665 190 738 249 q 479 132 593 132 q 372 149 419 132 q 325 179 325 165 l 328 183 q 399 158 360 169 q 476 147 438 147 q 649 201 581 147 q 718 324 718 254 q 668 435 718 394 q 528 476 618 476 q 294 402 388 476 q 201 225 201 328 q 276 74 201 133 q 479 14 351 14 q 749 106 632 14 q 964 392 865 197 q 863 436 897 400 q 828 531 828 472 q 1025 764 828 668 q 1408 850 1203 850 q 1424 849 1417 850 q 1429 847 1425 849 m 1363 835 q 1007 724 1138 813 q 883 524 883 639 q 908 447 883 475 q 976 418 932 418 q 1164 685 1075 588 q 1363 835 1258 789 m 1153 889 q 1143 876 1153 876 q 1117 901 1133 876 q 1075 983 1101 925 l 933 908 q 863 878 875 878 q 847 889 847 878 q 867 910 847 897 q 928 949 901 932 q 1024 1014 975 978 q 1093 1063 1089 1063 q 1110 1049 1106 1063 l 1150 904 l 1153 889 z "},"":{"ha":675,"x_min":160,"x_max":1429,"o":"m 1429 847 q 1385 829 1407 838 q 1260 729 1322 801 q 1071 418 1165 619 q 1161 454 1122 426 q 1229 513 1194 483 q 1186 451 1232 489 q 1057 392 1131 406 q 818 97 965 199 q 485 -4 671 -4 q 249 67 338 -4 q 160 246 160 138 q 256 444 160 360 q 499 528 353 528 q 672 473 606 528 q 738 333 738 418 q 665 190 738 249 q 479 132 593 132 q 372 149 419 132 q 325 179 325 165 l 328 183 q 399 158 360 169 q 476 147 438 147 q 649 201 581 147 q 718 324 718 254 q 668 435 718 394 q 528 476 618 476 q 294 402 388 476 q 201 225 201 328 q 276 74 201 133 q 479 14 351 14 q 749 106 632 14 q 964 392 865 197 q 863 436 897 400 q 828 531 828 472 q 1025 764 828 668 q 1408 850 1203 850 q 1424 849 1417 850 q 1429 847 1425 849 m 1363 835 q 1007 724 1138 813 q 883 524 883 639 q 908 447 883 475 q 976 418 932 418 q 1164 685 1075 588 q 1363 835 1258 789 m 1154 978 q 1140 942 1154 957 q 1104 926 1126 926 q 1065 967 1065 926 q 1081 1003 1065 988 q 1117 1018 1096 1018 q 1154 978 1154 1018 m 957 978 q 943 942 957 957 q 907 926 929 926 q 868 967 868 926 q 883 1003 868 989 q 918 1018 897 1018 q 957 978 957 1018 z "},"":{"ha":675,"x_min":160,"x_max":1429,"o":"m 1429 847 q 1385 829 1407 838 q 1260 729 1322 801 q 1071 418 1165 619 q 1161 454 1122 426 q 1229 513 1194 483 q 1186 451 1232 489 q 1057 392 1131 406 q 818 97 965 199 q 485 -4 671 -4 q 249 67 338 -4 q 160 246 160 138 q 256 444 160 360 q 499 528 353 528 q 672 473 606 528 q 738 333 738 418 q 665 190 738 249 q 479 132 593 132 q 372 149 419 132 q 325 179 325 165 l 328 183 q 399 158 360 169 q 476 147 438 147 q 649 201 581 147 q 718 324 718 254 q 668 435 718 394 q 528 476 618 476 q 294 402 388 476 q 201 225 201 328 q 276 74 201 133 q 479 14 351 14 q 749 106 632 14 q 964 392 865 197 q 863 436 897 400 q 828 531 828 472 q 1025 764 828 668 q 1408 850 1203 850 q 1424 849 1417 850 q 1429 847 1425 849 m 1363 835 q 1007 724 1138 813 q 883 524 883 639 q 908 447 883 475 q 976 418 932 418 q 1164 685 1075 588 q 1363 835 1258 789 m 1003 882 l 993 874 q 922 934 972 874 q 872 1036 872 994 q 911 1086 872 1086 q 938 1074 931 1086 q 946 1024 946 1063 q 963 940 946 975 q 1003 882 982 911 z "},"":{"ha":679,"x_min":132,"x_max":1004,"o":"m 1004 735 q 992 689 1004 689 q 985 700 985 694 l 988 731 q 951 825 988 792 q 847 858 915 858 q 635 778 744 858 q 663 760 649 768 q 693 738 676 751 q 785 761 749 761 q 900 711 858 761 q 942 569 942 661 q 766 180 942 367 q 419 -7 590 -7 q 275 58 329 -7 q 221 232 221 122 q 313 513 221 368 q 579 782 406 658 q 535 790 561 786 q 493 794 508 794 q 291 729 379 794 q 164 550 203 664 q 148 483 153 519 q 138 446 143 446 q 132 461 132 456 q 233 701 132 597 q 489 811 340 811 q 539 807 515 811 q 596 794 563 803 q 842 878 742 878 q 960 840 917 878 q 1004 735 1004 801 m 753 550 q 690 717 753 656 q 524 557 585 654 q 463 372 463 460 q 490 292 463 324 q 557 261 517 261 q 691 349 629 261 q 753 550 753 438 m 925 578 q 888 698 925 651 q 793 744 851 744 q 710 724 751 744 q 774 627 751 676 q 797 513 797 578 q 718 310 797 394 q 567 233 646 233 q 478 272 513 233 q 444 374 444 310 q 505 560 444 463 q 676 728 565 657 q 615 767 647 753 q 379 482 469 653 q 296 190 296 324 q 335 60 296 107 q 444 14 375 14 q 754 196 590 14 q 925 578 925 386 m 865 1056 q 774 939 865 1000 q 665 886 694 886 q 656 894 656 886 q 703 932 656 896 q 754 986 732 953 q 786 1054 758 992 q 829 1092 803 1092 q 865 1056 865 1092 z "},"":{"ha":679,"x_min":132,"x_max":1004,"o":"m 1004 735 q 992 689 1004 689 q 985 700 985 694 l 988 731 q 951 825 988 792 q 847 858 915 858 q 635 778 744 858 q 663 760 649 768 q 693 738 676 751 q 785 761 749 761 q 900 711 858 761 q 942 569 942 661 q 766 180 942 367 q 419 -7 590 -7 q 275 58 329 -7 q 221 232 221 122 q 313 513 221 368 q 579 782 406 658 q 535 790 561 786 q 493 794 508 794 q 291 729 379 794 q 164 550 203 664 q 148 483 153 519 q 138 446 143 446 q 132 461 132 456 q 233 701 132 597 q 489 811 340 811 q 539 807 515 811 q 596 794 563 803 q 842 878 742 878 q 960 840 917 878 q 1004 735 1004 801 m 753 550 q 690 717 753 656 q 524 557 585 654 q 463 372 463 460 q 490 292 463 324 q 557 261 517 261 q 691 349 629 261 q 753 550 753 438 m 925 578 q 888 698 925 651 q 793 744 851 744 q 710 724 751 744 q 774 627 751 676 q 797 513 797 578 q 718 310 797 394 q 567 233 646 233 q 478 272 513 233 q 444 374 444 310 q 505 560 444 463 q 676 728 565 657 q 615 767 647 753 q 379 482 469 653 q 296 190 296 324 q 335 60 296 107 q 444 14 375 14 q 754 196 590 14 q 925 578 925 386 m 863 897 q 853 885 863 885 q 827 909 843 885 q 785 992 811 933 l 643 917 q 572 886 585 886 q 557 897 557 886 q 576 918 557 906 q 638 957 611 940 q 733 1022 685 986 q 803 1071 799 1071 q 819 1057 815 1071 l 860 913 l 863 897 z "},"":{"ha":679,"x_min":132,"x_max":1004,"o":"m 1004 735 q 992 689 1004 689 q 985 700 985 694 l 988 731 q 951 825 988 792 q 847 858 915 858 q 635 778 744 858 q 663 760 649 768 q 693 738 676 751 q 785 761 749 761 q 900 711 858 761 q 942 569 942 661 q 766 180 942 367 q 419 -7 590 -7 q 275 58 329 -7 q 221 232 221 122 q 313 513 221 368 q 579 782 406 658 q 535 790 561 786 q 493 794 508 794 q 291 729 379 794 q 164 550 203 664 q 148 483 153 519 q 138 446 143 446 q 132 461 132 456 q 233 701 132 597 q 489 811 340 811 q 539 807 515 811 q 596 794 563 803 q 842 878 742 878 q 960 840 917 878 q 1004 735 1004 801 m 753 550 q 690 717 753 656 q 524 557 585 654 q 463 372 463 460 q 490 292 463 324 q 557 261 517 261 q 691 349 629 261 q 753 550 753 438 m 925 578 q 888 698 925 651 q 793 744 851 744 q 710 724 751 744 q 774 627 751 676 q 797 513 797 578 q 718 310 797 394 q 567 233 646 233 q 478 272 513 233 q 444 374 444 310 q 505 560 444 463 q 676 728 565 657 q 615 767 647 753 q 379 482 469 653 q 296 190 296 324 q 335 60 296 107 q 444 14 375 14 q 754 196 590 14 q 925 578 925 386 m 796 892 l 786 883 q 715 944 765 883 q 665 1046 665 1004 q 704 1096 665 1096 q 731 1084 724 1096 q 739 1033 739 1072 q 756 950 739 985 q 796 892 775 921 z "},"":{"ha":800,"x_min":74,"x_max":1321,"o":"m 1321 850 l 910 211 q 864 128 885 172 q 838 50 838 71 q 861 22 838 22 q 981 97 907 22 q 1053 172 1017 135 l 1060 165 q 982 75 1060 146 q 854 -3 897 -3 q 797 86 797 -3 q 842 247 797 154 q 650 56 742 125 q 524 -6 569 -6 q 456 88 456 -6 q 488 214 456 146 q 575 361 513 268 l 729 594 q 777 683 761 643 q 793 747 793 722 q 665 844 793 844 l 613 840 q 664 713 664 799 q 574 492 664 593 q 354 385 478 385 q 263 418 296 385 q 229 507 229 451 q 318 693 229 600 q 567 843 414 794 q 482 860 522 860 q 285 790 383 860 q 131 599 188 719 q 89 453 100 532 q 81 428 86 428 q 74 446 74 438 q 201 739 74 603 q 486 875 329 875 q 593 851 542 875 q 635 858 617 857 q 675 860 654 860 q 836 700 836 860 q 804 571 836 640 q 714 419 779 518 l 575 207 q 517 108 536 147 q 499 51 499 69 q 536 18 499 18 q 697 118 590 18 q 958 443 824 238 l 1218 844 l 1321 850 m 629 744 q 586 833 629 803 q 339 692 433 785 q 250 514 250 603 q 338 422 250 422 q 535 525 440 422 q 629 744 629 628 m 938 1043 q 846 926 938 988 q 738 874 767 874 q 728 882 728 874 q 775 919 728 883 q 826 974 804 940 q 858 1042 831 979 q 901 1079 875 1079 q 938 1043 938 1079 z "},"":{"ha":800,"x_min":74,"x_max":1321,"o":"m 1321 850 l 910 211 q 864 128 885 172 q 838 50 838 71 q 861 22 838 22 q 981 97 907 22 q 1053 172 1017 135 l 1060 165 q 982 75 1060 146 q 854 -3 897 -3 q 797 86 797 -3 q 842 247 797 154 q 650 56 742 125 q 524 -6 569 -6 q 456 88 456 -6 q 488 214 456 146 q 575 361 513 268 l 729 594 q 777 683 761 643 q 793 747 793 722 q 665 844 793 844 l 613 840 q 664 713 664 799 q 574 492 664 593 q 354 385 478 385 q 263 418 296 385 q 229 507 229 451 q 318 693 229 600 q 567 843 414 794 q 482 860 522 860 q 285 790 383 860 q 131 599 188 719 q 89 453 100 532 q 81 428 86 428 q 74 446 74 438 q 201 739 74 603 q 486 875 329 875 q 593 851 542 875 q 635 858 617 857 q 675 860 654 860 q 836 700 836 860 q 804 571 836 640 q 714 419 779 518 l 575 207 q 517 108 536 147 q 499 51 499 69 q 536 18 499 18 q 697 118 590 18 q 958 443 824 238 l 1218 844 l 1321 850 m 629 744 q 586 833 629 803 q 339 692 433 785 q 250 514 250 603 q 338 422 250 422 q 535 525 440 422 q 629 744 629 628 m 944 900 q 935 888 944 888 q 909 912 925 888 q 867 994 893 936 l 725 919 q 654 889 667 889 q 639 900 639 889 q 658 921 639 908 q 719 960 693 943 q 815 1025 767 989 q 885 1074 881 1074 q 901 1060 897 1074 l 942 915 l 944 900 z "},"":{"ha":800,"x_min":74,"x_max":1321,"o":"m 1321 850 l 910 211 q 864 128 885 172 q 838 50 838 71 q 861 22 838 22 q 981 97 907 22 q 1053 172 1017 135 l 1060 165 q 982 75 1060 146 q 854 -3 897 -3 q 797 86 797 -3 q 842 247 797 154 q 650 56 742 125 q 524 -6 569 -6 q 456 88 456 -6 q 488 214 456 146 q 575 361 513 268 l 729 594 q 777 683 761 643 q 793 747 793 722 q 665 844 793 844 l 613 840 q 664 713 664 799 q 574 492 664 593 q 354 385 478 385 q 263 418 296 385 q 229 507 229 451 q 318 693 229 600 q 567 843 414 794 q 482 860 522 860 q 285 790 383 860 q 131 599 188 719 q 89 453 100 532 q 81 428 86 428 q 74 446 74 438 q 201 739 74 603 q 486 875 329 875 q 593 851 542 875 q 635 858 617 857 q 675 860 654 860 q 836 700 836 860 q 804 571 836 640 q 714 419 779 518 l 575 207 q 517 108 536 147 q 499 51 499 69 q 536 18 499 18 q 697 118 590 18 q 958 443 824 238 l 1218 844 l 1321 850 m 629 744 q 586 833 629 803 q 339 692 433 785 q 250 514 250 603 q 338 422 250 422 q 535 525 440 422 q 629 744 629 628 m 842 889 l 832 881 q 761 941 811 881 q 711 1043 711 1001 q 750 1093 711 1093 q 777 1081 769 1093 q 785 1031 785 1069 q 801 947 785 982 q 842 889 821 918 z "},"":{"ha":267,"x_min":-8,"x_max":279,"o":"m 279 165 q 204 76 279 150 q 75 -6 121 -6 q 10 71 10 -6 q 51 176 10 108 q 108 265 72 211 q 43 197 83 242 q -4 151 3 151 l -8 156 q 146 331 -8 169 l 233 336 l 94 119 q 65 68 76 92 q 53 33 53 44 q 74 11 53 11 q 163 61 108 11 q 272 172 217 117 l 279 165 z "},"":{"ha":694,"x_min":231,"x_max":536,"o":"m 536 404 q 526 392 536 392 q 501 416 517 392 q 458 499 485 440 l 317 424 q 246 393 258 393 q 231 404 231 393 q 250 425 231 413 q 311 464 285 447 q 407 529 358 493 q 476 578 472 578 q 493 564 489 578 l 533 419 l 536 404 z "},"":{"ha":694,"x_min":249,"x_max":582,"o":"m 582 535 q 556 472 582 508 q 483 428 522 428 q 407 451 458 428 q 336 474 356 474 q 288 444 310 474 q 260 415 265 415 q 249 424 249 415 q 276 486 249 449 q 349 531 310 531 q 424 508 372 531 q 494 485 475 485 q 543 514 521 485 q 571 543 565 543 q 582 535 582 543 z "},"":{"ha":694,"x_min":263,"x_max":567,"o":"m 564 494 l 557 468 q 538 456 553 456 l 285 456 q 268 471 263 456 l 275 497 q 294 511 279 511 l 547 511 q 557 508 553 511 q 564 494 567 503 z "},"":{"ha":694,"x_min":285,"x_max":617,"o":"m 617 564 q 550 482 617 538 q 411 418 474 418 q 322 464 358 418 q 285 556 285 510 q 299 576 285 576 q 332 532 304 576 q 421 488 360 488 q 543 531 474 488 q 607 574 575 551 q 617 564 617 574 z "},"":{"ha":694,"x_min":375,"x_max":469,"o":"m 469 510 q 417 453 469 453 q 375 492 375 453 q 390 535 375 518 q 429 551 406 551 q 469 510 469 551 z "},"":{"ha":694,"x_min":303,"x_max":518,"o":"m 518 517 q 475 442 518 475 q 382 408 432 408 q 324 425 344 408 q 303 469 303 442 q 346 542 303 510 q 442 574 389 574 q 497 558 476 574 q 518 517 518 543 m 485 507 q 471 536 485 525 q 432 547 457 547 q 368 525 397 547 q 339 475 339 503 q 390 433 339 433 q 455 456 425 433 q 485 507 485 479 z "},"":{"ha":694,"x_min":43,"x_max":326,"o":"m 326 -128 q 292 -198 326 -171 q 201 -225 258 -225 q 93 -205 143 -225 q 43 -174 43 -185 q 53 -168 50 -168 q 126 -187 89 -179 q 197 -196 163 -196 q 253 -178 231 -196 q 276 -136 276 -160 q 211 -89 276 -89 l 175 -94 l 168 -71 q 238 -53 199 -53 q 326 -128 326 -53 z "},"":{"ha":694,"x_min":322,"x_max":626,"o":"m 626 565 q 538 499 626 554 q 385 390 467 454 q 365 406 369 390 l 325 549 l 322 564 q 331 578 322 578 q 400 471 346 578 l 564 558 q 611 575 593 575 q 626 565 626 575 z "},"":{"ha":906,"x_min":43,"x_max":1106,"o":"m 1106 794 q 1068 697 1106 751 q 1013 643 1031 643 l 1007 647 q 1063 724 1039 686 q 1088 792 1088 761 q 1042 842 1088 842 q 893 750 976 842 q 717 469 800 649 l 919 560 l 900 525 l 701 438 q 585 242 650 326 q 440 94 521 158 q 569 56 507 69 q 675 43 632 43 q 811 86 746 43 q 926 183 868 135 l 929 181 q 832 78 929 151 q 636 -6 722 -6 q 389 60 564 -6 q 285 12 332 28 q 185 -4 238 -4 q 81 18 119 -4 q 43 75 43 40 q 167 149 43 149 q 276 136 215 149 q 399 106 319 128 q 481 205 435 132 q 588 400 526 278 l 386 310 l 404 343 l 604 431 q 851 756 718 635 q 1040 860 967 860 q 1106 794 1106 860 m 356 71 q 250 106 290 94 q 154 121 194 121 q 69 72 69 121 q 102 31 69 49 q 186 13 135 13 q 356 71 275 13 z "},"":{"ha":267,"x_min":-8,"x_max":482,"o":"m 482 739 l 283 422 l 426 476 l 407 446 l 264 390 l 108 147 q 49 33 49 56 q 71 11 49 11 q 163 61 107 11 q 272 172 217 117 l 279 165 q 201 75 279 149 q 75 -6 117 -6 q 10 71 10 -6 q 51 176 10 108 q 108 265 72 211 q 43 197 83 242 q -4 151 3 151 l -8 156 q 161 356 -8 157 l 15 300 l 35 329 l 179 385 l 403 728 l 482 739 z "},"":{"ha":706,"x_min":101,"x_max":1347,"o":"m 1347 792 q 1257 632 1347 715 q 992 488 1156 538 q 753 115 892 236 q 419 -6 614 -6 q 189 64 276 -6 q 101 242 101 133 q 198 438 101 357 q 435 519 294 519 q 603 469 540 519 q 665 336 665 419 q 598 191 665 249 q 421 133 531 133 q 310 148 358 133 q 263 175 263 163 l 265 179 q 338 158 301 167 q 415 149 375 149 q 583 201 518 149 q 647 331 647 253 q 594 437 647 397 q 450 476 540 476 q 228 400 321 476 q 135 218 135 324 q 211 69 135 126 q 414 13 288 13 q 696 124 583 13 q 896 472 801 228 l 833 468 q 626 531 706 468 q 546 688 546 594 q 618 833 546 775 q 806 892 690 892 q 1092 757 979 892 q 1283 857 1215 857 q 1347 792 1347 857 m 1331 793 q 1283 842 1331 842 q 1211 813 1254 842 q 1118 725 1168 783 q 1157 654 1157 676 l 1151 649 q 1131 673 1144 649 q 1107 710 1118 697 q 1052 623 1078 672 q 1004 518 1026 574 q 1246 643 1150 551 q 1331 793 1331 724 m 1079 743 q 960 842 1029 808 q 806 875 890 875 q 642 824 706 875 q 578 703 578 774 q 663 561 578 622 q 876 500 749 500 l 908 501 q 988 635 944 575 q 1079 743 1026 689 m 1324 1058 q 1235 992 1324 1047 q 1082 883 1164 947 q 1063 899 1067 883 l 1022 1042 l 1019 1057 q 1028 1071 1019 1071 q 1097 964 1043 1071 l 1261 1051 q 1308 1068 1290 1068 q 1324 1058 1324 1068 z "},"":{"ha":265,"x_min":-37,"x_max":443,"o":"m 276 165 q 201 78 276 149 q 47 -6 113 -6 q -14 11 10 -6 q -37 57 -37 28 q -26 85 -37 74 q 0 96 -15 96 q 25 72 25 96 q 18 48 25 65 q 11 26 11 31 q 29 14 11 14 q 106 79 67 14 q 151 267 151 157 l 150 313 q 42 193 106 268 q -4 150 4 150 l -10 156 q 149 335 -10 164 q 199 386 168 386 q 222 363 222 386 q 206 336 222 344 q 167 296 167 318 q 178 218 167 268 q 189 146 189 168 q 174 74 189 108 q 229 132 204 104 q 269 172 265 172 q 275 169 272 172 q 276 165 275 167 m 443 621 q 354 554 443 610 q 201 446 283 510 q 182 461 186 446 l 142 604 l 139 619 q 147 633 139 633 q 217 526 163 633 l 381 614 q 428 631 410 631 q 443 621 443 631 z "},"":{"ha":840,"x_min":99,"x_max":1258,"o":"m 1258 796 q 1172 676 1258 728 q 953 625 1085 625 l 906 625 q 763 464 856 572 q 617 296 646 329 q 765 97 732 258 q 811 28 779 28 q 869 51 832 28 q 952 124 906 75 q 1000 172 999 172 l 1006 165 q 931 76 1006 144 q 776 -3 843 -3 q 675 115 708 -3 q 592 268 638 247 q 189 -6 336 -6 q 123 16 147 -6 q 99 76 99 38 q 211 240 99 168 q 489 317 329 317 q 536 315 514 317 q 585 308 558 314 q 679 424 632 365 q 771 533 754 514 q 865 636 810 579 q 736 758 778 664 q 635 840 700 840 q 438 756 543 840 q 321 551 321 661 q 350 469 321 501 q 422 438 379 438 q 543 489 482 438 q 646 632 604 540 q 669 700 657 656 q 683 724 676 724 q 688 710 688 715 q 624 513 688 607 q 440 403 549 403 q 341 441 381 403 q 301 544 301 479 q 429 775 301 675 q 665 865 544 865 q 814 789 765 865 q 896 672 883 681 q 1063 810 986 763 q 1190 857 1139 857 q 1240 840 1222 857 q 1258 796 1258 824 m 1240 794 q 1226 826 1240 814 q 1192 839 1213 839 q 1076 794 1139 839 q 933 657 1013 749 q 1006 649 971 649 q 1172 694 1103 649 q 1240 794 1240 739 m 557 278 q 514 286 533 285 q 460 288 494 288 q 208 219 308 288 q 117 78 117 157 q 136 29 117 46 q 190 13 156 13 q 355 79 260 13 q 557 278 450 146 m 1010 1053 q 921 986 1010 1042 q 768 878 850 942 q 749 893 753 878 l 708 1036 l 706 1051 q 714 1065 706 1065 q 783 958 729 1065 l 947 1046 q 994 1063 976 1063 q 1010 1053 1010 1063 z "},"":{"ha":401,"x_min":-44,"x_max":489,"o":"m 413 165 q 335 76 413 151 q 217 -6 250 -6 q 165 61 165 -6 q 172 97 165 74 q 175 114 175 107 q 167 118 169 118 q 115 106 149 118 q 50 69 81 93 q 4 21 31 54 q -29 -4 -15 -4 q -44 11 -44 -4 q 13 69 -44 38 q 250 261 133 174 q 208 251 229 256 q 171 247 188 247 q 104 271 129 247 l 26 176 l 7 156 q 0 149 6 153 q -3 147 -1 147 l -8 151 l -7 161 l 6 178 q 50 231 26 203 q 94 289 74 260 l 89 310 q 129 347 89 347 q 161 321 161 347 q 158 306 161 314 q 151 286 154 296 q 190 265 151 265 q 278 288 242 265 q 344 338 311 313 q 363 324 363 338 q 340 294 363 307 q 306 275 325 286 q 94 111 189 192 q 150 136 136 131 q 196 147 178 147 q 229 135 215 147 q 243 103 243 122 q 231 58 243 86 q 218 25 218 31 q 226 13 218 13 q 326 92 250 13 q 403 172 364 132 l 413 165 m 489 585 q 400 518 489 574 q 247 410 329 474 q 228 425 232 410 l 188 568 l 185 583 q 193 597 185 597 q 263 490 208 597 l 426 578 q 474 594 456 594 q 489 585 489 594 z "},"":{"ha":607,"x_min":276,"x_max":331,"o":"m 331 399 l 276 399 l 276 846 l 331 846 l 331 399 m 331 -207 l 276 -207 l 276 240 l 331 240 l 331 -207 z "},"":{"ha":1063,"x_min":125,"x_max":1146,"o":"m 1146 849 q 1089 810 1117 829 q 1019 749 1053 785 q 1106 503 1106 638 q 954 156 1106 300 q 528 0 790 0 l 390 4 q 326 -3 386 4 q 276 -6 303 -6 q 160 3 194 -6 q 125 38 125 13 q 182 64 125 64 q 299 49 229 64 q 388 33 368 33 q 504 92 446 33 q 685 371 569 157 l 574 371 l 583 392 l 696 392 q 821 585 763 506 q 975 757 899 692 q 711 844 868 844 q 356 690 497 844 q 233 415 233 558 q 260 338 233 367 q 338 310 288 310 q 422 325 386 310 q 483 360 453 342 q 492 353 492 360 q 433 312 492 335 q 332 289 375 289 q 215 337 258 289 q 171 465 171 385 q 319 738 171 617 q 693 865 476 865 q 858 842 785 865 q 992 772 932 819 q 1140 851 1106 851 l 1146 849 m 1089 501 q 1067 628 1089 569 q 1003 735 1044 688 q 894 569 954 675 q 794 392 844 481 l 910 392 l 899 371 l 782 371 q 643 172 708 244 q 447 31 557 78 q 490 26 469 28 q 538 25 511 25 q 940 171 783 25 q 1089 501 1089 308 z "},"":{"ha":403,"x_min":-8,"x_max":460,"o":"m 460 589 l 332 550 q 372 336 372 429 q 269 72 372 171 q 97 -6 188 -6 q 14 119 14 -6 q 17 144 14 131 q 24 175 19 158 q -3 151 7 151 l -8 156 q 83 258 -8 181 q 258 344 186 344 q 315 321 293 344 l 321 372 q 315 444 321 403 q 296 539 310 485 l 138 486 l 131 507 l 290 558 q 243 678 271 617 q 222 728 222 724 q 225 735 222 732 q 228 738 226 736 q 325 568 243 738 l 451 610 l 460 589 m 306 263 q 258 324 306 324 q 133 220 199 324 q 67 56 67 117 q 103 14 67 14 q 228 94 156 14 q 306 263 306 181 z "},"":{"ha":849,"x_min":107,"x_max":1519,"o":"m 1519 869 q 1499 848 1519 857 q 1454 831 1478 839 q 1200 506 1332 772 q 943 65 1035 169 q 443 -156 750 -156 q 198 -90 289 -156 q 107 85 107 -24 q 204 290 107 204 q 446 376 301 376 q 613 326 551 376 q 675 193 675 275 q 601 43 675 103 q 417 -17 528 -17 q 331 6 331 -17 l 338 10 q 357 8 349 10 q 417 1 400 1 q 583 53 515 1 q 650 183 650 106 q 601 290 650 250 q 461 329 551 329 q 238 249 336 329 q 140 72 140 169 q 221 -78 140 -18 q 435 -139 301 -139 q 793 1 647 -139 q 1074 438 922 125 q 774 231 875 231 q 708 315 708 231 q 761 472 708 382 q 863 628 811 547 q 915 756 915 708 q 881 827 915 801 q 785 853 847 853 q 524 758 649 853 q 400 572 400 664 q 424 510 400 533 q 493 488 449 488 q 640 542 565 488 q 754 679 715 596 q 781 752 768 710 q 797 794 793 794 q 800 788 800 790 q 804 769 804 776 q 724 547 804 642 q 514 446 638 446 q 416 477 453 446 q 379 560 379 508 q 509 769 379 668 q 786 869 639 869 q 910 825 865 869 q 954 704 954 781 q 901 544 954 639 q 804 393 883 513 q 750 283 750 311 q 782 253 750 253 q 1018 415 868 253 q 1278 717 1147 565 q 1504 879 1425 879 q 1519 869 1519 879 m 1021 1042 q 929 925 1021 986 q 821 872 850 872 q 811 881 811 872 q 858 918 811 882 q 910 972 888 939 q 942 1040 914 978 q 985 1078 958 1078 q 1021 1042 1021 1078 z "},"":{"ha":518,"x_min":-67,"x_max":531,"o":"m 531 165 q 311 -31 531 104 q 135 -294 221 -200 q -4 -382 54 -382 q -67 -322 -67 -382 q 257 -24 -67 -211 l 353 161 q 150 4 217 4 q 114 24 129 4 q 99 75 99 43 q 156 207 99 129 q 213 307 213 285 q 194 324 213 324 q 111 267 168 324 q -3 150 54 210 l -8 156 q 19 194 -8 163 l 58 238 q 119 300 103 285 q 204 343 167 343 q 257 279 257 343 q 199 151 257 238 q 140 44 140 65 q 146 28 140 35 q 160 21 151 21 q 267 94 192 21 q 447 332 361 186 l 521 336 q 328 -3 408 153 q 446 90 396 42 q 525 172 485 131 l 531 165 m 244 -49 q 35 -203 108 -126 q -33 -324 -33 -272 q 1 -365 -33 -365 q 244 -49 83 -365 m 518 586 q 426 469 518 531 q 318 417 347 417 q 308 425 308 417 q 356 463 308 426 q 407 517 385 483 q 439 585 411 522 q 482 622 456 622 q 518 586 518 622 z "},"":{"ha":892,"x_min":51,"x_max":1053,"o":"m 1053 515 q 981 351 1053 421 q 818 281 910 281 q 732 296 767 281 q 697 324 697 311 l 701 331 q 740 316 718 322 q 789 310 761 310 q 917 381 861 310 q 974 553 974 453 q 883 708 974 647 q 719 417 801 563 q 508 125 606 218 q 208 -7 371 -7 q 94 22 136 -7 q 51 96 51 50 q 68 144 51 125 q 108 164 85 164 q 144 149 129 164 q 160 113 160 133 q 152 83 160 103 q 144 58 144 64 q 166 26 144 39 q 225 13 188 13 q 450 140 349 13 q 625 426 488 189 q 846 724 740 628 q 665 757 768 757 q 321 650 472 757 q 176 429 176 547 q 288 333 176 333 q 358 344 326 333 q 414 372 386 358 l 419 367 q 376 327 419 353 q 285 301 333 301 q 190 336 226 301 q 154 428 154 371 q 289 651 154 546 q 661 771 442 771 q 865 742 774 771 q 1035 860 1000 860 q 1042 856 1038 860 q 982 808 1011 832 q 900 729 940 776 q 1013 635 974 692 q 1053 515 1053 579 z "},"":{"ha":458,"x_min":-231,"x_max":486,"o":"m 486 739 l 121 156 q 343 342 290 342 q 389 283 389 342 q 323 147 389 229 q 257 33 257 64 q 276 13 257 13 q 385 92 308 13 q 461 172 422 132 q 469 165 469 172 q 388 73 469 151 q 276 -6 306 -6 q 218 81 218 -6 q 260 185 218 125 q 349 308 303 244 q 335 324 349 324 q 171 185 293 324 q 8 -40 81 83 l -151 -311 l -231 -319 l 124 278 l 26 174 q 8 156 17 163 q -1 150 6 153 l -8 156 q 100 276 35 201 q 238 461 172 360 l 408 728 l 486 739 z "},"":{"ha":694,"x_min":58,"x_max":649,"o":"m 649 315 l 631 268 l 58 268 l 76 315 l 649 315 z "},"":{"ha":694,"x_min":67,"x_max":639,"o":"m 639 476 l 385 292 l 507 101 l 461 68 l 340 258 l 88 72 l 67 106 l 318 292 l 197 479 l 246 514 l 364 325 l 618 510 l 639 476 z "},"":{"ha":250,"x_min":39,"x_max":296,"o":"m 296 581 q 294 572 294 575 q 286 556 293 567 l 110 240 l 43 233 l 251 535 q 43 379 67 379 l 39 386 q 178 492 107 432 q 289 585 233 538 l 296 581 z "},"":{"ha":326,"x_min":-4,"x_max":329,"o":"m 329 514 q 210 388 329 443 q 43 289 65 321 q 115 319 83 319 q 163 288 156 319 q 182 256 169 256 q 225 281 200 256 q 276 332 250 306 l 279 325 q 235 272 279 311 q 156 232 190 232 q 110 265 114 232 q 93 297 107 297 q 44 276 68 297 q 1 231 22 253 q -4 236 -4 231 q 21 285 -4 256 q 111 358 51 321 q 200 415 156 386 q 286 531 286 474 q 235 574 286 574 q 147 543 185 574 q 110 475 110 513 q 116 456 110 467 q 135 446 122 446 q 211 496 181 446 q 243 547 226 521 q 249 536 249 540 q 217 463 249 499 q 142 428 185 428 q 96 472 96 428 q 141 551 96 515 q 246 586 186 586 q 329 514 329 586 z "},"":{"ha":326,"x_min":19,"x_max":336,"o":"m 336 529 q 196 417 336 460 q 267 358 267 417 q 211 265 267 304 q 101 231 161 231 q 42 249 64 231 q 19 294 19 267 q 54 336 19 336 q 81 311 81 336 q 56 285 81 294 q 43 275 43 281 q 56 256 43 264 q 92 247 69 247 q 181 295 135 247 q 228 374 228 343 q 194 404 228 404 q 161 396 181 404 q 139 388 142 388 q 133 389 136 388 q 131 392 132 390 q 160 412 131 399 q 206 435 189 425 q 296 538 296 488 q 247 571 296 571 q 176 547 210 571 q 142 497 142 522 q 167 475 142 475 q 201 487 181 475 q 235 518 221 499 q 244 537 240 525 q 254 549 249 549 l 257 543 q 229 482 257 508 q 169 456 201 456 q 129 493 129 456 q 169 556 129 528 q 263 585 208 585 q 316 569 296 585 q 336 529 336 553 z "},"":{"ha":753,"x_min":4,"x_max":724,"o":"m 283 586 q 282 578 282 581 q 274 561 281 572 l 97 246 l 31 239 l 239 540 q 31 385 54 385 l 26 392 q 165 497 94 438 q 276 590 221 543 l 283 586 m 724 283 q 604 157 724 213 q 438 58 460 90 q 510 89 478 89 q 557 57 550 89 q 576 25 564 25 q 619 50 594 25 q 671 101 644 75 l 674 94 q 629 41 674 81 q 550 1 585 1 q 505 34 508 1 q 488 67 501 67 q 439 46 463 67 q 396 0 417 22 q 390 6 390 0 q 415 54 390 25 q 506 128 446 90 q 594 185 550 156 q 681 300 681 243 q 629 343 681 343 q 542 313 579 343 q 504 244 504 282 q 510 226 504 236 q 529 215 517 215 q 606 265 575 215 q 638 317 621 290 q 643 306 643 310 q 611 233 643 268 q 536 197 579 197 q 490 242 490 197 q 535 320 490 285 q 640 356 581 356 q 724 283 724 356 m 622 586 l 38 -15 l 4 -15 l 590 586 l 622 586 z "},"":{"ha":661,"x_min":3,"x_max":642,"o":"m 281 581 q 279 572 279 575 q 271 556 278 567 l 94 240 l 28 233 l 236 535 q 28 379 51 379 l 24 386 q 163 492 92 432 q 274 585 218 538 l 281 581 m 642 246 q 618 201 642 244 q 558 82 590 153 q 590 93 576 85 q 618 111 604 101 l 624 106 q 593 78 624 93 q 550 67 572 67 l 522 6 l 458 0 l 506 69 q 469 74 488 72 q 444 76 451 76 q 417 72 429 76 q 394 63 406 67 l 386 67 q 456 171 414 104 q 546 333 504 249 l 608 339 q 504 192 560 264 q 418 86 464 140 l 444 92 q 485 88 461 92 q 515 82 508 83 q 638 250 626 250 l 642 246 m 621 586 l 36 -15 l 3 -15 l 589 586 l 621 586 z "},"":{"ha":672,"x_min":8,"x_max":650,"o":"m 325 538 q 185 425 325 468 q 256 367 256 425 q 200 274 256 313 q 90 239 150 239 q 31 257 53 239 q 8 303 8 275 q 43 344 8 344 q 69 319 69 344 q 44 293 69 303 q 32 283 32 289 q 45 264 32 272 q 81 256 58 256 q 170 303 124 256 q 217 382 217 351 q 183 413 217 413 q 150 404 169 413 q 128 396 131 396 q 122 397 125 396 q 119 400 121 399 q 149 420 119 407 q 194 443 178 433 q 285 546 285 496 q 236 579 285 579 q 165 555 199 579 q 131 506 131 531 q 156 483 131 483 q 190 495 169 483 q 224 526 210 507 q 233 545 229 533 q 243 557 238 557 l 246 551 q 218 490 246 517 q 158 464 190 464 q 118 501 118 464 q 158 565 118 536 q 251 593 197 593 q 305 577 285 593 q 325 538 325 561 m 642 243 q 607 178 624 210 q 560 82 582 132 q 600 97 582 85 q 618 110 608 103 l 624 106 q 594 78 624 93 q 551 67 574 67 l 524 6 l 461 0 l 507 69 l 447 75 q 420 70 432 75 q 397 61 408 65 l 389 67 q 460 172 417 104 q 547 331 503 240 l 608 336 q 506 190 557 257 q 421 86 469 143 l 446 90 q 478 88 458 90 q 517 82 497 85 q 638 249 626 249 l 642 243 m 650 586 l 65 -15 l 32 -15 l 618 586 l 650 586 z "}}}
